<?xml version="1.0" encoding="UTF-8"?>
<svg width="44px" height="44px" viewBox="0 0 44 44" version="1.1" xmlns="http://www.w3.org/2000/svg" xmlns:xlink="http://www.w3.org/1999/xlink">
    <title>F0B812E1-9F07-4EB6-BFB8-E7D76C769AAA@2x</title>
    <g id="Page-1" stroke="none" stroke-width="1" fill="none" fill-rule="evenodd">
        <g id="Icons-1.0.0.1" transform="translate(-416.000000, -205.000000)">
            <g id="Banking-Ser" transform="translate(40.000000, 40.000000)">
                <g id="Finance-Product" transform="translate(360.000000, 147.000000)">
                    <g id="ic.Payment-Order" transform="translate(16.000000, 18.000000)">
                        <rect id="Bond" stroke="#979797" opacity="0" x="0" y="0" width="44" height="44"></rect>
                        <rect id="Rectangle" stroke="#17396C" stroke-width="1.5" fill="#FFFFFF" stroke-linejoin="round" x="2" y="10" width="40" height="24" rx="1.45371437"></rect>
                        <path d="M11.2453944,16.5 L6.75460557,16.5 C6.33750911,16.5 6,16.1645508 6,15.75 C6,15.3354492 6.33750911,15 6.75460557,15 L11.2453944,15 C11.6624909,15 12,15.3354492 12,15.75 C12,16.1645508 11.6624909,16.5 11.2453944,16.5 Z" id="Path" fill="#17396C" fill-rule="nonzero"></path>
                        <path d="M19.0012303,27.5 L6.99876971,27.5 C6.44671534,27.5 6,27.1645508 6,26.75 C6,26.3354492 6.44671534,26 6.99876971,26 L19.0012303,26 C19.5532847,26 20,26.3354492 20,26.75 C20,27.1645508 19.5532847,27.5 19.0012303,27.5 Z" id="Path-" fill="#17396C" fill-rule="nonzero"></path>
                        <path d="M29.3333333,20.4788867 L6.66666667,20.5 C6.29817707,20.5 6,20.1692724 6,19.7605567 C6,19.3518409 6.29817707,19.0211133 6.66666667,19.0211133 L29.3333333,19 C29.7018229,19 30,19.3307276 30,19.7394433 C30,20.1481591 29.7018229,20.4788867 29.3333333,20.4788867 Z" id="Path" fill="#17396C" fill-rule="nonzero"></path>
                        <path d="M29.3302107,24.5 L6.66979046,24.4256797 C6.29957423,24.4256797 6,24.1068509 6,23.7128398 C6,23.3188287 6.29957423,23 6.66979046,23 L29.3302095,23.0743203 C29.7004258,23.0743203 30,23.3931491 30,23.7871602 C30,24.1811713 29.700427,24.5 29.3302107,24.5 Z" id="Path" fill="#17396C" fill-rule="nonzero"></path>
                        <path d="M32.0428063,30.5 C31.6847715,30.5 31.3527755,30.4484815 31.079367,30.3854392 C30.5448463,30.2613883 30.0616801,30.0614154 29.5951498,29.8675434 L29.2501344,29.7258676 C29.1995032,29.7055314 29.1640614,29.6926518 29.1387458,29.6845173 C29.1351293,29.686551 29.1307894,29.6885846 29.1271729,29.6906182 C29.0280804,29.7468818 28.8913748,29.8241594 28.7091026,29.8709327 C28.1796449,30.0044739 27.7478332,29.7726409 27.4642985,29.5902928 C27.3926916,29.8960141 27.1048171,30.127847 26.7561852,30.1346258 C26.3807911,30.144116 26.0097368,29.8377169 26.0003338,29.454718 C25.988761,28.9191974 26.2788054,28.4046909 26.7583551,28.1125271 C26.8791466,28.0393167 27.0194674,28 27.1626813,28 C27.1634046,28 27.1641279,28 27.1648512,28 C27.6306582,28.0013557 27.9742269,28.2291214 28.2259363,28.3952006 C28.2707811,28.4250271 28.3293686,28.4643438 28.3778299,28.4928145 C28.476199,28.4372288 28.6071168,28.366052 28.7799862,28.3226681 C29.2298819,28.2101409 29.6371014,28.3707971 29.8331164,28.4501084 L30.1947678,28.597885 C30.6222397,28.775488 31.0258426,28.9429229 31.4345087,29.0378253 C31.937204,29.1537418 32.3899916,29.1306941 32.7118613,28.9741051 C32.7950411,28.9334327 32.8774976,28.8839479 32.9599541,28.835141 C33.2970132,28.6351681 33.7584803,28.3626626 34.3494187,28.4473969 C34.682138,28.4948481 34.9381871,28.646014 35.1247992,28.7565075 C35.1855567,28.7924348 35.2455907,28.8303958 35.3099647,28.8581887 C35.7019948,29.0351138 36.3421177,28.6941431 36.854216,28.3809653 C37.1970615,28.1708243 37.6556354,28.2603037 37.879136,28.5822939 C38.1033598,28.9029284 38.0064373,29.3333785 37.664315,29.5428416 C37.1276244,29.8716106 35.8741408,30.6423535 34.6792447,30.1149674 C34.560623,30.0620932 34.4463413,29.9970173 34.3342293,29.9305856 C34.2647923,29.8899132 34.1606367,29.8282267 34.1230249,29.8194143 C34.0629907,29.8234815 33.867699,29.939398 33.750524,30.0085411 C33.6333489,30.0783621 33.5154506,30.1468275 33.3961057,30.2051246 C32.9469347,30.424756 32.4753413,30.5 32.0428063,30.5 Z" id="Path" fill="#17396C" fill-rule="nonzero"></path>
                        <rect id="Rectangle" fill="#17396C" x="13" y="15" width="1.5" height="1.5"></rect>
                        <rect id="Rectangle" fill="#17396C" x="16" y="15" width="1.5" height="1.5"></rect>
                        <rect id="Rectangle" fill="#17396C" x="19" y="15" width="1.5" height="1.5"></rect>
                    </g>
                </g>
            </g>
        </g>
    </g>
</svg>