<?xml version="1.0" encoding="UTF-8"?>
<svg width="44px" height="44px" viewBox="0 0 44 44" version="1.1" xmlns="http://www.w3.org/2000/svg" xmlns:xlink="http://www.w3.org/1999/xlink">
    <title>37F09187-F590-4F98-AC91-903DE23A18DD@2x</title>
    <g id="Page-1" stroke="none" stroke-width="1" fill="none" fill-rule="evenodd">
        <g id="Icons-1.0.0.0" transform="translate(-796.000000, -335.000000)">
            <g id="Accounts-Type" transform="translate(796.000000, 40.000000)">
                <g id="Investment-Deposit-Accounts" transform="translate(0.000000, 295.000000)">
                    <rect id="Bond" stroke="#979797" opacity="0" x="0.5" y="0.5" width="43" height="43"></rect>
                    <path d="M6,24 L8.80963872,24 L17.7359547,27.6778322 L23.9299472,27.6778322 C23.9299472,27.6778322 26.3926768,28.3217588 26.3926768,30.4580669 C26.3926768,32.594375 23.9299472,33.3478278 23.9299472,33.3478278 L17.7359547,33.3478278 L27.2334294,33.3478278 L39.0111258,30.8843337 C39.0111258,30.8843337 42,30.4580669 42,33.3478278 C42,36.2375886 40.3655682,36.4502744 40.3655682,36.4502744 C40.3655682,36.4502744 25.8189683,42 21.4097487,42 C17.0005291,42 8.80963872,38.3975727 8.80963872,38.3975727 L6,38.3975727" id="Path" stroke="#1E3A68"></path>
                    <rect id="Rectangle" stroke="#1E3A68" fill-opacity="0.6" fill="#00A0E6" fill-rule="nonzero" x="2.5" y="20.5" width="3" height="21" rx="1.5"></rect>
                    <path d="M18.0000507,17.5 C19.2596714,17.5 20.5285426,17.7019091 21.4278409,18.1514575 C21.775434,18.3252151 22.0653645,18.5344086 22.2592421,18.7924905 C22.412383,18.9963454 22.5,19.2312084 22.5,19.4994146 C22.5,19.7678747 22.4123749,20.0029565 22.2591874,20.2069898 C22.065326,20.4651976 21.7754191,20.6744876 21.4278509,20.8483141 C20.5285678,21.2980655 19.2596815,21.5 18.0000507,21.5 C16.7403709,21.5 15.4714633,21.298067 14.5721678,20.8483185 C14.2245925,20.6744919 13.9346808,20.4652018 13.7408163,20.2069933 C13.5876262,20.0029592 13.5,19.7678762 13.5,19.4994146 C13.5,19.2312068 13.5876181,18.9963427 13.7407616,18.7924871 C13.9346423,18.5344044 14.2245776,18.3252107 14.5721779,18.151453 C15.4714885,17.7019076 16.740381,17.5 18.0000507,17.5 Z" id="Path" stroke="#1E3A68" fill-opacity="0.6" fill="#00A0E6" fill-rule="nonzero"></path>
                    <path d="M22,22 C22,23.1042635 20.2089594,24 18,24 C15.7910406,24 14,23.1042635 14,22" id="Path" stroke="#17396C" stroke-width="0.886835" stroke-linecap="round" stroke-linejoin="round"></path>
                    <path d="M32.0000507,14.5 C33.2596714,14.5 34.5285426,14.7019091 35.4278409,15.1514575 C35.775434,15.3252151 36.0653645,15.5344086 36.2592421,15.7924905 C36.412383,15.9963454 36.5,16.2312084 36.5,16.4994146 C36.5,16.7678747 36.4123749,17.0029565 36.2591874,17.2069898 C36.065326,17.4651976 35.7754191,17.6744876 35.4278509,17.8483141 C34.5285678,18.2980655 33.2596815,18.5 32.0000507,18.5 C30.7403709,18.5 29.4714633,18.298067 28.5721678,17.8483185 C28.2245925,17.6744919 27.9346808,17.4652018 27.7408163,17.2069933 C27.5876262,17.0029592 27.5,16.7678762 27.5,16.4994146 C27.5,16.2312068 27.5876181,15.9963427 27.7407616,15.7924871 C27.9346423,15.5344044 28.2245776,15.3252107 28.5721779,15.151453 C29.4714885,14.7019076 30.740381,14.5 32.0000507,14.5 Z" id="Path" stroke="#1E3A68" fill-opacity="0.6" fill="#00A0E6" fill-rule="nonzero"></path>
                    <path d="M36,19 C36,20.1042635 34.2089594,21 32,21 C29.7910406,21 28,20.1042635 28,19" id="Path" stroke="#17396C" stroke-width="0.886835" stroke-linecap="round" stroke-linejoin="round"></path>
                    <path d="M36,21 C36,22.1042635 34.2089594,23 32,23 C29.7910406,23 28,22.1042635 28,21" id="Path" stroke="#17396C" stroke-width="0.886835" stroke-linecap="round" stroke-linejoin="round"></path>
                    <path d="M36,23 C36,24.1042635 34.2089594,25 32,25 C29.7910406,25 28,24.1042635 28,23" id="Path" stroke="#17396C" stroke-width="0.886835" stroke-linecap="round" stroke-linejoin="round"></path>
                    <path d="M36,25 C36,26.1042635 34.2089594,27 32,27 C29.7910406,27 28,26.1042635 28,25" id="Path" stroke="#17396C" stroke-width="0.886835" stroke-linecap="round" stroke-linejoin="round"></path>
                    <polyline id="Path" stroke="#17396C" stroke-linecap="round" stroke-linejoin="round" points="19 15 24.0235162 6.32215993 31.5461137 11.0799005 35 5"></polyline>
                    <polygon id="Path" stroke="#1E3A68" fill-opacity="0.6" fill="#00A0E6" fill-rule="nonzero" points="37 2 36.712847 6 33 4.20792687"></polygon>
                </g>
            </g>
        </g>
    </g>
</svg>