<?xml version="1.0" encoding="UTF-8"?>
<svg width="13px" height="14px" viewBox="0 0 13 14" version="1.1" xmlns="http://www.w3.org/2000/svg" xmlns:xlink="http://www.w3.org/1999/xlink">
    <!-- Generator: sketchtool 64 (101010) - https://sketch.com -->
    <title>95F41818-19A6-445D-8EBB-363A841803DD@2.00x</title>
    <desc>Created with sketchtool.</desc>
    <g id="Symbols" stroke="none" stroke-width="1" fill="none" fill-rule="evenodd">
        <g id="Button/Small/WithIcon-NoBG" transform="translate(0.000000, -6.000000)">
            <g id="ic/ViewReceipt" transform="translate(-6.000000, 2.000000)">
                <rect id="Bond" x="0" y="0" width="24" height="24"></rect>
                <path d="M10.2000006,8.20000059 L14.4000012,8.20000059 C14.7866006,8.20000059 15.1000013,7.88659987 15.1000013,7.50000049 C15.1000013,7.11340111 14.7866006,6.80000039 14.4000012,6.80000039 L10.2000006,6.80000039 C9.81340121,6.80000039 9.50000049,7.11340111 9.50000049,7.50000049 C9.50000049,7.88659987 9.81340121,8.20000059 10.2000006,8.20000059 Z M9.50000049,11.000001 L15.1000013,11.000001 C15.4866007,11.000001 15.8000004,10.6866003 15.8000004,10.3000009 C15.8000004,9.91340151 15.4866007,9.60000079 15.1000013,9.60000079 L9.50000049,9.60000079 C9.11340111,9.60000079 8.80000039,9.91340151 8.80000039,10.3000009 C8.80000039,10.6866003 9.11340111,11.000001 9.50000049,11.000001 Z M9.50000049,13.8000014 L15.1000013,13.8000014 C15.4866007,13.8000014 15.8000004,13.4866007 15.8000004,13.1000013 C15.8000004,12.7134019 15.4866007,12.4000012 15.1000013,12.4000012 L9.50000049,12.4000012 C9.11340111,12.4000012 8.80000039,12.7134019 8.80000039,13.1000013 C8.80000039,13.4866007 9.11340111,13.8000014 9.50000049,13.8000014 Z M17.9000017,4 L6.7000001,4 C6.31340072,4 6,4.31340072 6,4.7000001 L6,17.3000019 C6,17.5651423 6.14980168,17.8075266 6.38695054,17.926101 C6.62409939,18.0446754 6.90788777,18.0190862 7.12000016,17.8600019 L8.56900036,16.7750018 L10.0110006,17.8600019 C10.2598895,18.0466686 10.6021118,18.0466686 10.8510007,17.8600019 L12.3000009,16.7750018 L13.7490011,17.8600019 C13.99789,18.0466686 14.3401123,18.0466686 14.5890012,17.8600019 L16.0310014,16.7750018 L17.4800016,17.8600019 C17.693161,18.0188688 17.977916,18.0432763 18.2150017,17.923002 C18.4503975,17.8043868 18.5992029,17.5635927 18.6000018,17.3000019 L18.6000018,4.7000001 C18.6000018,4.31340072 18.2866011,4 17.9000017,4 Z M17.2000016,16.0666684 L16.4510015,15.4977794 C16.2021125,15.3081497 15.8598903,15.3081497 15.6110013,15.4977794 L14.1690011,16.6000018 L12.7200009,15.4977794 C12.471112,15.3081497 12.1288897,15.3081497 11.8800008,15.4977794 L10.4310006,16.6000018 L8.98900042,15.4977794 C8.7401115,15.3081497 8.39788923,15.3081497 8.1490003,15.4977794 L7.4000002,16.0666684 L7.4000002,5.4000002 L17.2000016,5.4000002 L17.2000016,16.0666684 Z" id="Icon-Shape" fill="#00A0E6" fill-rule="nonzero"></path>
            </g>
        </g>
    </g>
</svg>