<?xml version="1.0" encoding="UTF-8"?>
<svg width="24px" height="24px" viewBox="0 0 24 24" version="1.1" xmlns="http://www.w3.org/2000/svg" xmlns:xlink="http://www.w3.org/1999/xlink">
    <title>8CD83BDB-C651-4917-B75A-1EF27E597130@2x</title>
    <g id="Page-1" stroke="none" stroke-width="1" fill="none" fill-rule="evenodd">
        <g id="Icons-1.0.0.0" transform="translate(-186.000000, -135.000000)">
            <g id="Main-Navigation" transform="translate(40.000000, 40.000000)">
                <g id="Accounts-Hover" transform="translate(112.000000, 73.000000)">
                    <g id="ic.Accounts-Hover" transform="translate(34.000000, 22.000000)">
                        <rect id="Bond" stroke="#AFAFAF" stroke-width="1.07" opacity="0" fill-rule="nonzero" x="0.535" y="0.535" width="22.93" height="22.93" rx="2"></rect>
                        <rect id="Rectangle" stroke="#1E326E" fill-rule="nonzero" x="0.5" y="8.5" width="23" height="15" rx="2"></rect>
                        <path d="M23.5,13.5 L23.5,18.5 L20,18.5 C19.5857864,18.5 19.2107864,18.3321068 18.9393398,18.0606602 C18.6678932,17.7892136 18.5,17.4142136 18.5,17 L18.5,17 L18.5,15 C18.5,14.5857864 18.6678932,14.2107864 18.9393398,13.9393398 C19.2107864,13.6678932 19.5857864,13.5 20,13.5 L20,13.5 L23.5,13.5 Z" id="Rectangle" stroke="#1E326E" fill-opacity="0.6" fill="#00A0E6" fill-rule="nonzero"></path>
                        <path d="M8,0.5 C8.41421356,0.5 8.78921356,0.667893219 9.06066017,0.939339828 C9.33210678,1.21078644 9.5,1.58578644 9.5,2 L9.5,2 L9.5,8.5 L2.5,8.5 L2.5,2 C2.5,1.58578644 2.66789322,1.21078644 2.93933983,0.939339828 C3.21078644,0.667893219 3.58578644,0.5 4,0.5 L4,0.5 Z" id="Rectangle" stroke="#1E326E"></path>
                        <circle id="Oval" stroke="#1E326E" fill-opacity="0.6" fill="#00A0E6" cx="6" cy="4" r="1.5"></circle>
                        <path d="M20,0.5 C20.4142136,0.5 20.7892136,0.667893219 21.0606602,0.939339828 C21.3321068,1.21078644 21.5,1.58578644 21.5,2 L21.5,2 L21.5,8.5 L12.5,8.5 L12.5,2 C12.5,1.58578644 12.6678932,1.21078644 12.9393398,0.939339828 C13.2107864,0.667893219 13.5857864,0.5 14,0.5 L14,0.5 Z" id="Rectangle" stroke="#1E326E"></path>
                        <path d="M20,0.5 C20.4142136,0.5 20.7892136,0.667893219 21.0606602,0.939339828 C21.3321068,1.21078644 21.5,1.58578644 21.5,2 L21.5,2 L21.5,8.5 L18.5,8.5 L18.5,0.5 Z" id="Rectangle-Copy" stroke="#1E326E" fill-opacity="0.6" fill="#00A0E6"></path>
                    </g>
                </g>
            </g>
        </g>
    </g>
</svg>