<?xml version="1.0" encoding="UTF-8"?>
<svg width="28px" height="24px" viewBox="0 0 28 24" version="1.1" xmlns="http://www.w3.org/2000/svg" xmlns:xlink="http://www.w3.org/1999/xlink">
    <title>A44F0C92-6F32-47D9-BC59-AB858129C6E7@2x</title>
    <g id="Page-1" stroke="none" stroke-width="1" fill="none" fill-rule="evenodd">
        <g id="Icons-1.0.0.0" transform="translate(-72.000000, -249.000000)">
            <g id="Main-Navigation" transform="translate(40.000000, 40.000000)">
                <g id="Cards-Normal" transform="translate(0.000000, 185.000000)">
                    <g id="ic.Cards-Normal" transform="translate(32.000000, 24.000000)">
                        <rect id="Bond" stroke="#AFAFAF" stroke-width="1.07" opacity="0" fill-rule="nonzero" x="2.535" y="0.535" width="22.93" height="22.93" rx="2"></rect>
                        <rect id="Shape" stroke="#1E326E" fill-rule="nonzero" x="0.5" y="2.5" width="27" height="19" rx="2"></rect>
                        <rect id="Shape" stroke="#1E326E" fill-rule="nonzero" x="0.5" y="15.5" width="27" height="3"></rect>
                        <path d="M7.4444,8.8198 C7.4625,8.8221 7.4815,8.8235 7.5,8.8235 L8.6666,8.8235 L8.6666,9.1765 C8.6666,9.4488 8.4871,9.647 8.2778,9.647 L7.2482,9.647 C7.3712,9.472 7.4444,9.2457 7.4444,9 L7.4444,8.8198 Z M5.5556,8.8198 L5.5556,9 C5.5556,9.2457 5.6288,9.472 5.7517,9.647 L4.7222,9.647 C4.5128,9.647 4.3333,9.4488 4.3333,9.1765 L4.3333,8.8235 L5.5,8.8235 C5.5185,8.8235 5.5373,8.8221 5.5556,8.8198 Z M7.5,7.4706 L8.6666,7.4706 L8.6666,8.4706 L7.5,8.4706 C7.4418,8.4706 7.3961,8.448 7.3542,8.3935 C7.3122,8.3387 7.2777,8.2475 7.2777,8.1177 L7.2777,7.8234 C7.2777,7.6937 7.3122,7.6025 7.3542,7.5477 C7.3961,7.4932 7.4418,7.4706 7.5,7.4706 Z M4.3333,7.4706 L5.5,7.4706 C5.5581,7.4706 5.6039,7.4932 5.6458,7.5477 C5.6877,7.6025 5.7222,7.6937 5.7222,7.8234 L5.7222,8.1177 C5.7222,8.2475 5.6877,8.3387 5.6458,8.3935 C5.6039,8.448 5.5581,8.4706 5.5,8.4706 L4.3333,8.4706 L4.3333,7.4706 Z M7.2465,6.353 L8.2778,6.353 C8.4871,6.353 8.6666,6.5511 8.6666,6.8235 L8.6666,7.1176 L7.5,7.1176 C7.4815,7.1176 7.4625,7.1191 7.4444,7.1214 L7.4444,7 C7.4444,6.7536 7.3699,6.5281 7.2465,6.353 Z M6.3889,6.353 L6.6111,6.353 C6.8797,6.353 7.111,6.6099 7.111,7 L7.111,7.307 C7.106,7.3131 7.1004,7.319 7.0954,7.3253 C6.9968,7.4539 6.9443,7.6274 6.9443,7.8234 L6.9443,8.1177 C6.9443,8.3138 6.9968,8.4872 7.0954,8.6158 C7.1004,8.6221 7.106,8.628 7.111,8.6341 L7.111,9 C7.111,9.3901 6.8797,9.647 6.6111,9.647 L6.3889,9.647 C6.1202,9.647 5.8888,9.3901 5.8888,9 L5.8888,8.6341 C5.894,8.628 5.8995,8.6221 5.9044,8.6158 C6.0031,8.4872 6.0555,8.3138 6.0555,8.1177 L6.0555,7.8234 C6.0555,7.6274 6.0031,7.4539 5.9044,7.3253 C5.8995,7.319 5.894,7.3131 5.8888,7.307 L5.8888,7 C5.8888,6.6099 6.1202,6.353 6.3889,6.353 Z M4.7222,6.353 L5.7535,6.353 C5.63,6.5281 5.5556,6.7536 5.5556,7 L5.5556,7.1214 C5.5373,7.1191 5.5185,7.1176 5.5,7.1176 L4.3333,7.1176 L4.3333,6.8235 C4.3333,6.5511 4.5128,6.353 4.7222,6.353 Z M4.7222,6 C4.316,6 4,6.3789 4,6.8235 L4,9.1765 C4,9.6211 4.316,10 4.7222,10 L8.2778,10 C8.6839,10 9,9.6211 9,9.1765 L9,6.8235 C9,6.3789 8.6839,6 8.2778,6 L4.7222,6 Z" id="Shape" fill="#1E326E"></path>
                        <circle id="Oval" stroke="#1E326E" cx="22" cy="8" r="2"></circle>
                    </g>
                </g>
            </g>
        </g>
    </g>
</svg>