<?xml version="1.0" encoding="UTF-8"?>
<svg width="24px" height="24px" viewBox="0 0 24 24" version="1.1" xmlns="http://www.w3.org/2000/svg" xmlns:xlink="http://www.w3.org/1999/xlink">
    <title>ED2F05A8-5E80-4A25-A44C-B5D638B85160@2x</title>
    <g id="Page-1" stroke="none" stroke-width="1" fill="none" fill-rule="evenodd">
        <g id="Icons-1.0.0.0" transform="translate(-486.000000, -701.000000)">
            <g id="Quick-Links" transform="translate(486.000000, 40.000000)">
                <g id="Cheqe-Book" transform="translate(0.000000, 661.000000)">
                    <rect id="Bond" stroke="#979797" opacity="0" x="0.5" y="0.5" width="23" height="23"></rect>
                    <rect id="Rectangle" stroke="#1E326E" fill-rule="nonzero" x="1.5" y="6.5" width="19" height="13" rx="1"></rect>
                    <line x1="4" y1="9" x2="17" y2="9" id="Path" stroke="#1E326E" stroke-width="1.12" stroke-linecap="round"></line>
                    <line x1="4" y1="11" x2="14" y2="11" id="Path" stroke="#1E326E" stroke-width="1.12" stroke-linecap="round"></line>
                    <line x1="4" y1="13" x2="10" y2="13" id="Path" stroke="#00A0E6" stroke-width="1.12" stroke-linecap="round"></line>
                    <path d="M11,17 L12.3204,15.6983 C12.7122,15.3121 13.3424,15.3149 13.7308,15.7046 L14.3097,16.2857 C14.7018,16.6792 15.3396,16.6777 15.7298,16.2823 L16.9954,15" id="Path" stroke="#17396C" stroke-linecap="round" stroke-linejoin="round"></path>
                    <g id="Group" transform="translate(17.000000, 4.000000)" fill-rule="nonzero">
                        <path d="M5.15997715,5.58236203 C5.11748005,5.58236203 5.07440476,5.57303427 5.03364223,5.55287425 C4.88591422,5.48005748 4.82260221,5.29621016 4.89256342,5.14245241 L5.90700104,2.91161178 L3.92958487,1.93761219 C3.78185686,1.86479542 3.71854484,1.6809481 3.78850605,1.52719035 C3.85817818,1.3737335 4.03452669,1.30693463 4.18283292,1.38035321 L6.42795193,2.48674694 C6.57567994,2.55956371 6.63870288,2.74311015 6.56903075,2.89686787 L5.4279691,5.40603708 C5.37737729,5.51736854 5.27098999,5.58236203 5.15997715,5.58236203 Z" id="Path" fill="#17396C"></path>
                        <path d="M4.81132745,0.718382558 L0.59919973,9.97965276 C0.558148101,10.0699215 0.664246326,10.3338071 0.827296417,10.5682049 C1.1045394,10.5507529 1.36819489,10.4692102 1.40895745,10.3789415 L5.62137425,1.11737035 L4.81132745,0.718382558 Z" id="Path" fill="#34C1FF"></path>
                        <path d="M4.79716171,0.0293312 L6.14232508,0.692204576 C6.29005309,0.765021344 6.3533651,0.948868661 6.28340389,1.10262642 L1.9443631,10.6425261 C1.71453183,11.1477301 0.95420952,11.1877492 0.719752716,11.1877492 L0.67927927,11.1874483 L0.67927927,11.1874483 C0.59515235,11.185643 0.515361888,11.1462256 0.460722731,11.0797276 C0.351444476,10.9467317 -0.18135933,10.255875 0.06379402,9.71606802 L4.40283487,0.176168334 C4.43665909,0.102147968 4.49708016,0.0452786718 4.57079961,0.0178971532 C4.64509727,-0.00948436533 4.72662232,-0.0052718169 4.79716171,0.0293312 Z M4.81132745,0.718382558 L0.59919973,9.97965276 C0.558148101,10.0699215 0.664246326,10.3338071 0.827296417,10.5682049 C1.1045394,10.5507529 1.36819489,10.4692102 1.40895745,10.3789415 L5.62137425,1.11737035 L4.81132745,0.718382558 Z" id="Combined-Shape" fill="#17396C"></path>
                        <path d="M0.408685508,11.7955587 C0.366188402,11.7955587 0.323113112,11.786231 0.282350589,11.76577 C0.134622579,11.6929533 0.0713105661,11.5094068 0.141560881,11.3556491 L0.418225684,10.7475388 C0.488186893,10.593781 0.665113618,10.5275839 0.812263443,10.6010025 C0.959991454,10.6738193 1.02330347,10.8573657 0.953053151,11.0111235 L0.676388348,11.6192338 C0.625796541,11.7305652 0.519698345,11.7955587 0.408685508,11.7955587 Z" id="Path" fill="#17396C"></path>
                    </g>
                </g>
            </g>
        </g>
    </g>
</svg>