<?xml version="1.0" encoding="UTF-8"?>
<svg width="24px" height="24px" viewBox="0 0 24 24" version="1.1" xmlns="http://www.w3.org/2000/svg" xmlns:xlink="http://www.w3.org/1999/xlink">
    <title>16E17BFC-9DF7-44DF-AFF8-89D80E0F9594@2x</title>
    <g id="Page-1" stroke="none" stroke-width="1" fill="none" fill-rule="evenodd">
        <g id="Icons-1.0.0.0" transform="translate(-486.000000, -573.000000)">
            <g id="Quick-Links" transform="translate(486.000000, 40.000000)">
                <g id="Money-Transfer" transform="translate(0.000000, 533.000000)">
                    <rect id="Bond" stroke="#979797" opacity="0" x="0.5" y="0.5" width="23" height="23"></rect>
                    <g id="1" transform="translate(1.000000, 5.000000)">
                        <path d="M5.00005066,0.5 C6.25967143,0.5 7.52854263,0.701909091 8.42784087,1.15145747 C8.77543404,1.32521511 9.06536447,1.53440861 9.25924208,1.7924905 C9.412383,1.99634539 9.5,2.23120836 9.5,2.49941457 C9.5,2.76787468 9.41237488,3.00295647 9.25918739,3.20698984 C9.06532598,3.46519759 8.7754191,3.67448755 8.42785092,3.8483141 C7.52856782,4.29806551 6.25968152,4.5 5.00005066,4.5 C3.74037086,4.5 2.47146332,4.29806703 1.57216784,3.84831855 C1.22459251,3.67449195 0.934680804,3.46520178 0.740816297,3.20699329 C0.587626236,3.00295917 0.5,2.76787624 0.5,2.49941457 C0.5,2.23120679 0.587618117,1.99634269 0.74076161,1.79248705 C0.934642315,1.53440442 1.22457758,1.32521073 1.57217789,1.15145303 C2.47148851,0.701907569 3.74038095,0.5 5.00005066,0.5 Z" id="Path" stroke="#1E3A68" fill-opacity="0.6" fill="#00A0E6" fill-rule="nonzero"></path>
                        <path d="M9,5 C9,6.10426346 7.20895936,7 5,7 C2.79104064,7 1,6.10426346 1,5" id="Path" stroke="#17396C" stroke-linecap="round" stroke-linejoin="round"></path>
                        <path d="M9,7 C9,8.10426346 7.20895936,9 5,9 C2.79104064,9 1,8.10426346 1,7" id="Path" stroke="#17396C" stroke-linecap="round" stroke-linejoin="round"></path>
                        <path d="M9,9 C9,10.1042635 7.20895936,11 5,11 C2.79104064,11 1,10.1042635 1,9" id="Path" stroke="#17396C" stroke-linecap="round" stroke-linejoin="round"></path>
                        <path d="M9,11 C9,12.1042635 7.20895936,13 5,13 C2.79104064,13 1,12.1042635 1,11" id="Path" stroke="#17396C" stroke-linecap="round" stroke-linejoin="round"></path>
                        <path d="M9,13 C9,14.1042635 7.20895936,15 5,15 C2.79104064,15 1,14.1042635 1,13" id="Path" stroke="#17396C" stroke-linecap="round" stroke-linejoin="round"></path>
                        <path d="M9,15 C9,16.1042635 7.20895936,17 5,17 C2.79104064,17 1,16.1042635 1,15" id="Path" stroke="#17396C" stroke-linecap="round" stroke-linejoin="round"></path>
                    </g>
                    <g id="2" transform="translate(13.000000, 10.000000)">
                        <path d="M5.00005066,0.5 C6.25967143,0.5 7.52854263,0.701909091 8.42784087,1.15145747 C8.77543404,1.32521511 9.06536447,1.53440861 9.25924208,1.7924905 C9.412383,1.99634539 9.5,2.23120836 9.5,2.49941457 C9.5,2.76787468 9.41237488,3.00295647 9.25918739,3.20698984 C9.06532598,3.46519759 8.7754191,3.67448755 8.42785092,3.8483141 C7.52856782,4.29806551 6.25968152,4.5 5.00005066,4.5 C3.74037086,4.5 2.47146332,4.29806703 1.57216784,3.84831855 C1.22459251,3.67449195 0.934680804,3.46520178 0.740816297,3.20699329 C0.587626236,3.00295917 0.5,2.76787624 0.5,2.49941457 C0.5,2.23120679 0.587618117,1.99634269 0.74076161,1.79248705 C0.934642315,1.53440442 1.22457758,1.32521073 1.57217789,1.15145303 C2.47148851,0.701907569 3.74038095,0.5 5.00005066,0.5 Z" id="Path" stroke="#1E3A68" fill-opacity="0.6" fill="#00A0E6" fill-rule="nonzero"></path>
                        <path d="M9,5 C9,6.10426346 7.20895936,7 5,7 C2.79104064,7 1,6.10426346 1,5" id="Path" stroke="#17396C" stroke-linecap="round" stroke-linejoin="round"></path>
                        <path d="M9,7 C9,8.10426346 7.20895936,9 5,9 C2.79104064,9 1,8.10426346 1,7" id="Path" stroke="#17396C" stroke-linecap="round" stroke-linejoin="round"></path>
                        <path d="M9,9 C9,10.1042635 7.20895936,11 5,11 C2.79104064,11 1,10.1042635 1,9" id="Path" stroke="#17396C" stroke-linecap="round" stroke-linejoin="round"></path>
                        <path d="M9,11 C9,12.1042635 7.20895936,13 5,13 C2.79104064,13 1,12.1042635 1,11" id="Path" stroke="#17396C" stroke-linecap="round" stroke-linejoin="round"></path>
                    </g>
                    <path d="M22.962216,4.16076294 C23.0396263,3.96676911 22.9967992,3.74347245 22.853714,3.59504347 L20.3536689,1 L19.6466562,1.73387829 L21.2931859,3.44297392 L16.0000723,3.44297392 L16.0000723,4.48099134 L22.5002076,4.48099134 C22.7024258,4.48104413 22.8847664,4.35465978 22.962216,4.16076294 Z" id="Icon-Path" fill="#17396C" fill-rule="nonzero"></path>
                    <path d="M14.038073,5.32022859 C13.9606627,5.51422242 14.0034898,5.73751908 14.146575,5.88594806 L16.6466201,8.48099153 L17.3536328,7.74711324 L15.7071031,6.03801761 L21.0002167,6.03801761 L21.0002167,4.99999934 L14.5000814,4.99999934 C14.2978222,4.99980695 14.1154133,5.12623863 14.038073,5.32022859 Z" id="Icon-Path" fill="#17396C" fill-rule="nonzero"></path>
                </g>
            </g>
        </g>
    </g>
</svg>