<?xml version="1.0" encoding="UTF-8"?>
<svg width="25px" height="30px" viewBox="0 0 25 30" version="1.1" xmlns="http://www.w3.org/2000/svg" xmlns:xlink="http://www.w3.org/1999/xlink">
    <!-- Generator: sketchtool 63.1 (101010) - https://sketch.com -->
    <title>A0436005-7DDB-4D53-84E5-D1688A8904D4@2.00x</title>
    <desc>Created with sketchtool.</desc>
    <g id="Symbols" stroke="none" stroke-width="1" fill="none" fill-rule="evenodd">
        <g id="Quick-Links_Web" transform="translate(-334.000000, -18.000000)" fill="#1A2858" fill-rule="nonzero">
            <g id="2" transform="translate(240.000000, 1.000000)">
                <g id="ic.Pay-Bills" transform="translate(94.000000, 17.000000)">
                    <path d="M8.4375,0 L8.437,1.875 L11.25,1.875 L11.25,0 L13.125,0 L13.125,1.875 L15.937,1.875 L15.9375,0 L17.8125,0 L17.812,1.875 L22.375,1.875 C23.4795695,1.875 24.375,2.7704305 24.375,3.875 L24.375,26.125 C24.375,27.2295695 23.4795695,28.125 22.375,28.125 L17.812,28.125 L17.8125,30 L15.9375,30 L15.937,28.125 L13.125,28.125 L13.125,30 L11.25,30 L11.25,28.125 L8.437,28.125 L8.4375,30 L6.5625,30 L6.562,28.125 L2,28.125 C0.8954305,28.125 1.3527075e-16,27.2295695 0,26.125 L0,3.875 C-1.3527075e-16,2.7704305 0.8954305,1.875 2,1.875 L6.562,1.875 L6.5625,0 L8.4375,0 Z M22.5,3.75 L17.812,3.75 L17.8125,5.625 L15.9375,5.625 L15.937,3.75 L13.125,3.75 L13.125,5.625 L11.25,5.625 L11.25,3.75 L8.437,3.75 L8.4375,5.625 L6.5625,5.625 L6.562,3.75 L1.875,3.75 L1.875,26.25 L6.562,26.25 L6.5625,24.375 L8.4375,24.375 L8.437,26.25 L11.25,26.25 L11.25,24.375 L13.125,24.375 L13.125,26.25 L15.937,26.25 L15.9375,24.375 L17.8125,24.375 L17.812,26.25 L22.5,26.25 L22.5,3.75 Z" id="Combined-Shape"></path>
                    <path d="M11.5486111,8.4375 L12.3263889,8.4375 L12.3263889,9.98933824 C14.8852778,10.0981985 15.4375,11.2902574 15.4375,12.2977941 L14.6597222,12.2977941 C14.6597222,11.2732721 13.7435,10.7536765 11.9375,10.7536765 C11.2997222,10.7536765 9.21527778,10.8795221 9.21527778,12.4900368 C9.21527778,13.1632721 9.21527778,13.9260662 12.0316111,14.6255515 L13.2807222,15 C15.2508333,15.721875 15.4375,16.5997059 15.4375,17.5099632 C15.4375,18.9622059 14.2568333,19.8979412 12.3263889,20.0075735 L12.3263889,21.5625 L11.5486111,21.5625 L11.5486111,20.0106618 C8.98972222,19.9018015 8.4375,18.7097426 8.4375,17.7022059 L9.21527778,17.7022059 C9.21527778,18.7267279 10.1315,19.2463235 11.9375,19.2463235 C12.5752778,19.2463235 14.6597222,19.1204779 14.6597222,17.5099632 C14.6597222,16.8367279 14.6597222,16.0739338 11.8433889,15.3744485 L10.5942778,15 C8.62416667,14.278125 8.4375,13.4002941 8.4375,12.4900368 C8.4375,11.0377941 9.61816667,10.1020588 11.5486111,9.99242647 L11.5486111,8.4375 Z" id="Icon-Path" stroke="#1A2858" stroke-width="0.9"></path>
                </g>
            </g>
        </g>
    </g>
</svg>