<?xml version="1.0" encoding="UTF-8"?>
<svg width="24px" height="24px" viewBox="0 0 24 24" version="1.1" xmlns="http://www.w3.org/2000/svg" xmlns:xlink="http://www.w3.org/1999/xlink">
    <title>AB1DA092-35C0-4991-85A7-172B7379BF43@2.00x</title>
    <g id="First-Time-Landing-Message" stroke="none" stroke-width="1" fill="none" fill-rule="evenodd">
        <g id="First-Time-Landing-Message-1.0.0.1" transform="translate(-145.000000, -240.000000)" fill-rule="nonzero">
            <g id="Info-Message" transform="translate(133.000000, 228.000000)">
                <g id="ic.Information" transform="translate(12.000000, 12.000000)">
                    <rect id="ViewBox" x="0" y="0" width="24" height="24"></rect>
                    <path d="M12,2 C17.5228475,2 22,6.4771525 22,12 C22,17.5228475 17.5228475,22 12,22 C6.4771525,22 2,17.5228475 2,12 C2,6.4771525 6.4771525,2 12,2 Z M12,3 C7.02943725,3 3,7.02943725 3,12 C3,16.9705627 7.02943725,21 12,21 C16.9705627,21 21,16.9705627 21,12 C21,7.02943725 16.9705627,3 12,3 L12,3 Z M11.1666667,7 L11.1666667,8.66666667 L12.8333333,8.66666667 L12.8333333,7 L11.1666667,7 Z M11.1666667,10.3333333 L11.1666667,17 L12.8333333,17 L12.8333333,10.3333333 L11.1666667,10.3333333 Z" id="Icon-Shape" fill="#00A0E6"></path>
                </g>
            </g>
        </g>
    </g>
</svg>