<?xml version="1.0" encoding="UTF-8"?>
<svg width="24px" height="24px" viewBox="0 0 24 24" version="1.1" xmlns="http://www.w3.org/2000/svg" xmlns:xlink="http://www.w3.org/1999/xlink">
    <title>ic/Eye/Open@2x</title>
    <g id="Symbols" stroke="none" stroke-width="1" fill="none" fill-rule="evenodd">
        <g id="ic/Eye/Open" fill-rule="nonzero">
            <g>
                <rect id="ViewBox" x="0" y="0" width="24" height="24"></rect>
                <g id="Icon" transform="translate(2.500000, 5.300000)" fill="#A0A0A0">
                    <path d="M19.1014474,6.38967105 C17.0838816,2.65986842 13.5456579,0.402828947 9.63026316,0.402828947 C5.71486842,0.402828947 2.17065789,2.65986842 0.171052632,6.38967105 L0.00342105263,6.67105263 L0.159078947,6.95842105 C2.17664474,10.6882237 5.71486842,12.9452632 9.63026316,12.9452632 C13.5456579,12.9452632 17.0898684,10.7181579 19.1014474,6.95842105 L19.2571053,6.67105263 L19.1014474,6.38967105 Z M9.63026316,11.7179605 C6.25967105,11.7179605 3.16447368,9.83809211 1.36842105,6.67105263 C3.16447368,3.50401316 6.25967105,1.62414474 9.63026316,1.62414474 C13.0008553,1.62414474 16.0601316,3.51 17.8861184,6.67105263 C16.0601316,9.83809211 12.9948684,11.7179605 9.63026316,11.7179605 Z" id="Icon-Shape"></path>
                    <path d="M9.80388158,2.58203947 C7.53730083,2.59858159 5.71265066,4.44824027 5.72696277,6.7148362 C5.74127489,8.98143212 7.58913747,10.8079012 9.85574638,10.7958787 C12.1223553,10.783737 13.9506415,8.93767233 13.9408291,6.67105263 C13.9360459,5.57972536 13.4971381,4.53516174 12.7209659,3.76797565 C11.9447937,3.00078957 10.8951901,2.57407481 9.80388158,2.58203947 L9.80388158,2.58203947 Z M9.80388158,9.59861842 C8.20329466,9.58211958 6.91662292,8.27586563 6.92426621,6.67521209 C6.93197785,5.07455855 8.23112088,3.78070735 9.83179242,3.77956245 C11.432464,3.77841906 12.7334553,5.0704117 12.7434461,6.67105263 C12.7466487,7.45055616 12.4375979,8.19889202 11.8852772,8.74896293 C11.3329565,9.29903385 10.5833654,9.60502765 9.80388158,9.59861842 L9.80388158,9.59861842 Z" id="Icon-Shape"></path>
                </g>
            </g>
        </g>
    </g>
</svg>