<?xml version="1.0" encoding="UTF-8"?>
<svg width="18px" height="18px" viewBox="0 0 18 18" version="1.1" xmlns="http://www.w3.org/2000/svg" xmlns:xlink="http://www.w3.org/1999/xlink">
    <!-- Generator: sketchtool 63.1 (101010) - https://sketch.com -->
    <title>56ABE3D0-40C2-4919-BD0E-A4CC645BD586@2.00x</title>
    <desc>Created with sketchtool.</desc>
    <g id="Phone" stroke="none" stroke-width="1" fill="none" fill-rule="evenodd">
        <g id="Phone---Add-Beneficiary-International---Port--9" transform="translate(-91.000000, -223.000000)" fill-rule="nonzero">
            <g id="Group-5" transform="translate(88.000000, 194.000000)">
                <g id="Group-6" transform="translate(0.000000, 26.000000)">
                    <g id="ic.Alert">
                        <g id="Icon" transform="translate(3.000000, 3.000000)" fill="#00A0E6">
                            <path d="M9,0 C13.9705627,0 18,4.02943725 18,9 C18,13.9705627 13.9705627,18 9,18 C4.02943725,18 0,13.9705627 0,9 C0,4.02943725 4.02943725,0 9,0 Z M9,0.947368421 C4.55265438,0.947368421 0.947368421,4.55265438 0.947368421,9 C0.947368421,13.4473456 4.55265438,17.0526316 9,17.0526316 C13.4473456,17.0526316 17.0526316,13.4473456 17.0526316,9 C17.0526316,4.55265438 13.4473456,0.947368421 9,0.947368421 L9,0.947368421 Z M8.52631579,13.2631579 L8.52631579,11.3684211 L9.47368421,11.3684211 L9.47368421,13.2631579 L8.52631579,13.2631579 Z M8.52631579,9.47368421 L8.52631579,4.73684211 L9.47368421,4.73684211 L9.47368421,9.47368421 L8.52631579,9.47368421 Z" id="Icon-Shape"></path>
                        </g>
                        <rect id="ViewBox" x="0" y="0" width="24" height="24"></rect>
                    </g>
                </g>
            </g>
        </g>
    </g>
</svg>