<?xml version="1.0" encoding="UTF-8"?>
<svg width="56px" height="56px" viewBox="0 0 56 56" version="1.1" xmlns="http://www.w3.org/2000/svg" xmlns:xlink="http://www.w3.org/1999/xlink">
    <!-- Generator: sketchtool 63.1 (101010) - https://sketch.com -->
    <title>24D36559-6C4E-4BD2-8BD5-CE115BEAD126@2.00x</title>
    <desc>Created with sketchtool.</desc>
    <defs>
        <path d="M0.0370563997,8.38206419 C0.0370563997,12.8335699 3.64665223,16.4423427 8.09815789,16.4423427 L8.09815789,16.4423427 C12.5504865,16.4423427 16.1592594,12.8335699 16.1592594,8.38206419 L16.1592594,8.38206419 C16.1592594,3.92973554 12.5504865,0.320962693 8.09815789,0.320962693 L8.09815789,0.320962693 C3.64665223,0.320962693 0.0370563997,3.92973554 0.0370563997,8.38206419 L0.0370563997,8.38206419 Z" id="path-1"></path>
        <path d="M4.82866586,0.500401329 L4.95849431,0.55280207 C6.67113766,1.28621872 7.492458,3.26000025 6.79126364,4.99714224 C6.08320612,6.75171533 4.09394162,7.60291509 2.34062114,6.90877617 L2.29811133,6.89162627 C0.550667992,6.17344443 -0.291051528,4.17974571 0.417273744,2.42614877 C0.957149454,1.08715825 2.24429215,0.274875743 3.60468018,0.274875743 C4.0121071,0.274875743 4.42622172,0.347697326 4.82866586,0.500401329 L4.82866586,0.500401329 Z" id="path-3"></path>
        <path d="M0.478997339,1.82539469 C0.311932142,2.19326731 0.222227184,2.57759957 0.203298615,2.95863989 L0.203298615,2.95863989 L0.92176126,3.3182827 C1.52912143,3.48123299 2.15541018,3.45242865 2.72573619,3.26231998 L2.72573619,3.26231998 C2.72573619,3.26231998 3.98078262,2.51176106 4.21697825,2.20643501 L4.21697825,2.20643501 C4.13385714,1.34312767 3.6919162,0.532491121 2.96357778,2.22427369e-05 L2.96357778,2.22427369e-05 C1.91180772,0.129230301 0.94809666,0.787615314 0.478997339,1.82539469" id="path-5"></path>
        <path d="M2.72573619,1.18262408 C2.0006897,1.42458057 1.18511526,1.40482902 0.43373337,1.06493776 L0.43373337,1.06493776 C0.353904187,1.02954956 0.275720967,0.989223481 0.200829671,0.947251436 L0.200829671,0.947251436 C0.172848308,1.83277928 0.525907271,2.69608663 1.1661867,3.31249959 L1.1661867,3.31249959 C1.17441651,3.31908344 1.18100036,3.32566729 1.18758421,3.33225114 L1.18758421,3.33225114 C1.19745998,3.34130394 1.20815874,3.34953375 1.21721153,3.35858654 L1.21721153,3.35858654 C1.23367116,3.37422319 1.25013078,3.38903685 1.26741339,3.40385051 L1.26741339,3.40385051 C1.26988234,3.40631946 1.27070532,3.40714244 1.27399724,3.40961138 L1.27399724,3.40961138 C1.31185438,3.44335361 1.35382642,3.47709585 1.39415251,3.50919212 L1.39415251,3.50919212 C2.43193188,3.42113312 3.40140381,2.80965804 3.9025994,1.8097358 L3.9025994,1.8097358 C4.1750062,1.26986009 4.27211799,0.687189357 4.21697825,0.126739115 L4.21697825,0.126739115 C3.98078262,0.432065164 2.72573619,1.18262408 2.72573619,1.18262408" id="path-7"></path>
        <path d="M0.260907304,1.51924566 C0.387646419,2.47554989 0.955503492,3.35449388 1.8467922,3.8499286 L1.8467922,3.8499286 C1.85831394,3.4458448 1.9480189,3.03846907 2.12495987,2.64837595 L2.12495987,2.64837595 C2.59405919,1.61059658 3.55777025,0.952211567 4.60954031,0.823003508 L4.60954031,0.823003508 C4.47292542,0.723422775 4.32643475,0.632071854 4.16842235,0.553888634 L4.16842235,0.553888634 C4.09106211,0.515208515 4.01452485,0.47982032 3.93551865,0.448547032 L3.93551865,0.448547032 C3.55941622,0.29711848 3.16767713,0.223873147 2.78087594,0.223873147 L2.78087594,0.223873147 C1.80070525,0.223873147 0.850984871,0.691326506 0.260907304,1.51924566" id="path-9"></path>
        <path d="M0.260907304,1.51924566 C0.850984871,0.691326506 1.80070525,0.223873147 2.78087594,0.223873147 C3.16191626,0.223873147 3.54789448,0.294649536 3.91905903,0.441963182 L3.93551865,0.448547032 L3.96926089,0.461714733 C4.03674535,0.490519077 4.10340683,0.520146402 4.16842235,0.553888634 C4.32643475,0.632071854 4.47292542,0.723422775 4.60954031,0.823003508 C3.55777025,0.952211567 2.59405919,1.61141956 2.12495987,2.64837595 C1.9480189,3.03846907 1.85831394,3.4458448 1.8467922,3.8499286 L1.84514624,3.84910562" id="path-11"></path>
        <path d="M0.451015976,0.55141969 C0.447724051,0.548950747 0.44690107,0.548127765 0.444432126,0.545658822" id="path-13"></path>
        <path d="M0.445255107,0.546481803 C0.44690107,0.548127765 0.447724051,0.548950747 0.450192995,0.550596709 C0.447724051,0.548950747 0.44690107,0.548127765 0.445255107,0.546481803 Z" id="path-15"></path>
        <path d="M0.783478165,0.500394852 C0.774425371,0.491342058 0.763726614,0.483112245 0.753850839,0.474059452" id="path-17"></path>
        <path d="M0.75467382,0.474059452 C0.763726614,0.483112245 0.773602389,0.491342058 0.783478165,0.500394852 C0.773602389,0.491342058 0.763726614,0.483112245 0.75467382,0.474059452 Z" id="path-19"></path>
        <path d="M0.505310497,0.483912984 C0.512717328,0.470745284 0.519301178,0.458400565 0.527530991,0.446055846" id="path-21"></path>
        <path d="M0.506956459,0.478975096 C0.51354031,0.46827634 0.52012416,0.457577583 0.527530991,0.446055846" id="path-23"></path>
        <path d="M0.25843836,0.264176986 C0.351435243,0.95630423 0.67486688,1.60399049 1.1793544,2.0953103 L1.1793544,2.0953103 C0.673220918,1.60152154 0.352258224,0.952189324 0.260907304,0.262531024 L0.260907304,0.262531024 C0.260907304,0.262531024 0.259261341,0.263354005 0.25843836,0.264176986 M0.18025514,0.377748401 C0.202475634,0.34482915 0.225519109,0.310263937 0.248562585,0.277344686 L0.248562585,0.277344686 C0.225519109,0.310263937 0.202475634,0.34482915 0.18025514,0.377748401 M1.8467922,2.59321397 C1.60154378,2.4557761 1.37933884,2.29035686 1.18429228,2.10107117 L1.18429228,2.10107117 C1.37933884,2.29035686 1.6007208,2.4557761 1.8467922,2.59321397 M2.18174558,4.10338459 C1.94966486,3.64004614 1.83197854,3.12074496 1.8467922,2.59321397 L1.8467922,2.59321397 C1.83033258,3.12074496 1.9480189,3.64004614 2.18174558,4.10338459 M2.68870204,4.83254599 C2.4837797,4.61280999 2.31424556,4.36673859 2.18174558,4.10338459 L2.18174558,4.10338459 C2.31424556,4.36673859 2.4837797,4.61363297 2.68870204,4.83254599" id="path-25"></path>
        <path d="M0.259261341,0.264176986 L0.260084323,0.262531024 L0.260907304,0.262531024 C0.348966299,0.922561998 0.646885517,1.54555882 1.11433888,2.03111776 C0.646885517,1.54720478 0.347320337,0.925853923 0.259261341,0.264176986 Z M1.8467922,2.59321397 C1.57273944,2.44096243 1.32913699,2.25249972 1.12009974,2.03605565 C1.328314,2.25249972 1.57191646,2.44096243 1.8467922,2.59321397 Z M2.18915241,4.11819825 C1.9521338,3.65156787 1.83197854,3.12568285 1.8467922,2.59321397 C1.83033258,3.12568285 1.95048784,3.65074489 2.18915241,4.11819825 Z M2.81214923,4.95846212 C2.55784802,4.71239072 2.34798779,4.42763921 2.18915241,4.11819825 C2.34716481,4.42846219 2.55702503,4.71321371 2.81214923,4.95846212 Z" id="path-27"></path>
        <path d="M0.259261341,0.264176986 L0.260907304,0.262531024 C0.348966299,0.921739017 0.646062536,1.54555882 1.11433888,2.03111776 C0.646885517,1.54720478 0.347320337,0.925853923 0.259261341,0.264176986 Z M1.8467922,2.59321397 C1.57273944,2.44096243 1.32913699,2.25249972 1.12009974,2.03605565 C1.328314,2.25249972 1.57191646,2.44096243 1.8467922,2.59321397 Z M2.18915241,4.11819825 C1.9521338,3.65156787 1.83197854,3.12568285 1.8467922,2.59321397 C1.83033258,3.12568285 1.95048784,3.65074489 2.18915241,4.11819825 Z M2.81214923,4.95846212 C2.55784802,4.71239072 2.34798779,4.42763921 2.18915241,4.11819825 C2.34716481,4.42846219 2.55702503,4.71321371 2.81214923,4.95846212 Z" id="path-29"></path>
        <path d="M0.527530991,0.446055846 C0.541521673,0.42301237 0.554689373,0.401614857 0.569503036,0.378571382" id="path-31"></path>
        <path d="M0.444432126,0.545658822 C0.427972501,0.530845159 0.410689894,0.516031496 0.394230269,0.500394852" id="path-33"></path>
        <path d="M0.394230269,0.500394852 C0.410689894,0.516031496 0.427972501,0.530845159 0.444432126,0.545658822 C0.427972501,0.530845159 0.410689894,0.516031496 0.394230269,0.500394852 Z" id="path-35"></path>
        <path d="M0.569525278,0.651000424 C0.528376215,0.618904154 0.488873114,0.585161922 0.451015976,0.55141969 C0.488873114,0.585161922 0.530845159,0.618904154 0.571171241,0.651823405" id="path-37"></path>
        <path d="M0.451015976,0.55141969 C0.489696096,0.585161922 0.530845159,0.618904154 0.571171241,0.651823405 L0.569525278,0.651000424 C0.528376215,0.618904154 0.488873114,0.585161922 0.451015976,0.55141969 Z" id="path-39"></path>
        <path d="M0.646863275,0.264176986 L0.647686256,0.264176986 C0.776894314,1.2254191 1.34968928,2.10024819 2.2360401,2.59321397 C2.21299662,3.48038777 2.5611177,4.34534108 3.20139712,4.95846212 C3.20962693,4.96504597 3.21621078,4.97162982 3.22279463,4.97821367 C3.23267041,4.98726647 3.24336917,4.99549628 3.25242196,5.00454907 C3.26888159,5.02018572 3.28616419,5.03499938 3.30262382,5.04981304 C3.30509276,5.05228199 3.30591574,5.05310497 3.30920767,5.05557391 C3.34706481,5.08931614 3.38656791,5.12305838 3.42771697,5.15515465 C2.95944063,5.19465775 2.47635063,5.12881925 2.0163041,4.94364846 L2.00642832,4.93953355 C1.93071405,4.90908325 1.85417679,4.87451803 1.77846251,4.8366609 C0.248540342,4.06964236 -0.368695607,2.20641277 0.398322932,0.677313581 C0.432888146,0.610652099 0.467453359,0.545636579 0.505310497,0.483912984 C0.512717328,0.470745284 0.519301178,0.458400565 0.527530991,0.446055846 C0.540698691,0.42301237 0.554689373,0.401614857 0.569503036,0.377748401 C0.595015455,0.339068281 0.621350855,0.302034124 0.646863275,0.264176986 Z" id="path-41"></path>
        <path d="M0.646863275,0.264176986 L0.647686256,0.264176986 C0.776894314,1.2254191 1.34968928,2.10024819 2.2360401,2.59321397 C2.21299662,3.48038777 2.5611177,4.34534108 3.20139712,4.95846212 C3.20962693,4.96504597 3.21621078,4.97162982 3.22279463,4.97821367 C3.23267041,4.98726647 3.24336917,4.99549628 3.25242196,5.00454907 C3.26888159,5.02018572 3.28616419,5.03499938 3.30262382,5.04981304 C3.30509276,5.05228199 3.30591574,5.05310497 3.30920767,5.05557391 C3.34706481,5.08931614 3.38656791,5.12305838 3.42771697,5.15515465 C2.95944063,5.19465775 2.47635063,5.12881925 2.0163041,4.94364846 L2.00642832,4.93953355 C1.93071405,4.90908325 1.85417679,4.87451803 1.77846251,4.8366609 C0.248540342,4.06964236 -0.368695607,2.20641277 0.398322932,0.677313581 C0.432888146,0.610652099 0.467453359,0.545636579 0.505310497,0.483912984 C0.512717328,0.470745284 0.519301178,0.458400565 0.527530991,0.446055846 C0.540698691,0.42301237 0.554689373,0.401614857 0.569503036,0.377748401 C0.595015455,0.339068281 0.621350855,0.302034124 0.646863275,0.264176986 Z" id="path-43"></path>
        <path d="M0.646863275,0.264176986 L0.647686256,0.264176986 C0.776894314,1.2254191 1.34968928,2.10024819 2.2360401,2.59321397 C2.21299662,3.48038777 2.5611177,4.34534108 3.20139712,4.95846212 C3.20962693,4.96504597 3.21621078,4.97162982 3.22279463,4.97821367 C3.23267041,4.98726647 3.24336917,4.99549628 3.25242196,5.00454907 C3.26888159,5.02018572 3.28616419,5.03499938 3.30262382,5.04981304 C3.30509276,5.05228199 3.30591574,5.05310497 3.30920767,5.05557391 C3.34706481,5.08931614 3.38656791,5.12305838 3.42771697,5.15515465 C2.95944063,5.19465775 2.47635063,5.12881925 2.0163041,4.94364846 L2.00642832,4.93953355 C1.93071405,4.90908325 1.85417679,4.87451803 1.77846251,4.8366609 C0.248540342,4.06964236 -0.368695607,2.20641277 0.398322932,0.677313581 C0.432888146,0.610652099 0.467453359,0.545636579 0.505310497,0.483912984 C0.512717328,0.470745284 0.519301178,0.458400565 0.527530991,0.446055846 C0.540698691,0.42301237 0.554689373,0.401614857 0.569503036,0.377748401 C0.595015455,0.339068281 0.621350855,0.302034124 0.646863275,0.264176986 Z" id="path-45"></path>
        <path d="M0.569503036,0.377748401 C0.613121043,0.309440956 0.642748368,0.269937855 0.6501552,0.262531024 C0.777717296,1.22295016 1.34968928,2.10024819 2.2360401,2.59321397 C2.21299662,3.48038777 2.5611177,4.34534108 3.20139712,4.95846212 C3.20962693,4.96504597 3.21621078,4.97162982 3.22279463,4.97821367 C3.23267041,4.98726647 3.24336917,4.99549628 3.25242196,5.00454907 C3.26888159,5.02018572 3.28616419,5.03499938 3.30262382,5.04981304 C3.30509276,5.05228199 3.30591574,5.05310497 3.30920767,5.05557391 C3.34706481,5.08931614 3.38656791,5.12305838 3.42771697,5.15515465 C2.95944063,5.19465775 2.47635063,5.12881925 2.0163041,4.94364846 L2.00642832,4.93953355 C1.93071405,4.90908325 1.85417679,4.87451803 1.77846251,4.8366609 C0.334130394,4.11326036 -0.296273255,2.41215809 0.282282574,0.937375661 L0.304503068,0.883058898 C0.333307412,0.813928471 0.364580701,0.744798045 0.398322932,0.677313581 C0.432888146,0.610652099 0.467453359,0.545636579 0.505310497,0.483912984 C0.512717328,0.470745284 0.519301178,0.458400565 0.527530991,0.446055846" id="path-47"></path>
    </defs>
    <g id="Phone" stroke="none" stroke-width="1" fill="none" fill-rule="evenodd">
        <g id="Phone---Add-Beneficiary-International---Port--9" transform="translate(-16.000000, -194.000000)">
            <g id="ic.Success" transform="translate(16.000000, 194.000000)">
                <g id="Group-3" transform="translate(2.035210, 39.113853)">
                    <mask id="mask-2" fill="white">
                        <use xlink:href="#path-1"></use>
                    </mask>
                    <g id="Clip-2"></g>
                    <polygon id="Fill-1" fill="#FFFFFF" mask="url(#mask-2)" points="-0.802384491 17.2826066 16.9987003 17.2826066 16.9987003 -0.519301178 -0.802384491 -0.519301178"></polygon>
                </g>
                <path d="M36.6561777,19.6596626 L23.7948552,32.1775269 L18.8717559,27.4744785 L17.0235484,29.3572026 L23.7460423,35.8998565 L38.5288267,21.4963292 L36.6561777,19.6596626 Z" id="Fill-7" stroke="#FFFFFF" fill="#04A7E7"></path>
                <g id="Group-12" transform="translate(34.131480, 17.716340)">
                    <mask id="mask-4" fill="white">
                        <use xlink:href="#path-3"></use>
                    </mask>
                    <g id="Clip-11"></g>
                    <polygon id="Fill-10" mask="url(#mask-4)" points="1.70277048 -0.76125767 8.07676038 1.81138176 5.50494393 8.18537166 -0.869868955 5.61355521"></polygon>
                </g>
                <g id="Group-15" transform="translate(36.600424, 18.928569)">
                    <mask id="mask-6" fill="white">
                        <use xlink:href="#path-5"></use>
                    </mask>
                    <g id="Clip-14"></g>
                    <path d="M0.478997339,1.82539469 C0.311932142,2.19326731 0.222227184,2.57759957 0.203298615,2.95863989 L0.203298615,2.95863989 L0.92176126,3.3182827 C1.52912143,3.48123299 2.15541018,3.45242865 2.72573619,3.26231998 L2.72573619,3.26231998 C2.72573619,3.26231998 3.98078262,2.51176106 4.21697825,2.20643501 L4.21697825,2.20643501 C4.13385714,1.34312767 3.6919162,0.532491121 2.96357778,2.22427369e-05 L2.96357778,2.22427369e-05 C1.91180772,0.129230301 0.94809666,0.787615314 0.478997339,1.82539469" id="Fill-13" mask="url(#mask-6)"></path>
                </g>
                <g id="Group-18" transform="translate(36.600424, 21.008265)">
                    <mask id="mask-8" fill="white">
                        <use xlink:href="#path-7"></use>
                    </mask>
                    <g id="Clip-17"></g>
                    <path d="M2.72573619,1.18262408 C2.0006897,1.42458057 1.18511526,1.40482902 0.43373337,1.06493776 L0.43373337,1.06493776 C0.353904187,1.02954956 0.275720967,0.989223481 0.200829671,0.947251436 L0.200829671,0.947251436 C0.172848308,1.83277928 0.525907271,2.69608663 1.1661867,3.31249959 L1.1661867,3.31249959 C1.17441651,3.31908344 1.18100036,3.32566729 1.18758421,3.33225114 L1.18758421,3.33225114 C1.19745998,3.34130394 1.20815874,3.34953375 1.21721153,3.35858654 L1.21721153,3.35858654 C1.23367116,3.37422319 1.25013078,3.38903685 1.26741339,3.40385051 L1.26741339,3.40385051 C1.26988234,3.40631946 1.27070532,3.40714244 1.27399724,3.40961138 L1.27399724,3.40961138 C1.31185438,3.44335361 1.35382642,3.47709585 1.39415251,3.50919212 L1.39415251,3.50919212 C2.43193188,3.42113312 3.40140381,2.80965804 3.9025994,1.8097358 L3.9025994,1.8097358 C4.1750062,1.26986009 4.27211799,0.687189357 4.21697825,0.126739115 L4.21697825,0.126739115 C3.98078262,0.432065164 2.72573619,1.18262408 2.72573619,1.18262408" id="Fill-16" mask="url(#mask-8)"></path>
                </g>
                <g id="Group-24" transform="translate(34.954461, 18.105588)">
                    <mask id="mask-10" fill="white">
                        <use xlink:href="#path-9"></use>
                    </mask>
                    <g id="Clip-23"></g>
                    <path d="M0.260907304,1.51924566 C0.387646419,2.47554989 0.955503492,3.35449388 1.8467922,3.8499286 L1.8467922,3.8499286 C1.85831394,3.4458448 1.9480189,3.03846907 2.12495987,2.64837595 L2.12495987,2.64837595 C2.59405919,1.61059658 3.55777025,0.952211567 4.60954031,0.823003508 L4.60954031,0.823003508 C4.47292542,0.723422775 4.32643475,0.632071854 4.16842235,0.553888634 L4.16842235,0.553888634 C4.09106211,0.515208515 4.01452485,0.47982032 3.93551865,0.448547032 L3.93551865,0.448547032 C3.55941622,0.29711848 3.16767713,0.223873147 2.78087594,0.223873147 L2.78087594,0.223873147 C1.80070525,0.223873147 0.850984871,0.691326506 0.260907304,1.51924566" id="Fill-22" mask="url(#mask-10)"></path>
                </g>
                <g id="Group-27" transform="translate(34.954461, 18.105588)">
                    <mask id="mask-12" fill="white">
                        <use xlink:href="#path-11"></use>
                    </mask>
                    <g id="Clip-26"></g>
                    <path d="M0.260907304,1.51924566 C0.387646419,2.47472691 0.95468051,3.3536709 1.84514624,3.84910562 L1.84514624,3.84910562 L1.8467922,3.8499286 C1.85831394,3.4458448 1.9480189,3.03846907 2.12495987,2.64837595 L2.12495987,2.64837595 C2.59405919,1.61141956 3.55777025,0.952211567 4.60954031,0.823003508 L4.60954031,0.823003508 C4.47292542,0.723422775 4.32643475,0.632071854 4.16842235,0.553888634 L4.16842235,0.553888634 C4.10340683,0.520146402 4.03674535,0.490519077 3.96926089,0.461714733 L3.96926089,0.461714733 L3.93551865,0.448547032 L3.91905903,0.441963182 C3.54789448,0.294649536 3.16191626,0.223873147 2.78087594,0.223873147 L2.78087594,0.223873147 C1.80070525,0.223873147 0.850984871,0.691326506 0.260907304,1.51924566" id="Fill-25"></path>
                </g>
                <polygon id="Fill-28" points="37.7863618 24.2187149 37.779778 24.215423 37.777309 24.2187149 37.7847159 24.2228298"></polygon>
                <g id="Group-35" transform="translate(37.423405, 23.866457)">
                    <g id="Group-31">
                        <mask id="mask-14" fill="white">
                            <use xlink:href="#path-13"></use>
                        </mask>
                        <g id="Clip-30"></g>
                        <path d="M0.451015976,0.55141969 C0.447724051,0.548950747 0.44690107,0.548127765 0.444432126,0.545658822 L0.444432126,0.545658822 C0.44690107,0.548127765 0.447724051,0.548950747 0.451015976,0.55141969" id="Fill-29" mask="url(#mask-14)"></path>
                    </g>
                    <g id="Group-34">
                        <mask id="mask-16" fill="white">
                            <use xlink:href="#path-15"></use>
                        </mask>
                        <g id="Clip-33"></g>
                        <path d="M0.445255107,0.546481803 C0.44690107,0.548127765 0.447724051,0.548950747 0.450192995,0.550596709 L0.450192995,0.550596709 C0.447724051,0.548950747 0.44690107,0.548127765 0.445255107,0.546481803 Z" id="Fill-32" mask="url(#mask-16)"></path>
                    </g>
                </g>
                <polygon id="Fill-36" points="37.7369829 24.1569913 37.7007718 24.1388857 37.690896 24.1586373 37.7271072 24.1767429"></polygon>
                <g id="Group-43" transform="translate(37.034157, 23.866457)">
                    <g id="Group-39">
                        <mask id="mask-18" fill="white">
                            <use xlink:href="#path-17"></use>
                        </mask>
                        <g id="Clip-38"></g>
                        <path d="M0.783478165,0.500394852 C0.774425371,0.491342058 0.763726614,0.483112245 0.753850839,0.474059452 L0.753850839,0.474059452 C0.763726614,0.483112245 0.774425371,0.491342058 0.783478165,0.500394852" id="Fill-37" mask="url(#mask-18)"></path>
                    </g>
                    <g id="Group-42">
                        <mask id="mask-20" fill="white">
                            <use xlink:href="#path-19"></use>
                        </mask>
                        <g id="Clip-41"></g>
                        <path d="M0.75467382,0.474059452 C0.763726614,0.483112245 0.773602389,0.491342058 0.783478165,0.500394852 L0.783478165,0.500394852 C0.773602389,0.491342058 0.763726614,0.483112245 0.75467382,0.474059452 Z" id="Fill-40" mask="url(#mask-20)"></path>
                    </g>
                </g>
                <polygon id="Fill-44" points="35.010446 19.6149577 34.9956323 19.6075509 34.9758808 19.647054 34.9898715 19.6544608"></polygon>
                <g id="Group-51" transform="translate(34.565213, 19.362302)">
                    <g id="Group-47">
                        <mask id="mask-22" fill="white">
                            <use xlink:href="#path-21"></use>
                        </mask>
                        <g id="Clip-46"></g>
                        <path d="M0.505310497,0.483912984 C0.512717328,0.470745284 0.519301178,0.458400565 0.527530991,0.446055846 L0.527530991,0.446055846 C0.519301178,0.458400565 0.512717328,0.470745284 0.505310497,0.483912984" id="Fill-45" mask="url(#mask-22)"></path>
                    </g>
                    <g id="Group-50">
                        <mask id="mask-24" fill="white">
                            <use xlink:href="#path-23"></use>
                        </mask>
                        <g id="Clip-49"></g>
                        <path d="M0.506956459,0.478975096 C0.51354031,0.46827634 0.52012416,0.457577583 0.527530991,0.446055846 L0.527530991,0.446055846 C0.52012416,0.457577583 0.51354031,0.46827634 0.506956459,0.478975096" id="Fill-48" mask="url(#mask-24)"></path>
                    </g>
                </g>
                <g id="Group-54" transform="translate(34.954461, 19.362302)">
                    <mask id="mask-26" fill="white">
                        <use xlink:href="#path-25"></use>
                    </mask>
                    <g id="Clip-53"></g>
                    <path d="M0.25843836,0.264176986 C0.351435243,0.95630423 0.67486688,1.60399049 1.1793544,2.0953103 L1.1793544,2.0953103 C0.673220918,1.60152154 0.352258224,0.952189324 0.260907304,0.262531024 L0.260907304,0.262531024 C0.260907304,0.262531024 0.259261341,0.263354005 0.25843836,0.264176986 M0.18025514,0.377748401 C0.202475634,0.34482915 0.225519109,0.310263937 0.248562585,0.277344686 L0.248562585,0.277344686 C0.225519109,0.310263937 0.202475634,0.34482915 0.18025514,0.377748401 M1.8467922,2.59321397 C1.60154378,2.4557761 1.37933884,2.29035686 1.18429228,2.10107117 L1.18429228,2.10107117 C1.37933884,2.29035686 1.6007208,2.4557761 1.8467922,2.59321397 M2.18174558,4.10338459 C1.94966486,3.64004614 1.83197854,3.12074496 1.8467922,2.59321397 L1.8467922,2.59321397 C1.83033258,3.12074496 1.9480189,3.64004614 2.18174558,4.10338459 M2.68870204,4.83254599 C2.4837797,4.61280999 2.31424556,4.36673859 2.18174558,4.10338459 L2.18174558,4.10338459 C2.31424556,4.36673859 2.4837797,4.61363297 2.68870204,4.83254599" id="Fill-52" mask="url(#mask-26)"></path>
                </g>
                <g id="Group-64" transform="translate(34.565213, 19.362302)">
                    <g id="Group-57" transform="translate(0.389248, 0.000000)">
                        <mask id="mask-28" fill="white">
                            <use xlink:href="#path-27"></use>
                        </mask>
                        <g id="Clip-56"></g>
                        <path d="M0.259261341,0.264176986 C0.347320337,0.925853923 0.646885517,1.54720478 1.11433888,2.03111776 L1.11433888,2.03111776 C0.646885517,1.54555882 0.348966299,0.922561998 0.260907304,0.262531024 L0.260907304,0.262531024 L0.260084323,0.262531024 L0.259261341,0.264176986 Z M1.8467922,2.59321397 C1.57273944,2.44096243 1.32913699,2.25249972 1.12009974,2.03605565 L1.12009974,2.03605565 C1.328314,2.25249972 1.57191646,2.44096243 1.8467922,2.59321397 L1.8467922,2.59321397 Z M2.18915241,4.11819825 C1.9521338,3.65156787 1.83197854,3.12568285 1.8467922,2.59321397 L1.8467922,2.59321397 C1.83033258,3.12568285 1.95048784,3.65074489 2.18915241,4.11819825 L2.18915241,4.11819825 Z M2.81214923,4.95846212 C2.55784802,4.71239072 2.34798779,4.42763921 2.18915241,4.11819825 L2.18915241,4.11819825 C2.34716481,4.42846219 2.55702503,4.71321371 2.81214923,4.95846212 L2.81214923,4.95846212 Z" id="Fill-55" mask="url(#mask-28)"></path>
                    </g>
                    <g id="Group-60" transform="translate(0.389248, 0.000000)">
                        <mask id="mask-30" fill="white">
                            <use xlink:href="#path-29"></use>
                        </mask>
                        <g id="Clip-59"></g>
                        <path d="M0.259261341,0.264176986 C0.347320337,0.925853923 0.646885517,1.54720478 1.11433888,2.03111776 L1.11433888,2.03111776 C0.646062536,1.54555882 0.348966299,0.921739017 0.260907304,0.262531024 L0.260907304,0.262531024 L0.259261341,0.264176986 Z M1.8467922,2.59321397 C1.57273944,2.44096243 1.32913699,2.25249972 1.12009974,2.03605565 L1.12009974,2.03605565 C1.328314,2.25249972 1.57191646,2.44096243 1.8467922,2.59321397 L1.8467922,2.59321397 Z M2.18915241,4.11819825 C1.9521338,3.65156787 1.83197854,3.12568285 1.8467922,2.59321397 L1.8467922,2.59321397 C1.83033258,3.12568285 1.95048784,3.65074489 2.18915241,4.11819825 L2.18915241,4.11819825 Z M2.81214923,4.95846212 C2.55784802,4.71239072 2.34798779,4.42763921 2.18915241,4.11819825 L2.18915241,4.11819825 C2.34716481,4.42846219 2.55702503,4.71321371 2.81214923,4.95846212 L2.81214923,4.95846212 Z" id="Fill-58" mask="url(#mask-30)"></path>
                    </g>
                    <g id="Group-63">
                        <mask id="mask-32" fill="white">
                            <use xlink:href="#path-31"></use>
                        </mask>
                        <g id="Clip-62"></g>
                        <path d="M0.527530991,0.446055846 L0.527530991,0.446055846 C0.541521673,0.42301237 0.554689373,0.401614857 0.569503036,0.378571382 L0.569503036,0.378571382 L0.569503036,0.378571382 C0.554689373,0.401614857 0.540698691,0.42301237 0.527530991,0.446055846" id="Fill-61" mask="url(#mask-32)"></path>
                    </g>
                </g>
                <polygon id="Fill-65" points="37.7937686 24.1923795 37.7312221 24.1611062 37.7139395 24.1956714 37.776486 24.2269447"></polygon>
                <g id="Group-72" transform="translate(37.423405, 23.866457)">
                    <g id="Group-68">
                        <mask id="mask-34" fill="white">
                            <use xlink:href="#path-33"></use>
                        </mask>
                        <g id="Clip-67"></g>
                        <path d="M0.444432126,0.545658822 C0.427972501,0.530845159 0.410689894,0.516031496 0.394230269,0.500394852 L0.394230269,0.500394852 C0.410689894,0.516031496 0.427972501,0.530845159 0.444432126,0.545658822" id="Fill-66" mask="url(#mask-34)"></path>
                    </g>
                    <g id="Group-71">
                        <mask id="mask-36" fill="white">
                            <use xlink:href="#path-35"></use>
                        </mask>
                        <g id="Clip-70"></g>
                        <path d="M0.394230269,0.500394852 C0.410689894,0.516031496 0.427972501,0.530845159 0.444432126,0.545658822 L0.444432126,0.545658822 C0.427972501,0.530845159 0.410689894,0.516031496 0.394230269,0.500394852 Z" id="Fill-69" mask="url(#mask-36)"></path>
                    </g>
                </g>
                <polygon id="Fill-73" points="37.9369674 24.2705627 37.7912997 24.1973174 37.7534426 24.2730317 37.8991102 24.346277"></polygon>
                <g id="Group-80" transform="translate(37.423405, 23.866457)">
                    <g id="Group-76">
                        <mask id="mask-38" fill="white">
                            <use xlink:href="#path-37"></use>
                        </mask>
                        <g id="Clip-75"></g>
                        <path d="M0.569525278,0.651000424 L0.571171241,0.651823405 C0.530845159,0.618904154 0.488873114,0.585161922 0.451015976,0.55141969 L0.451015976,0.55141969 C0.488873114,0.585161922 0.528376215,0.618904154 0.569525278,0.651000424" id="Fill-74" mask="url(#mask-38)"></path>
                    </g>
                    <g id="Group-79">
                        <mask id="mask-40" fill="white">
                            <use xlink:href="#path-39"></use>
                        </mask>
                        <g id="Clip-78"></g>
                        <path d="M0.451015976,0.55141969 C0.488873114,0.585161922 0.528376215,0.618904154 0.569525278,0.651000424 L0.569525278,0.651000424 L0.571171241,0.651823405 C0.530845159,0.618904154 0.489696096,0.585161922 0.451015976,0.55141969 L0.451015976,0.55141969 Z" id="Fill-77" mask="url(#mask-40)"></path>
                    </g>
                </g>
                <polygon id="Fill-81" points="37.7057096 24.1339478 37.6785513 24.1199572 37.6711444 24.1355938 37.6983028 24.1495845"></polygon>
                <g id="Group-165">
                    <g id="Group-94" transform="translate(34.565213, 19.362302)">
                        <mask id="mask-42" fill="white">
                            <use xlink:href="#path-41"></use>
                        </mask>
                        <g id="Clip-93"></g>
                        <path d="M0.646863275,0.264176986 C0.621350855,0.302034124 0.595015455,0.339068281 0.569503036,0.377748401 L0.569503036,0.377748401 C0.554689373,0.401614857 0.540698691,0.42301237 0.527530991,0.446055846 L0.527530991,0.446055846 C0.519301178,0.458400565 0.512717328,0.470745284 0.505310497,0.483912984 L0.505310497,0.483912984 C0.467453359,0.545636579 0.432888146,0.610652099 0.398322932,0.677313581 L0.398322932,0.677313581 C-0.368695607,2.20641277 0.248540342,4.06964236 1.77846251,4.8366609 L1.77846251,4.8366609 C1.85417679,4.87451803 1.93071405,4.90908325 2.00642832,4.93953355 L2.00642832,4.93953355 L2.0163041,4.94364846 C2.47635063,5.12881925 2.95944063,5.19465775 3.42771697,5.15515465 L3.42771697,5.15515465 C3.38656791,5.12305838 3.34706481,5.08931614 3.30920767,5.05557391 L3.30920767,5.05557391 C3.30591574,5.05310497 3.30509276,5.05228199 3.30262382,5.04981304 L3.30262382,5.04981304 C3.28616419,5.03499938 3.26888159,5.02018572 3.25242196,5.00454907 L3.25242196,5.00454907 C3.24336917,4.99549628 3.23267041,4.98726647 3.22279463,4.97821367 L3.22279463,4.97821367 C3.21621078,4.97162982 3.20962693,4.96504597 3.20139712,4.95846212 L3.20139712,4.95846212 C2.5611177,4.34534108 2.21299662,3.48038777 2.2360401,2.59321397 L2.2360401,2.59321397 C1.34968928,2.10024819 0.776894314,1.2254191 0.647686256,0.264176986 L0.647686256,0.264176986 L0.646863275,0.264176986 Z" id="Fill-92" mask="url(#mask-42)"></path>
                    </g>
                    <g id="Group-101" transform="translate(34.565213, 19.362302)">
                        <g id="Group-97">
                            <mask id="mask-44" fill="white">
                                <use xlink:href="#path-43"></use>
                            </mask>
                            <g id="Clip-96"></g>
                            <path d="M0.646863275,0.264176986 C0.621350855,0.302034124 0.595015455,0.339068281 0.569503036,0.377748401 L0.569503036,0.377748401 C0.554689373,0.401614857 0.540698691,0.42301237 0.527530991,0.446055846 L0.527530991,0.446055846 C0.519301178,0.458400565 0.512717328,0.470745284 0.505310497,0.483912984 L0.505310497,0.483912984 C0.467453359,0.545636579 0.432888146,0.610652099 0.398322932,0.677313581 L0.398322932,0.677313581 C-0.368695607,2.20641277 0.248540342,4.06964236 1.77846251,4.8366609 L1.77846251,4.8366609 C1.85417679,4.87451803 1.93071405,4.90908325 2.00642832,4.93953355 L2.00642832,4.93953355 L2.0163041,4.94364846 C2.47635063,5.12881925 2.95944063,5.19465775 3.42771697,5.15515465 L3.42771697,5.15515465 C3.38656791,5.12305838 3.34706481,5.08931614 3.30920767,5.05557391 L3.30920767,5.05557391 C3.30591574,5.05310497 3.30509276,5.05228199 3.30262382,5.04981304 L3.30262382,5.04981304 C3.28616419,5.03499938 3.26888159,5.02018572 3.25242196,5.00454907 L3.25242196,5.00454907 C3.24336917,4.99549628 3.23267041,4.98726647 3.22279463,4.97821367 L3.22279463,4.97821367 C3.21621078,4.97162982 3.20962693,4.96504597 3.20139712,4.95846212 L3.20139712,4.95846212 C2.5611177,4.34534108 2.21299662,3.48038777 2.2360401,2.59321397 L2.2360401,2.59321397 C1.34968928,2.10024819 0.776894314,1.2254191 0.647686256,0.264176986 L0.647686256,0.264176986 L0.646863275,0.264176986 Z" id="Fill-95" mask="url(#mask-44)"></path>
                        </g>
                        <g id="Group-100">
                            <mask id="mask-46" fill="white">
                                <use xlink:href="#path-45"></use>
                            </mask>
                            <g id="Clip-99"></g>
                            <path d="M0.646863275,0.264176986 C0.621350855,0.302034124 0.595015455,0.339068281 0.569503036,0.377748401 L0.569503036,0.377748401 C0.554689373,0.401614857 0.540698691,0.42301237 0.527530991,0.446055846 L0.527530991,0.446055846 C0.519301178,0.458400565 0.512717328,0.470745284 0.505310497,0.483912984 L0.505310497,0.483912984 C0.467453359,0.545636579 0.432888146,0.610652099 0.398322932,0.677313581 L0.398322932,0.677313581 C-0.368695607,2.20641277 0.248540342,4.06964236 1.77846251,4.8366609 L1.77846251,4.8366609 C1.85417679,4.87451803 1.93071405,4.90908325 2.00642832,4.93953355 L2.00642832,4.93953355 L2.0163041,4.94364846 C2.47635063,5.12881925 2.95944063,5.19465775 3.42771697,5.15515465 L3.42771697,5.15515465 C3.38656791,5.12305838 3.34706481,5.08931614 3.30920767,5.05557391 L3.30920767,5.05557391 C3.30591574,5.05310497 3.30509276,5.05228199 3.30262382,5.04981304 L3.30262382,5.04981304 C3.28616419,5.03499938 3.26888159,5.02018572 3.25242196,5.00454907 L3.25242196,5.00454907 C3.24336917,4.99549628 3.23267041,4.98726647 3.22279463,4.97821367 L3.22279463,4.97821367 C3.21621078,4.97162982 3.20962693,4.96504597 3.20139712,4.95846212 L3.20139712,4.95846212 C2.5611177,4.34534108 2.21299662,3.48038777 2.2360401,2.59321397 L2.2360401,2.59321397 C1.34968928,2.10024819 0.776894314,1.2254191 0.647686256,0.264176986 L0.647686256,0.264176986 L0.646863275,0.264176986 Z" id="Fill-98" mask="url(#mask-46)"></path>
                        </g>
                    </g>
                    <g id="Group-104" transform="translate(34.565213, 19.362302)">
                        <mask id="mask-48" fill="white">
                            <use xlink:href="#path-47"></use>
                        </mask>
                        <g id="Clip-103"></g>
                        <path d="M0.569503036,0.377748401 C0.554689373,0.401614857 0.540698691,0.42301237 0.527530991,0.446055846 L0.527530991,0.446055846 C0.519301178,0.458400565 0.512717328,0.470745284 0.505310497,0.483912984 L0.505310497,0.483912984 C0.467453359,0.545636579 0.432888146,0.610652099 0.398322932,0.677313581 L0.398322932,0.677313581 C0.364580701,0.744798045 0.333307412,0.813928471 0.304503068,0.883058898 L0.304503068,0.883058898 L0.282282574,0.937375661 C-0.296273255,2.41215809 0.334130394,4.11326036 1.77846251,4.8366609 L1.77846251,4.8366609 C1.85417679,4.87451803 1.93071405,4.90908325 2.00642832,4.93953355 L2.00642832,4.93953355 L2.0163041,4.94364846 C2.47635063,5.12881925 2.95944063,5.19465775 3.42771697,5.15515465 L3.42771697,5.15515465 C3.38656791,5.12305838 3.34706481,5.08931614 3.30920767,5.05557391 L3.30920767,5.05557391 C3.30591574,5.05310497 3.30509276,5.05228199 3.30262382,5.04981304 L3.30262382,5.04981304 C3.28616419,5.03499938 3.26888159,5.02018572 3.25242196,5.00454907 L3.25242196,5.00454907 C3.24336917,4.99549628 3.23267041,4.98726647 3.22279463,4.97821367 L3.22279463,4.97821367 C3.21621078,4.97162982 3.20962693,4.96504597 3.20139712,4.95846212 L3.20139712,4.95846212 C2.5611177,4.34534108 2.21299662,3.48038777 2.2360401,2.59321397 L2.2360401,2.59321397 C1.34968928,2.10024819 0.777717296,1.22295016 0.6501552,0.262531024 L0.6501552,0.262531024 C0.642748368,0.269937855 0.613121043,0.309440956 0.569503036,0.377748401" id="Fill-102" mask="url(#mask-48)"></path>
                    </g>
                    <polygon id="Fill-113" fill="#FFFFFF" points="18.5442369 13.6330361 17.3830103 13.1647598 17.9508674 11.7599307 19.1112709 12.2282071"></polygon>
                    <polygon id="Fill-115" fill="#FFFFFF" points="19.7332802 15.9782035 18.3276282 15.4111694 19.5423485 12.4015269 20.9480005 12.969384"></polygon>
                    <polygon id="Fill-117" fill="#FFFFFF" points="17.8968798 15.2372735 16.7364762 14.7689971 17.2047525 13.6085936 18.3651561 14.0768699"></polygon>
                    <polygon id="Fill-119" fill="#FFFFFF" points="22.1113668 14.7099894 21.0184477 14.2688714 21.4595657 13.1759523 22.5524848 13.6170703"></polygon>
                    <polygon id="Fill-121" fill="#FFFFFF" points="21.3382582 16.6260544 20.2453391 16.1849364 20.8123732 14.7801074 21.9052923 15.2212253"></polygon>
                    <path d="M6.14207378,33.4585725 L5.18083166,33.4585725 C4.84834723,33.4585725 4.58005534,33.170529 4.58005534,32.8388676 C4.58005534,32.5072061 4.84834723,32.2183397 5.18083166,32.2183397 L6.14207378,32.2183397 C6.47373523,32.2183397 6.7428501,32.5072061 6.7428501,32.8388676 C6.7428501,33.170529 6.47373523,33.4585725 6.14207378,33.4585725" id="Fill-135" fill="#B6E6F6"></path>
                    <path d="M9.86836835,33.4585725 L8.78697097,33.4585725 C8.45448654,33.4585725 8.18537166,33.170529 8.18537166,32.8388676 C8.18537166,32.5072061 8.45448654,32.2183397 8.78697097,32.2183397 L9.86836835,32.2183397 C10.2000298,32.2183397 10.4691447,32.5072061 10.4691447,32.8388676 C10.4691447,33.170529 10.2000298,33.4585725 9.86836835,33.4585725" id="Fill-137" fill="#B6E6F6"></path>
                    <path d="M7.45168387,35.7828362 C7.12002242,35.7828362 6.86407524,35.5137213 6.86407524,35.1820598 L6.86407524,34.2199947 C6.86407524,33.8883333 7.12002242,33.6192184 7.45168387,33.6192184 C7.78334532,33.6192184 8.03929249,33.8883333 8.03929249,34.2199947 L8.03929249,35.1820598 C8.03929249,35.5137213 7.78334532,35.7828362 7.45168387,35.7828362" id="Fill-139" fill="#B6E6F6"></path>
                    <path d="M7.45168387,32.1766969 C7.12002242,32.1766969 6.86407524,31.907582 6.86407524,31.5759205 L6.86407524,30.4937002 C6.86407524,30.1620387 7.12002242,29.8929238 7.45168387,29.8929238 C7.78334532,29.8929238 8.03929249,30.1620387 8.03929249,30.4937002 L8.03929249,31.5759205 C8.03929249,31.907582 7.78334532,32.1766969 7.45168387,32.1766969" id="Fill-141" fill="#B6E6F6"></path>
                    <path d="M36.3528107,9.6395195 L35.3915686,9.6395195 C35.0590842,9.6395195 34.7907923,9.35147606 34.7907923,9.01981461 C34.7907923,8.68815316 35.0590842,8.39928674 35.3915686,8.39928674 L36.3528107,8.39928674 C36.6844722,8.39928674 36.9535871,8.68815316 36.9535871,9.01981461 C36.9535871,9.35147606 36.6844722,9.6395195 36.3528107,9.6395195" id="Fill-143" fill="#B6E6F6"></path>
                    <path d="M40.0791876,9.6395195 L38.9977902,9.6395195 C38.6653058,9.6395195 38.3961909,9.35147606 38.3961909,9.01981461 C38.3961909,8.68815316 38.6653058,8.39928674 38.9977902,8.39928674 L40.0791876,8.39928674 C40.4108491,8.39928674 40.6799639,8.68815316 40.6799639,9.01981461 C40.6799639,9.35147606 40.4108491,9.6395195 40.0791876,9.6395195" id="Fill-145" fill="#B6E6F6"></path>
                    <path d="M37.6648898,11.9590099 C37.3332283,11.9590099 37.0772812,11.689895 37.0772812,11.3582336 L37.0772812,10.3969915 C37.0772812,10.064507 37.3332283,9.79539216 37.6648898,9.79539216 C37.9965512,9.79539216 38.2524984,10.064507 38.2524984,10.3969915 L38.2524984,11.3582336 C38.2524984,11.689895 37.9965512,11.9590099 37.6648898,11.9590099" id="Fill-147" fill="#B6E6F6"></path>
                    <path d="M37.6648898,8.3527883 C37.3332283,8.3527883 37.0772812,8.0844964 37.0772812,7.75283495 L37.0772812,6.67061459 C37.0772812,6.33895314 37.3332283,6.06983827 37.6648898,6.06983827 C37.9965512,6.06983827 38.2524984,6.33895314 38.2524984,6.67061459 L38.2524984,7.75283495 C38.2524984,8.0844964 37.9965512,8.3527883 37.6648898,8.3527883" id="Fill-149" fill="#B6E6F6"></path>
                    <path d="M19.8120395,44.9063192 C19.5865426,44.9063192 19.4030178,45.089844 19.4030178,45.3153409 C19.4030178,45.5408377 19.5865426,45.7243625 19.8120395,45.7243625 C20.0375364,45.7243625 20.2218842,45.5408377 20.2218842,45.3153409 C20.2218842,45.089844 20.0375364,44.9063192 19.8120395,44.9063192 M19.8120395,46.9267382 C18.9240427,46.9267382 18.2006422,46.2033376 18.2006422,45.3153409 C18.2006422,44.4265211 18.9240427,43.7039435 19.8120395,43.7039435 C20.7008593,43.7039435 21.4234368,44.4265211 21.4234368,45.3153409 C21.4234368,46.2033376 20.7008593,46.9267382 19.8120395,46.9267382" id="Fill-151" fill="#B6E6F6"></path>
                    <path d="M2.73320308,39.1085035 C2.49865342,39.1085035 2.27644848,38.9702426 2.17933669,38.7414538 C0.733358605,35.3211437 8.22981263e-05,31.6893274 8.22981263e-05,27.9464086 C8.22981263e-05,24.2034898 0.733358605,20.5716734 2.17933669,17.1521863 C3.5759359,13.8503854 5.57578037,10.884361 8.12208441,8.33723395 C10.6692114,5.79092992 13.6344129,3.79108544 16.9370367,2.39530922 C20.3565239,0.948508151 23.9883402,0.215231844 27.731259,0.215231844 C28.0629205,0.215231844 28.3320353,0.483523736 28.3320353,0.816008167 C28.3320353,1.14766962 28.0629205,1.41678449 27.731259,1.41678449 C24.1496445,1.41678449 20.6758406,2.11878751 17.4053131,3.50139604 C14.245888,4.83791761 11.4090716,6.75134905 8.97222405,9.1873736 C6.53619951,11.6242211 4.62276807,14.4618605 3.28624649,17.6204626 C1.90363796,20.8901672 1.20245793,24.3647941 1.20245793,27.9464086 C1.20245793,31.528023 1.90363796,35.0026499 3.28624649,38.2723545 C3.41627753,38.5785035 3.27307879,38.9307395 2.96692976,39.0599476 C2.8903925,39.0920438 2.8113863,39.1085035 2.73320308,39.1085035" id="Fill-153" fill="#17396C"></path>
                    <path d="M27.7315882,55.6782437 C25.0437314,55.6782437 22.3863249,55.2939114 19.833437,54.5367686 C19.5149433,54.4429488 19.3338874,54.1079954 19.4285302,53.7895017 C19.5223501,53.4710079 19.8573035,53.290775 20.1749742,53.3845949 C22.6175826,54.1088184 25.1597718,54.475868 27.7315882,54.475868 C28.6434514,54.475868 29.5635445,54.4289581 30.465532,54.3367842 C30.7971934,54.303042 31.0909977,54.5433525 31.12474,54.873368 C31.1584822,55.2042064 30.9181717,55.4988337 30.5873332,55.532576 C29.6450196,55.6288648 28.6846005,55.6782437 27.7315882,55.6782437" id="Fill-155" fill="#17396C"></path>
                    <path d="M54.5251424,32.8381269 C54.4938691,32.8381269 54.4617728,32.835658 54.4304995,32.8298971 C54.10213,32.7780493 53.8791021,32.4702543 53.9309499,32.1418848 C54.1498629,30.7642141 54.2609654,29.3536242 54.2609654,27.9471492 C54.2609654,24.8329881 53.7268505,21.7846655 52.6734345,18.8861255 C51.6554067,16.0846973 50.1789783,13.4881914 48.2844754,11.1706761 C48.2737767,11.1575084 47.2170687,9.86871979 46.2854539,8.96261741 C46.0476124,8.73135968 46.0426745,8.35031935 46.2739322,8.11247777 C46.5051899,7.87463618 46.8862303,7.86969829 47.1240718,8.10095603 C48.1050655,9.05643728 49.1700033,10.3551017 49.2144443,10.4094185 C51.1953602,12.8330983 52.739273,15.5464675 53.8033878,18.4754579 C54.9045367,21.5056749 55.462518,24.6930813 55.462518,27.9471492 C55.462518,29.4161708 55.3473006,30.8917762 55.1185119,32.3311704 C55.0716019,32.6266207 54.8156548,32.8381269 54.5251424,32.8381269" id="Fill-157" fill="#17396C"></path>
                    <path d="M36.0056773,1.64763074 C38.5849005,2.40312754 41.0275089,3.51826715 43.263549,4.96342225 C43.5425397,5.14365515 43.6231918,5.51564268 43.4429589,5.79463333 C43.262726,6.07362398 42.8907385,6.15345316 42.6117479,5.97322116 C40.4719966,4.59143472 38.1355528,3.52402802 35.667432,2.80062749 C34.7917799,2.54385733 33.8963763,2.33070519 33.0050876,2.16528595 C32.677541,2.10438534 32.4627429,1.79165246 32.5236435,1.46492889 C32.5837211,1.13902831 32.897277,0.922584241 33.2240006,0.983484855 C34.1547924,1.15548794 35.0913451,1.37933884 36.0056773,1.64763074" id="Fill-163" fill="#17396C"></path>
                </g>
            </g>
        </g>
    </g>
</svg>