<?xml version="1.0" encoding="UTF-8"?>
<svg width="44px" height="44px" viewBox="0 0 44 44" version="1.1" xmlns="http://www.w3.org/2000/svg" xmlns:xlink="http://www.w3.org/1999/xlink">
    <title>3ED02712-62D4-4656-82D6-2758613FF70C@2x</title>
    <g id="Page-1" stroke="none" stroke-width="1" fill="none" fill-rule="evenodd">
        <g id="Icons-1.0.0.0" transform="translate(-796.000000, -443.000000)">
            <g id="Accounts-Type" transform="translate(796.000000, 40.000000)">
                <g id="Current-Account" transform="translate(0.000000, 403.000000)">
                    <rect id="Bond" stroke="#979797" opacity="0" x="0.5" y="0.5" width="43" height="43"></rect>
                    <path d="M6,24 L8.80963872,24 L17.7359547,27.6778322 L23.9299472,27.6778322 C23.9299472,27.6778322 26.3926768,28.3217588 26.3926768,30.4580669 C26.3926768,32.594375 23.9299472,33.3478278 23.9299472,33.3478278 L17.7359547,33.3478278 L27.2334294,33.3478278 L39.0111258,30.8843337 C39.0111258,30.8843337 42,30.4580669 42,33.3478278 C42,36.2375886 40.3655682,36.4502744 40.3655682,36.4502744 C40.3655682,36.4502744 25.8189683,42 21.4097487,42 C17.0005291,42 8.80963872,38.3975727 8.80963872,38.3975727 L6,38.3975727" id="Path" stroke="#1E3A68"></path>
                    <rect id="Rectangle" stroke="#1E3A68" fill-opacity="0.6" fill="#00A0E6" fill-rule="nonzero" x="2.5" y="20.5" width="3" height="21" rx="1.5"></rect>
                    <path d="M17.1500148,2 C16.336862,2 15.5531921,2.25816797 14.9625458,2.78124695 C14.3718994,3.30433621 14,4.09409419 14,5 L14,18.999964 C14,19.9058544 14.3718994,20.68521 14.9625458,21.2083096 C15.5531921,21.7314091 16.336862,22 17.1500148,22 L38.8500841,22 C39.6632369,22 40.4469068,21.7314091 41.0375532,21.2083096 C41.6281995,20.68521 42,19.9058544 42,18.999964 L42,5 C42,4.09409419 41.6281995,3.30433621 41.0375532,2.78124695 C40.4469068,2.25816797 39.6632369,2 38.8500841,2 L17.1500148,2 Z" id="Path" stroke="#1E3A68" fill-rule="nonzero"></path>
                    <path d="M33,5 C34.1203672,5 35,5.87965681 35,6.99990969 C35,8.12034319 34.1203672,9 33,9 C31.8796328,9 31,8.12034319 31,6.99990969 C31,5.87965681 31.8796328,5 33,5 Z" id="Path" stroke="#1E3A68" fill-opacity="0.6" fill="#00A0E6" fill-rule="nonzero"></path>
                    <path d="M37.000085,5 C38.1204046,5 39,5.87965681 39,6.99990969 C39,8.12034319 38.1204046,9 37.000085,9 C35.8797654,9 35,8.12034319 35,6.99990969 C35,5.87965681 35.8797654,5 37.000085,5 Z" id="Path" stroke="#1E3A68" fill-opacity="0.6" fill="#00A0E6" fill-rule="nonzero"></path>
                    <path d="M17.6076719,5.00004318 C17.2741696,5.01225502 16.9849658,5.26149533 17.0006063,5.5232019 C17.0161497,5.78490846 17.3339144,6.0118452 17.6674168,5.99952028 L24.3541731,5.99952028 C24.6905899,6.00330822 25,5.76382042 25,5.49979586 C25,5.23571477 24.6905899,4.99630613 24.3541731,5.00004318 C22.107088,5.00004318 19.8503855,5.00004318 17.6076719,5.00004318 Z" id="Path" fill="#1E3A68" fill-rule="nonzero"></path>
                    <path d="M17.540478,8.00004304 C17.2439039,8.01231108 16.9866009,8.26151611 17.0005413,8.52321531 C17.0143968,8.78491451 17.2969455,9.01184487 17.5936047,8.9995203 L20.4255522,8.9995203 C20.7247615,9.00330812 21,8.76382706 21,8.49980994 C21,8.23573628 20.7247615,7.99631175 20.4255522,8.00004304 C19.4659576,8.00004304 18.4959926,8.00004304 17.540478,8.00004304 Z" id="Path" fill="#1E3A68" fill-rule="nonzero"></path>
                    <path d="M17.6319807,18.000043 C17.2851726,18.0123111 16.9843141,18.2615161 17.0006345,18.5232153 C17.0168578,18.7849145 17.3472483,19.0118449 17.6940564,18.9995203 L28.3282415,18.9995203 C28.6781582,19.0033081 29,18.7638271 29,18.4998099 C29,18.2357363 28.6781582,17.9963118 28.3282415,18.000043 C21.9070461,18.000043 24.0488046,18.000043 17.6319807,18.000043 Z" id="Path" fill="#1E3A68" fill-rule="nonzero"></path>
                </g>
            </g>
        </g>
    </g>
</svg>