<?xml version="1.0" encoding="UTF-8"?>
<svg width="44px" height="44px" viewBox="0 0 44 44" version="1.1" xmlns="http://www.w3.org/2000/svg" xmlns:xlink="http://www.w3.org/1999/xlink">
    <title>0A724DFF-29BA-413C-9FC6-012A569B1FCE@2x</title>
    <g id="Page-1" stroke="none" stroke-width="1" fill="none" fill-rule="evenodd">
        <g id="Icons-1.0.0.0" transform="translate(-796.000000, -227.000000)">
            <g id="Accounts-Type" transform="translate(796.000000, 40.000000)">
                <g id="Ghina-Savings-Accounts" transform="translate(0.000000, 187.000000)">
                    <rect id="Bond" stroke="#979797" opacity="0" x="0.5" y="0.5" width="43" height="43"></rect>
                    <path d="M6,24 L8.80963872,24 L17.7359547,27.6778322 L23.9299472,27.6778322 C23.9299472,27.6778322 26.3926768,28.3217588 26.3926768,30.4580669 C26.3926768,32.594375 23.9299472,33.3478278 23.9299472,33.3478278 L17.7359547,33.3478278 L27.2334294,33.3478278 L39.0111258,30.8843337 C39.0111258,30.8843337 42,30.4580669 42,33.3478278 C42,36.2375886 40.3655682,36.4502744 40.3655682,36.4502744 C40.3655682,36.4502744 25.8189683,42 21.4097487,42 C17.0005291,42 8.80963872,38.3975727 8.80963872,38.3975727 L6,38.3975727" id="Path" stroke="#1E3A68"></path>
                    <rect id="Rectangle" stroke="#1E3A68" fill-opacity="0.6" fill="#00A0E6" fill-rule="nonzero" x="2.5" y="20.5" width="3" height="21" rx="1.5"></rect>
                    <path d="M14.0000428,8.5 C15.5164113,8.5 16.8911625,9.11711153 17.8869588,10.1129149 C18.8829337,11.1088969 19.5,12.4838782 19.5,14 C19.5,15.5161218 18.8829337,16.8911031 17.8869588,17.8870851 C16.8911625,18.8828885 15.5164113,19.5 14.0000428,19.5 C12.4836659,19.5 11.1088884,18.8828824 10.1130699,17.887071 C9.11708246,16.8910907 8.5,15.5161154 8.5,14 C8.5,12.4838846 9.11708246,11.1089093 10.1130699,10.112929 C11.1088884,9.11711761 12.4836659,8.5 14.0000428,8.5 Z" id="Path" stroke="#1E3A68" fill-opacity="0.6" fill="#00A0E0"></path>
                    <text id="$" font-family="Roboto-Regular, Roboto" font-size="6" font-weight="normal" fill="#FFFFFF">
                        <tspan x="12.3154297" y="14">$</tspan>
                    </text>
                    <rect id="Rectangle" stroke="#1E326E" x="10.5" y="5.5" width="1" height="2" rx="0.5"></rect>
                    <rect id="Rectangle" stroke="#1E326E" x="13.5" y="4.5" width="1" height="2" rx="0.5"></rect>
                    <rect id="Rectangle" stroke="#1E326E" x="16.5" y="5.5" width="1" height="2" rx="0.5"></rect>
                    <path d="M36.0000428,8.5 C37.5164113,8.5 38.8911625,9.11711153 39.8869588,10.1129149 C40.8829337,11.1088969 41.5,12.4838782 41.5,14 C41.5,15.5161218 40.8829337,16.8911031 39.8869588,17.8870851 C38.8911625,18.8828885 37.5164113,19.5 36.0000428,19.5 C34.4836659,19.5 33.1088884,18.8828824 32.1130699,17.887071 C31.1170825,16.8910907 30.5,15.5161154 30.5,14 C30.5,12.4838846 31.1170825,11.1089093 32.1130699,10.112929 C33.1088884,9.11711761 34.4836659,8.5 36.0000428,8.5 Z" id="Path" stroke="#1E3A68" fill-opacity="0.6" fill="#00A0E0"></path>
                    <text id="$" font-family="Roboto-Regular, Roboto" font-size="6" font-weight="normal" fill="#FFFFFF">
                        <tspan x="34.3154297" y="14">$</tspan>
                    </text>
                    <rect id="Rectangle" stroke="#1E326E" x="33.5" y="5.5" width="1" height="2" rx="0.5"></rect>
                    <rect id="Rectangle" stroke="#1E326E" x="36.5" y="4.5" width="1" height="2" rx="0.5"></rect>
                    <rect id="Rectangle" stroke="#1E326E" x="39.5" y="5.5" width="1" height="2" rx="0.5"></rect>
                    <path d="M24.9999572,6.5 C27.0677571,6.5 28.9424953,7.34143564 30.3004383,8.69936631 C31.6586145,10.0575301 32.5,11.9325383 32.5,13.9999701 C32.5,16.0674072 31.6586105,17.9424338 30.3004289,19.3006132 C28.942487,20.658553 27.0677528,21.5 24.9999572,21.5 C22.9321993,21.5 21.0574839,20.6585491 19.6995529,19.3006057 C18.3413862,17.9424266 17.5,16.0674033 17.5,13.9999701 C17.5,11.9325422 18.3413821,10.0575373 19.6995434,8.69937387 C21.0574756,7.34143953 22.9321949,6.5 24.9999572,6.5 L24.9999572,6.5 Z" id="Path" stroke="#1E3A68" fill="#FFFFFF"></path>
                    <text id="$" font-family="Roboto-Regular, Roboto" font-size="12" font-weight="normal" fill="#1E3A68">
                        <tspan x="21.6308594" y="17">$</tspan>
                    </text>
                    <rect id="Rectangle" stroke="#1E326E" x="29.5" y="3.5" width="1" height="2" rx="0.5"></rect>
                    <rect id="Rectangle" stroke="#1E326E" x="25.5" y="2.5" width="1" height="2" rx="0.5"></rect>
                    <rect id="Rectangle" stroke="#1E326E" x="21.5" y="3.5" width="1" height="2" rx="0.5"></rect>
                </g>
            </g>
        </g>
    </g>
</svg>