<?xml version="1.0" encoding="UTF-8"?>
<svg width="44px" height="44px" viewBox="0 0 44 44" version="1.1" xmlns="http://www.w3.org/2000/svg" xmlns:xlink="http://www.w3.org/1999/xlink">
    <title>7B96AF59-8080-401A-B430-ED179FCA527F@2x</title>
    <g id="Page-1" stroke="none" stroke-width="1" fill="none" fill-rule="evenodd">
        <g id="Icons-1.0.0.1" transform="translate(-416.000000, -98.000000)">
            <g id="Banking-Ser" transform="translate(40.000000, 40.000000)">
                <g id="Finance-Product" transform="translate(360.000000, 40.000000)">
                    <g id="ic.Bank-Certificate" transform="translate(16.000000, 18.000000)">
                        <rect id="Bond" stroke="#979797" opacity="0" x="0" y="0" width="44" height="44"></rect>
                        <polygon id="Path-16" fill-opacity="0.6" fill="#00A0E6" points="1.3894375 16.2496805 22.0000859 0.846632271 42.6105625 15.6564343 28.4225897 15.6564343 11.8125391 10.1676738 9.52359375 15.4679551"></polygon>
                        <path d="M44.0000859,16.1540801 C43.9993125,16.1246035 43.9967344,16.0958145 43.9927813,16.0673691 C43.9920938,16.0629863 43.9920938,16.0586035 43.9914063,16.0542207 C43.9908906,16.0506113 43.9897734,16.0471738 43.9891719,16.0435645 C43.9835859,16.0115957 43.9763672,15.9803145 43.9665703,15.9498926 C43.965625,15.946541 43.9647656,15.945166 43.96425,15.9435332 C43.9543672,15.913627 43.9421641,15.8848379 43.9285,15.8569082 C43.9269531,15.8536426 43.9258359,15.8502051 43.9241172,15.8471113 C43.9230859,15.8451348 43.9218828,15.8432441 43.9208516,15.8412676 C43.9065,15.8138535 43.8902578,15.7875566 43.8724688,15.7624629 C43.8705781,15.7598848 43.8690313,15.7570488 43.8672266,15.7543848 C43.8644766,15.7506035 43.8612109,15.747252 43.8584609,15.7435566 C43.8404141,15.7198379 43.8214219,15.6969785 43.8005391,15.675752 C43.795125,15.6699941 43.7941797,15.6693066 43.7934063,15.6684473 C43.7711484,15.6465332 43.7470859,15.6265098 43.7219922,15.6076035 C43.7190703,15.6053691 43.7164922,15.6026191 43.7135703,15.6004707 L36.8550703,10.6210801 C36.5445781,10.395666 36.0696888,10.3103301 35.8441029,10.6210801 C35.6186029,10.9315723 35.5336966,11.3660723 35.8441029,11.5914863 L41.1658672,15.4678691 L28.3254297,15.4678691 L11.950125,10.1970645 C11.9045781,10.1824551 11.8585156,10.1727441 11.8125391,10.1676738 C11.4914766,10.1324395 11.17875,10.3259707 11.0757969,10.6455723 L9.52359375,15.4679551 L2.83421875,15.4679551 L22.0000859,1.55338477 L36.03875,11.7455723 C36.3491563,11.9707285 36.7834844,11.9021504 37.0091563,11.5914863 C37.2346563,11.2809941 37.1656484,10.8465801 36.8550703,10.6210801 L22.4082031,0.132580078 C22.1648281,-0.0441933594 21.8351719,-0.0441933594 21.5917969,0.132580078 L0.286601563,15.6005566 C0.28359375,15.602791 0.281015625,15.605541 0.27809375,15.6077754 C0.253085938,15.6265957 0.229023438,15.6466191 0.206679688,15.6686191 C0.205820313,15.6694785 0.204960938,15.670166 0.204101563,15.6710254 C0.17875,15.6970645 0.159671875,15.7199238 0.141625,15.7437285 C0.138875,15.7474238 0.135609375,15.7507754 0.132945313,15.7544707 C0.131054688,15.7570488 0.129507813,15.7598848 0.127703125,15.7625488 C0.109914063,15.7876426 0.093671875,15.8139395 0.0793203125,15.8413535 C0.0782890625,15.8433301 0.0770859375,15.8452207 0.0760546875,15.8471973 C0.074421875,15.8504629 0.0733046875,15.8538145 0.071671875,15.8569941 C0.0580078125,15.8848379 0.0458046875,15.9137129 0.035921875,15.9435332 C0.03540625,15.9450801 0.034546875,15.9464551 0.0339453125,15.9480879 C0.0238046875,15.9801426 0.0165,16.0115098 0.011,16.0434785 C0.0103125,16.0470879 0.0091953125,16.0506113 0.0086796875,16.0542207 C0.0079921875,16.0586035 0.00790625,16.0629004 0.007390625,16.0673691 C0.0035234375,16.0958145 0.0009453125,16.1246035 0.000515625,16.1540801 C0.000515625,16.1565723 0,16.1589785 0,16.1614707 C0,16.165166 0,16.1655957 0,16.1660254 L0,43.3053457 C0,43.309127 0,43.3128223 0.000515625,43.3166895 C0.0006875,43.3293223 0.001546875,43.3417832 0.0024921875,43.354416 C0.003265625,43.3649863 0.0038671875,43.3755566 0.0050703125,43.386041 C0.0064453125,43.3977285 0.0085078125,43.4093301 0.010484375,43.4209316 C0.012375,43.4319316 0.0140078125,43.4430176 0.016328125,43.4537598 C0.018734375,43.4646738 0.021828125,43.4753301 0.0246640625,43.4861582 C0.0275859375,43.4972441 0.0305078125,43.508502 0.03403125,43.519502 C0.0373828125,43.5298145 0.041421875,43.5398691 0.045203125,43.5500957 C0.0494140625,43.5610957 0.0533671875,43.5721816 0.0580078125,43.5829238 C0.0623046875,43.5926348 0.067203125,43.6020879 0.0719296875,43.6117129 C0.07734375,43.622541 0.0825,43.6333691 0.08834375,43.6439395 C0.093328125,43.652877 0.0989140625,43.6614707 0.104242187,43.6701504 C0.110945312,43.6809785 0.1175625,43.6917207 0.12478125,43.7021191 C0.130367188,43.7101113 0.13646875,43.7177598 0.142398438,43.725666 C0.150476563,43.7363223 0.158640625,43.7468066 0.167320312,43.7569473 C0.169640625,43.7596113 0.171617188,43.7626191 0.173851563,43.7651973 C0.17771875,43.7695801 0.182101562,43.7732754 0.18596875,43.7774863 C0.196195312,43.7884004 0.206507813,43.7990566 0.217335938,43.8093691 C0.224640625,43.8163301 0.231945312,43.8229473 0.239507812,43.8295645 C0.249820312,43.838502 0.260476562,43.8470957 0.27121875,43.8554316 C0.27946875,43.861791 0.28771875,43.8682363 0.296226563,43.874166 C0.307140625,43.8818145 0.318484375,43.8889473 0.329914062,43.8959941 C0.338507812,43.9014082 0.347015625,43.9068223 0.355867188,43.9117207 C0.368585938,43.9188535 0.381648438,43.925127 0.394796875,43.9314863 C0.402703125,43.9352676 0.410351563,43.9394785 0.418429688,43.942916 C0.434242188,43.949791 0.45065625,43.9557207 0.467070313,43.9614785 C0.472742188,43.9634551 0.47815625,43.9658613 0.483828125,43.9675801 C0.504882813,43.9742832 0.52628125,43.9798691 0.548023437,43.9845957 C0.598125,43.9949082 0.645820313,44.0000645 0.69471875,44.0000645 L43.3052812,44.0000645 C43.3542656,44.0000645 43.4019609,43.9949082 43.4480234,43.9852832 C43.4737188,43.9795254 43.4952031,43.9739395 43.5161719,43.9672363 C43.5218437,43.9654316 43.5272578,43.9630254 43.5329297,43.9611348 C43.5494297,43.955377 43.5657578,43.9495332 43.5816562,43.9425723 C43.5896484,43.9391348 43.5972969,43.9350098 43.6052031,43.9312285 C43.6183516,43.9249551 43.6315,43.9185957 43.6441328,43.9114629 C43.6528984,43.9065645 43.6614922,43.9009785 43.6700859,43.8957363 C43.6815156,43.8886895 43.6927734,43.8815566 43.7037734,43.8739082 C43.7122812,43.8679785 43.7205312,43.8616191 43.7287812,43.8551738 C43.7396094,43.8468379 43.7501797,43.8383301 43.7604922,43.8293066 C43.7679688,43.8226895 43.7754453,43.8160723 43.7826641,43.8091113 C43.7934922,43.7987988 43.8038906,43.7881426 43.8140312,43.7772285 C43.8179844,43.7729316 43.8223672,43.7692363 43.8261484,43.7649395 C43.8414453,43.7464629 43.8496094,43.7360645 43.8576875,43.7254082 C43.8636172,43.717502 43.8697188,43.7098535 43.8753047,43.7018613 C43.8825234,43.6914629 43.8892266,43.6807207 43.8958438,43.6698926 C43.9012578,43.6612129 43.9068438,43.6524473 43.9117422,43.6436816 C43.9176719,43.6331113 43.9228281,43.6221973 43.9282422,43.6113691 C43.9329688,43.6018301 43.9377813,43.592377 43.9420781,43.582752 C43.9468047,43.5719238 43.9507578,43.5608379 43.9549688,43.549752 C43.95875,43.5396973 43.9627891,43.5295566 43.9660547,43.5193301 C43.9695781,43.508416 43.9724141,43.4971582 43.9754219,43.4859863 C43.9782578,43.4752441 43.9813516,43.464502 43.9837578,43.4535879 C43.9860781,43.4428457 43.9877109,43.4318457 43.9896016,43.4207598 C43.9915781,43.4090723 43.9935547,43.3974707 43.9950156,43.3858691 C43.9962187,43.3753848 43.9969063,43.3648145 43.9975938,43.3542441 C43.9984531,43.3416113 43.9992266,43.3291504 43.9994844,43.3165176 C43.9995703,43.3127363 44.0000859,43.309041 44.0000859,43.3051738 L44.0000859,16.1660254 C44.0000859,16.1655957 44.0000859,16.165166 44.0000859,16.1647363 C44.0000859,16.1589785 44.0000859,16.1565723 44.0000859,16.1540801 Z M41.1658672,16.8573926 L38.5476953,18.7581582 L32.6422422,16.8573926 L41.1658672,16.8573926 Z M10.6911406,16.375541 L12.1855937,11.7326816 L28.0033359,16.8240488 L37.1545625,19.7696426 L33.9690312,22.0823066 L20.5407812,17.7599082 C20.1756328,17.6428613 19.7841875,17.8430957 19.6665391,18.208416 C19.5489766,18.5735645 19.7497266,18.9650098 20.1150469,19.0826582 L32.5761562,23.0936191 L30.8736484,24.3295723 L14.8095234,19.1589707 C14.4444609,19.041752 14.0529297,19.2421582 13.9352812,19.6074785 C13.8177187,19.972627 14.0184687,20.3640723 14.3837891,20.4817207 L29.4805156,25.3409707 L27.7780937,26.5768379 L25.6889531,25.904291 C25.3238906,25.7869004 24.9323594,25.9874785 24.8147109,26.3527988 C24.6972344,26.7179473 24.8978984,27.1093926 25.2632187,27.227041 L26.3850469,27.5881504 L22.0000859,30.7716191 L9.07714844,21.3898223 L10.6911406,16.375541 Z M9.07628906,16.8573926 L7.89396094,20.530791 L2.83421875,16.8573926 L9.07628906,16.8573926 Z M1.3894375,17.5255566 L16.4624453,28.4685801 L1.3894375,41.7660332 L1.3894375,17.5255566 Z M2.53249219,42.610627 L17.6147812,29.3050957 L21.5920547,32.1925957 C21.5949766,32.1947441 21.5982422,32.1961191 21.60125,32.1982676 C21.6282344,32.2171738 21.6559062,32.2347051 21.6848672,32.2493145 C21.6857266,32.2496582 21.6864141,32.2502598 21.6871875,32.2506895 C21.6875312,32.2508613 21.687875,32.2510332 21.6882187,32.2512051 C21.7174375,32.2658145 21.7476875,32.2777598 21.7784531,32.2881582 C21.7883359,32.2915098 21.7983906,32.2941738 21.8084453,32.2970957 C21.8301016,32.3032832 21.8520156,32.3085254 21.8741016,32.3125645 C21.8846719,32.314541 21.8950703,32.3166035 21.9056406,32.3180645 C21.9357187,32.3222754 21.9659687,32.3248535 21.9963047,32.3250254 C21.9974219,32.3250254 21.9985391,32.3252832 21.9995703,32.3252832 C21.9997422,32.3252832 21.9999141,32.3251973 22.0000859,32.3251973 C22.0002578,32.3251973 22.0004297,32.3252832 22.0006016,32.3252832 C22.0017187,32.3252832 22.00275,32.3250254 22.0038672,32.3250254 C22.0342891,32.3248535 22.0644531,32.3222754 22.0945312,32.3180645 C22.1051875,32.3166035 22.1156719,32.3144551 22.1262422,32.3124785 C22.1483281,32.3084395 22.1700703,32.3032832 22.1916406,32.2970957 C22.2016953,32.2942598 22.2119219,32.2915098 22.2218906,32.2880723 C22.2525703,32.2777598 22.2827344,32.2658145 22.3119531,32.2512051 C22.3122969,32.2510332 22.3127266,32.2508613 22.3130703,32.2506895 C22.3140156,32.2502598 22.3147891,32.2495723 22.3157344,32.2491426 C22.3445234,32.2344473 22.3721094,32.2170879 22.3990078,32.1982676 C22.4019297,32.1961191 22.4052812,32.1947441 22.4082891,32.1925957 L26.3853906,29.3050957 L41.4676797,42.610627 L2.53249219,42.610627 L2.53249219,42.610627 Z M42.6105625,41.7659473 L27.5376406,28.468752 L34.4966016,23.4165723 C34.4970312,23.4163145 34.4974609,23.4158848 34.4978906,23.415627 L42.6105625,17.5256426 L42.6105625,41.7659473 L42.6105625,41.7659473 Z" id="Shape" fill="#17396C" fill-rule="nonzero"></path>
                        <path d="M15.5394766,17.6059941 L18.0707656,18.4206816 C18.1414922,18.4433691 18.21325,18.4541973 18.2838047,18.4541973 C18.5773672,18.4541973 18.8501328,18.2665957 18.9450078,17.9721738 C19.0625703,17.6069395 18.8618203,17.2155801 18.4965,17.0979316 L15.9652109,16.2832441 C15.6002344,16.1657676 15.2086172,16.3665176 15.0909687,16.731752 C14.9734922,17.0970723 15.1742422,17.4883457 15.5394766,17.6059941 Z" id="Path" fill="#17396C" fill-rule="nonzero"></path>
                        <path d="M23.4660937,26.613791 C23.7596562,26.613791 24.0324219,26.4261895 24.1272969,26.1317676 C24.2448594,25.7666191 24.0441094,25.3751738 23.6787891,25.2575254 L13.6536641,22.0307441 C13.2886875,21.9136973 12.8970703,22.1139316 12.7794219,22.479252 C12.6620312,22.8444863 12.8627812,23.2358457 13.2280156,23.3534941 L23.2530547,26.5802754 C23.3237812,26.6029629 23.3954531,26.613791 23.4660937,26.613791 Z" id="Path" fill="#17396C" fill-rule="nonzero"></path>
                    </g>
                </g>
            </g>
        </g>
    </g>
</svg>