<?xml version="1.0" encoding="UTF-8"?>
<svg width="40px" height="28px" viewBox="0 0 40 28" version="1.1" xmlns="http://www.w3.org/2000/svg" xmlns:xlink="http://www.w3.org/1999/xlink">
    <title>6BEFE780-747B-421E-A40F-FE2B7C7F172C@1x</title>
    <defs>
        <path d="M1.41847864,0.0137559392 L0.997748406,0.693956335 L0.973389314,0.693956335 L0.559284751,0.0137559392 L0.0997748406,0.0137559392 L0.71947014,0.960862618 C0.635090245,1.09246795 0.562207842,1.2064164 0.500238312,1.30229735 L0.500238312,1.30229735 C0.438268782,1.39838361 0.376688998,1.49405925 0.314719468,1.58870832 L0.314719468,1.58870832 C0.252944811,1.68335739 0.179867535,1.79525272 0.0956825132,1.92418899 L0.0956825132,1.92418899 L0.517776858,1.92418899 L0.949419968,1.26226141 L0.973389314,1.26226141 L1.39821188,1.92418899 L1.84466532,1.92418899 L1.21269303,0.967637931 L1.85421408,0.0137559392 L1.41847864,0.0137559392 Z" id="path-1"></path>
        <path d="M1.46505323,0.0137559392 L1.04412812,0.693956335 L1.0199639,0.693956335 L0.605859335,0.0137559392 L0.146154552,0.0137559392 L0.765849851,0.960862618 C0.681664829,1.09246795 0.608392681,1.2064164 0.546618023,1.30229735 L0.546618023,1.30229735 C0.484843366,1.39838361 0.423068709,1.49405925 0.361099179,1.58870832 L0.361099179,1.58870832 C0.299324522,1.68335739 0.226052373,1.79525272 0.142062224,1.92418899 L0.142062224,1.92418899 L0.56415657,1.92418899 L0.995604806,1.26226141 L1.0199639,1.26226141 L1.44459159,1.92418899 L1.8912399,1.92418899 L1.25926762,0.967637931 L1.90059379,0.0137559392 L1.46505323,0.0137559392 Z" id="path-3"></path>
        <path d="M1.51143294,0.0137559392 L1.09050783,0.693956335 L1.06634361,0.693956335 L0.652239046,0.0137559392 L0.192534263,0.0137559392 L0.812424435,0.960862618 C0.72804454,1.09246795 0.654967264,1.2064164 0.593192607,1.30229735 L0.593192607,1.30229735 C0.531223077,1.39838361 0.46944842,1.49405925 0.407673763,1.58870832 L0.407673763,1.58870832 C0.345899106,1.68335739 0.27282183,1.79525272 0.188636808,1.92418899 L0.188636808,1.92418899 L0.610536281,1.92418899 L1.04217939,1.26226141 L1.06634361,1.26226141 L1.49136105,1.92418899 L1.93761961,1.92418899 L1.3058422,0.967637931 L1.9469735,0.0137559392 L1.51143294,0.0137559392 Z" id="path-5"></path>
        <path d="M1.36293991,0.0137559392 L0.942209677,0.693956335 L0.917850585,0.693956335 L0.503940894,0.0137559392 L0.0440412382,0.0137559392 L0.663736537,0.960862618 C0.579551516,1.09246795 0.506669113,1.2064164 0.444699583,1.30229735 L0.444699583,1.30229735 C0.382924925,1.39838361 0.321150268,1.49405925 0.259180738,1.58870832 L0.259180738,1.58870832 C0.197211208,1.68335739 0.124328805,1.79525272 0.0401437835,1.92418899 L0.0401437835,1.92418899 L0.462043256,1.92418899 L0.893686365,1.26226141 L0.917850585,1.26226141 L1.34267315,1.92418899 L1.78932146,1.92418899 L1.15734918,0.967637931 L1.79848048,0.0137559392 L1.36293991,0.0137559392 Z" id="path-7"></path>
        <path d="M1.3465706,0.0137559392 L0.925645494,0.693956335 L0.901481275,0.693956335 L0.487376712,0.0137559392 L0.0276719285,0.0137559392 L0.647367228,0.960862618 C0.563182206,1.09246795 0.49010493,1.2064164 0.428330273,1.30229735 L0.428330273,1.30229735 C0.366360743,1.39838361 0.304586086,1.49405925 0.242811429,1.58870832 L0.242811429,1.58870832 C0.181036771,1.68335739 0.107959496,1.79525272 0.023579601,1.92418899 L0.023579601,1.92418899 L0.445673946,1.92418899 L0.877317056,1.26226141 L0.901481275,1.26226141 L1.32630384,1.92418899 L1.77295215,1.92418899 L1.14078499,0.967637931 L1.78211117,0.0137559392 L1.3465706,0.0137559392 Z" id="path-9"></path>
        <path d="M1.39314519,0.0137559392 L0.972025205,0.693956335 L0.948055859,0.693956335 L0.533951296,0.0137559392 L0.0742465123,0.0137559392 L0.693941811,0.960862618 C0.60975679,1.09246795 0.536484641,1.2064164 0.474709984,1.30229735 L0.474709984,1.30229735 C0.412935327,1.39838361 0.350965797,1.49405925 0.28919114,1.58870832 L0.28919114,1.58870832 C0.227416482,1.68335739 0.154339207,1.79525272 0.0699593121,1.92418899 L0.0699593121,1.92418899 L0.49224853,1.92418899 L0.923696767,1.26226141 L0.948055859,1.26226141 L1.37287842,1.92418899 L1.81933186,1.92418899 L1.18735958,0.967637931 L1.82868575,0.0137559392 L1.39314519,0.0137559392 Z" id="path-11"></path>
        <path d="M1.43933003,0.0137559392 L1.01859979,0.693956335 L0.99443557,0.693956335 L0.580331007,0.0137559392 L0.120431351,0.0137559392 L0.740321522,0.960862618 C0.656136501,1.09246795 0.583254098,1.2064164 0.521284568,1.30229735 L0.521284568,1.30229735 C0.459315038,1.39838361 0.397345508,1.49405925 0.335765723,1.58870832 L0.335765723,1.58870832 C0.273796193,1.68335739 0.20091379,1.79525272 0.116533896,1.92418899 L0.116533896,1.92418899 L0.538628241,1.92418899 L0.97027135,1.26226141 L0.99443557,1.26226141 L1.41925813,1.92418899 L1.8655167,1.92418899 L1.23373929,0.967637931 L1.87506546,0.0137559392 L1.43933003,0.0137559392 Z" id="path-13"></path>
        <path d="M1.48590461,0.0137559392 L1.06517437,0.693956335 L1.04081528,0.693956335 L0.62690559,0.0137559392 L0.167005934,0.0137559392 L0.786701234,0.960862618 C0.702516212,1.09246795 0.629633809,1.2064164 0.567664279,1.30229735 L0.567664279,1.30229735 C0.505889622,1.39838361 0.443920092,1.49405925 0.382145434,1.58870832 L0.382145434,1.58870832 C0.320175905,1.68335739 0.247293501,1.79525272 0.162913607,1.92418899 L0.162913607,1.92418899 L0.585007952,1.92418899 L1.01665106,1.26226141 L1.04081528,1.26226141 L1.46563784,1.92418899 L1.91209128,1.92418899 L1.280119,0.967637931 L1.92144517,0.0137559392 L1.48590461,0.0137559392 Z" id="path-15"></path>
        <path d="M1.46973017,0.0137559392 L1.04880506,0.693956335 L1.02444597,0.693956335 L0.610341408,0.0137559392 L0.150636625,0.0137559392 L0.770526797,0.960862618 C0.685952029,1.09246795 0.613069626,1.2064164 0.551294969,1.30229735 L0.551294969,1.30229735 C0.489325439,1.39838361 0.427550782,1.49405925 0.365776125,1.58870832 L0.365776125,1.58870832 C0.304001468,1.68335739 0.230729319,1.79525272 0.146544297,1.92418899 L0.146544297,1.92418899 L0.568638642,1.92418899 L1.00008688,1.26226141 L1.02444597,1.26226141 L1.44926853,1.92418899 L1.89572197,1.92418899 L1.26374969,0.967637931 L1.90507586,0.0137559392 L1.46973017,0.0137559392 Z" id="path-17"></path>
        <path d="M1.51591501,0.0137559392 L1.09518477,0.693956335 L1.07082568,0.693956335 L0.656915992,0.0137559392 L0.197016336,0.0137559392 L0.816906508,0.960862618 C0.732526613,1.09246795 0.659449337,1.2064164 0.59767468,1.30229735 L0.59767468,1.30229735 C0.535900023,1.39838361 0.474125366,1.49405925 0.411960963,1.58870832 L0.411960963,1.58870832 C0.350381179,1.68335739 0.27710903,1.79525272 0.193118881,1.92418899 L0.193118881,1.92418899 L0.615213226,1.92418899 L1.04666146,1.26226141 L1.07082568,1.26226141 L1.49584312,1.92418899 L1.94210168,1.92418899 L1.3101294,0.967637931 L1.95165045,0.0137559392 L1.51591501,0.0137559392 Z" id="path-19"></path>
        <path d="M1.36742199,0.0137559392 L0.946691749,0.693956335 L0.92252753,0.693956335 L0.508422967,0.0137559392 L0.0485233112,0.0137559392 L0.668413483,0.960862618 C0.584033589,1.09246795 0.511151185,1.2064164 0.449376528,1.30229735 L0.449376528,1.30229735 C0.387406998,1.39838361 0.325632341,1.49405925 0.263662811,1.58870832 L0.263662811,1.58870832 C0.201888154,1.68335739 0.128810878,1.79525272 0.0446258564,1.92418899 L0.0446258564,1.92418899 L0.466720202,1.92418899 L0.898363311,1.26226141 L0.92252753,1.26226141 L1.34735009,1.92418899 L1.79360866,1.92418899 L1.16183125,0.967637931 L1.80315742,0.0137559392 L1.36742199,0.0137559392 Z" id="path-21"></path>
        <path d="M1.41399657,0.0137559392 L0.993266333,0.693956335 L0.969102114,0.693956335 L0.554997551,0.0137559392 L0.095097895,0.0137559392 L0.714793194,0.960862618 C0.630608172,1.09246795 0.557530897,1.2064164 0.495756239,1.30229735 L0.495756239,1.30229735 C0.433981582,1.39838361 0.372012052,1.49405925 0.310042522,1.58870832 L0.310042522,1.58870832 C0.248267865,1.68335739 0.175190589,1.79525272 0.0910055675,1.92418899 L0.0910055675,1.92418899 L0.513099913,1.92418899 L0.944743022,1.26226141 L0.969102114,1.26226141 L1.3937298,1.92418899 L1.84037811,1.92418899 L1.20821096,0.967637931 L1.84953713,0.0137559392 L1.41399657,0.0137559392 Z" id="path-23"></path>
        <path d="M1.39762726,0.0137559392 L0.976702151,0.693956335 L0.952537932,0.693956335 L0.538238496,0.0137559392 L0.0787285852,0.0137559392 L0.698423884,0.960862618 C0.61404399,1.09246795 0.541161587,1.2064164 0.479192057,1.30229735 L0.479192057,1.30229735 C0.4174174,1.39838361 0.355642742,1.49405925 0.293673213,1.58870832 L0.293673213,1.58870832 C0.231898555,1.68335739 0.15882128,1.79525272 0.0746362577,1.92418899 L0.0746362577,1.92418899 L0.496730603,1.92418899 L0.928373712,1.26226141 L0.952537932,1.26226141 L1.3773605,1.92418899 L1.82381393,1.92418899 L1.19184165,0.967637931 L1.83316782,0.0137559392 L1.39762726,0.0137559392 Z" id="path-25"></path>
        <path d="M1.44400697,0.0137559392 L1.02308186,0.693956335 L0.999112515,0.693956335 L0.585007952,0.0137559392 L0.125108296,0.0137559392 L0.744998468,0.960862618 C0.660618574,1.09246795 0.587541298,1.2064164 0.525766641,1.30229735 L0.525766641,1.30229735 C0.463797111,1.39838361 0.402022454,1.49405925 0.340247796,1.58870832 L0.340247796,1.58870832 C0.278473139,1.68335739 0.205395863,1.79525272 0.121015969,1.92418899 L0.121015969,1.92418899 L0.543305187,1.92418899 L0.974753423,1.26226141 L0.999112515,1.26226141 L1.42374021,1.92418899 L1.87019364,1.92418899 L1.23822136,0.967637931 L1.87954753,0.0137559392 L1.44400697,0.0137559392 Z" id="path-27"></path>
        <path d="M1.49038668,0.0137559392 L1.06946157,0.693956335 L1.04549223,0.693956335 L0.631387663,0.0137559392 L0.171488007,0.0137559392 L0.791378179,0.960862618 C0.706998285,1.09246795 0.634115882,1.2064164 0.572146352,1.30229735 L0.572146352,1.30229735 C0.510176822,1.39838361 0.448402165,1.49405925 0.38682238,1.58870832 L0.38682238,1.58870832 C0.32485285,1.68335739 0.251775574,1.79525272 0.167590553,1.92418899 L0.167590553,1.92418899 L0.589684898,1.92418899 L1.02113313,1.26226141 L1.04549223,1.26226141 L1.47031479,1.92418899 L1.91657335,1.92418899 L1.28479595,0.967637931 L1.92592725,0.0137559392 L1.49038668,0.0137559392 Z" id="path-29"></path>
        <path d="M1.34208853,0.0137559392 L0.921163421,0.693956335 L0.896999202,0.693956335 L0.483089512,0.0137559392 L0.0231898555,0.0137559392 L0.642885155,0.960862618 C0.55850526,1.09246795 0.485622857,1.2064164 0.4238482,1.30229735 L0.4238482,1.30229735 C0.36187867,1.39838361 0.300104013,1.49405925 0.238329356,1.58870832 L0.238329356,1.58870832 C0.176359826,1.68335739 0.10328255,1.79525272 0.0190975281,1.92418899 L0.0190975281,1.92418899 L0.441191873,1.92418899 L0.87264011,1.26226141 L0.896999202,1.26226141 L1.32182177,1.92418899 L1.7682752,1.92418899 L1.13630292,0.967637931 L1.77743422,0.0137559392 L1.34208853,0.0137559392 Z" id="path-31"></path>
    </defs>
    <g id="Page-1" stroke="none" stroke-width="1" fill="none" fill-rule="evenodd">
        <g id="Icons-1.0.0.1" transform="translate(-56.000000, -318.000000)">
            <g id="Banking-Ser" transform="translate(40.000000, 40.000000)">
                <g id="Finance-Product" transform="translate(0.000000, 254.000000)">
                    <g id="ic.Card-Maintainance" transform="translate(16.000000, 18.000000)">
                        <g id="Group-11" transform="translate(0.000000, 6.000000)">
                            <rect id="Rectangle" stroke="#1E3A68" stroke-width="1.35418776" fill="#FFFFFF" x="0.677093878" y="0.677093878" width="38.6458122" height="26.4749918" rx="3.57803737"></rect>
                            <path d="M39.5486041,19.4513959 L39.5486041,23.5486041 L0.451395918,23.5486041 L0.451395918,19.4513959 L39.5486041,19.4513959 Z" id="Fill-59" stroke="#1E3A68" stroke-width="0.902791837" fill-opacity="0.6" fill="#00A0E6"></path>
                            <g id="Group-3" transform="translate(4.000000, 14.299948)">
                                <g id="Group-13">
                                    <mask id="mask-2" fill="white">
                                        <use xlink:href="#path-1"></use>
                                    </mask>
                                    <g id="Clip-12"></g>
                                    <polygon id="Fill-11" fill="#1E3A68" mask="url(#mask-2)" points="-1.06420001 3.14620914 3.0140966 3.14620914 3.0140966 -1.20846952 -1.06420001 -1.20846952"></polygon>
                                </g>
                                <g id="Group-16" transform="translate(1.948727, 0.000000)">
                                    <mask id="mask-4" fill="white">
                                        <use xlink:href="#path-3"></use>
                                    </mask>
                                    <g id="Clip-15"></g>
                                    <polygon id="Fill-14" fill="#1E3A68" mask="url(#mask-4)" points="-1.0178203 3.14620914 3.06047631 3.14620914 3.06047631 -1.20846952 -1.0178203 -1.20846952"></polygon>
                                </g>
                                <g id="Group-19" transform="translate(3.897455, 0.000000)">
                                    <mask id="mask-6" fill="white">
                                        <use xlink:href="#path-5"></use>
                                    </mask>
                                    <g id="Clip-18"></g>
                                    <polygon id="Fill-17" fill="#1E3A68" mask="url(#mask-6)" points="-0.971440587 3.14620914 3.10685602 3.14620914 3.10685602 -1.20846952 -0.971440587 -1.20846952"></polygon>
                                </g>
                                <g id="Group-22" transform="translate(6.041055, 0.000000)">
                                    <mask id="mask-8" fill="white">
                                        <use xlink:href="#path-7"></use>
                                    </mask>
                                    <g id="Clip-21"></g>
                                    <polygon id="Fill-20" fill="#1E3A68" mask="url(#mask-8)" points="-1.11973874 3.14620914 2.958363 3.14620914 2.958363 -1.20846952 -1.11973874 -1.20846952"></polygon>
                                </g>
                                <g id="Group-25" transform="translate(8.769273, 0.000000)">
                                    <mask id="mask-10" fill="white">
                                        <use xlink:href="#path-9"></use>
                                    </mask>
                                    <g id="Clip-24"></g>
                                    <polygon id="Fill-23" fill="#1E3A68" mask="url(#mask-10)" points="-1.13610805 3.14620914 2.94199369 3.14620914 2.94199369 -1.20846952 -1.13610805 -1.20846952"></polygon>
                                </g>
                                <g id="Group-28" transform="translate(10.718000, 0.000000)">
                                    <mask id="mask-12" fill="white">
                                        <use xlink:href="#path-11"></use>
                                    </mask>
                                    <g id="Clip-27"></g>
                                    <polygon id="Fill-26" fill="#1E3A68" mask="url(#mask-12)" points="-1.08972834 3.14620914 2.98856827 3.14620914 2.98856827 -1.20846952 -1.08972834 -1.20846952"></polygon>
                                </g>
                                <g id="Group-31" transform="translate(12.666728, 0.000000)">
                                    <mask id="mask-14" fill="white">
                                        <use xlink:href="#path-13"></use>
                                    </mask>
                                    <g id="Clip-30"></g>
                                    <polygon id="Fill-29" fill="#1E3A68" mask="url(#mask-14)" points="-1.04334863 3.14620914 3.03494798 3.14620914 3.03494798 -1.20846952 -1.04334863 -1.20846952"></polygon>
                                </g>
                                <g id="Group-34" transform="translate(14.615455, 0.000000)">
                                    <mask id="mask-16" fill="white">
                                        <use xlink:href="#path-15"></use>
                                    </mask>
                                    <g id="Clip-33"></g>
                                    <polygon id="Fill-32" fill="#1E3A68" mask="url(#mask-16)" points="-0.996968915 3.14620914 3.0813277 3.14620914 3.0813277 -1.20846952 -0.996968915 -1.20846952"></polygon>
                                </g>
                                <g id="Group-37" transform="translate(17.343673, 0.000000)">
                                    <mask id="mask-18" fill="white">
                                        <use xlink:href="#path-17"></use>
                                    </mask>
                                    <g id="Clip-36"></g>
                                    <polygon id="Fill-35" fill="#1E3A68" mask="url(#mask-18)" points="-1.01333823 3.14620914 3.06495839 3.14620914 3.06495839 -1.20846952 -1.01333823 -1.20846952"></polygon>
                                </g>
                                <g id="Group-40" transform="translate(19.292401, 0.000000)">
                                    <mask id="mask-20" fill="white">
                                        <use xlink:href="#path-19"></use>
                                    </mask>
                                    <g id="Clip-39"></g>
                                    <polygon id="Fill-38" fill="#1E3A68" mask="url(#mask-20)" points="-0.966763641 3.14620914 3.11153297 3.14620914 3.11153297 -1.20846952 -0.966763641 -1.20846952"></polygon>
                                </g>
                                <g id="Group-43" transform="translate(21.436001, 0.000000)">
                                    <mask id="mask-22" fill="white">
                                        <use xlink:href="#path-21"></use>
                                    </mask>
                                    <g id="Clip-42"></g>
                                    <polygon id="Fill-41" fill="#1E3A68" mask="url(#mask-22)" points="-1.11525667 3.14620914 2.96303994 3.14620914 2.96303994 -1.20846952 -1.11525667 -1.20846952"></polygon>
                                </g>
                                <g id="Group-46" transform="translate(23.384728, 0.000000)">
                                    <mask id="mask-24" fill="white">
                                        <use xlink:href="#path-23"></use>
                                    </mask>
                                    <g id="Clip-45"></g>
                                    <polygon id="Fill-44" fill="#1E3A68" mask="url(#mask-24)" points="-1.06887695 3.14620914 3.00941966 3.14620914 3.00941966 -1.20846952 -1.06887695 -1.20846952"></polygon>
                                </g>
                                <g id="Group-49" transform="translate(26.112947, 0.000000)">
                                    <mask id="mask-26" fill="white">
                                        <use xlink:href="#path-25"></use>
                                    </mask>
                                    <g id="Clip-48"></g>
                                    <polygon id="Fill-47" fill="#1E3A68" mask="url(#mask-26)" points="-1.08524626 3.14620914 2.99285547 3.14620914 2.99285547 -1.20846952 -1.08524626 -1.20846952"></polygon>
                                </g>
                                <g id="Group-52" transform="translate(28.061674, 0.000000)">
                                    <mask id="mask-28" fill="white">
                                        <use xlink:href="#path-27"></use>
                                    </mask>
                                    <g id="Clip-51"></g>
                                    <polygon id="Fill-50" fill="#1E3A68" mask="url(#mask-28)" points="-1.03886655 3.14620914 3.03943006 3.14620914 3.03943006 -1.20846952 -1.03886655 -1.20846952"></polygon>
                                </g>
                                <g id="Group-55" transform="translate(30.010401, 0.000000)">
                                    <mask id="mask-30" fill="white">
                                        <use xlink:href="#path-29"></use>
                                    </mask>
                                    <g id="Clip-54"></g>
                                    <polygon id="Fill-53" fill="#1E3A68" mask="url(#mask-30)" points="-0.99229197 3.14620914 3.08580977 3.14620914 3.08580977 -1.20846952 -0.99229197 -1.20846952"></polygon>
                                </g>
                                <g id="Group-58" transform="translate(32.154001, 0.000000)">
                                    <mask id="mask-32" fill="white">
                                        <use xlink:href="#path-31"></use>
                                    </mask>
                                    <g id="Clip-57"></g>
                                    <polygon id="Fill-56" fill="#1E3A68" mask="url(#mask-32)" points="-1.14078499 3.14620914 2.93751162 3.14620914 2.93751162 -1.20846952 -1.14078499 -1.20846952"></polygon>
                                </g>
                            </g>
                            <path d="M9.51107697,8.22967693 C9.54007153,8.23310779 9.5704102,8.23520442 9.5999808,8.23520442 L11.4665771,8.23520442 L11.4665771,8.76470028 C11.4665771,9.17316306 11.1793198,9.47050415 10.8444423,9.47050415 L9.19712935,9.47050415 C9.39394667,9.20804346 9.51107697,8.86857905 9.51107697,8.49995235 L9.51107697,8.22967693 Z M6.48892303,8.22967693 L6.48892303,8.49995235 C6.48892303,8.86857905 6.60605333,9.20804346 6.80267864,9.47050415 L5.15555769,9.47050415 C4.8204882,9.47050415 4.53323092,9.17316306 4.53323092,8.76470028 L4.53323092,8.23520442 L6.4000192,8.23520442 C6.4295898,8.23520442 6.45973646,8.23310779 6.48892303,8.22967693 L6.48892303,8.22967693 Z M9.5999808,6.20585152 L11.4665771,6.20585152 L11.4665771,7.70589917 L9.5999808,7.70589917 C9.5068526,7.70589917 9.43369417,7.67197179 9.36668027,7.59020299 C9.29947435,7.50805299 9.2443655,7.37119985 9.2443655,7.17659392 L9.2443655,6.73515677 C9.2443655,6.54055084 9.29947435,6.4036977 9.36668027,6.3215477 C9.43369417,6.2397789 9.5068526,6.20585152 9.5999808,6.20585152 L9.5999808,6.20585152 Z M4.53323092,6.20585152 L6.4000192,6.20585152 C6.49295538,6.20585152 6.56630583,6.2397789 6.63331973,6.3215477 C6.70033363,6.4036977 6.75544248,6.54055084 6.75544248,6.73515677 L6.75544248,7.17659392 C6.75544248,7.37119985 6.70033363,7.50805299 6.63331973,7.59020299 C6.56630583,7.67197179 6.49295538,7.70589917 6.4000192,7.70589917 L4.53323092,7.70589917 L4.53323092,6.20585152 Z M9.19444111,4.52949585 L10.8444423,4.52949585 C11.1793198,4.52949585 11.4665771,4.82664634 11.4665771,5.23529972 L11.4665771,5.67635567 L9.5999808,5.67635567 C9.5704102,5.67635567 9.54007153,5.6786429 9.51107697,5.68207376 L9.51107697,5.50004765 C9.51107697,5.13046793 9.39183448,4.79214715 9.19444111,4.52949585 L9.19444111,4.52949585 Z M7.82228836,4.52949585 L8.17771164,4.52949585 C8.60744546,4.52949585 8.97765403,4.91489564 8.97765403,5.50004765 L8.97765403,5.96054513 C8.96958932,5.96969408 8.96056453,5.97846183 8.95269184,5.98799199 C8.79485395,6.18088249 8.71094256,6.44105594 8.71094256,6.73515677 L8.71094256,7.17659392 C8.71094256,7.47069475 8.79485395,7.7308682 8.95269184,7.9237587 C8.96056453,7.93309826 8.96958932,7.94205661 8.97765403,7.95120557 L8.97765403,8.49995235 C8.97765403,9.08510436 8.60744546,9.47050415 8.17771164,9.47050415 L7.82228836,9.47050415 C7.39236253,9.47050415 7.02215395,9.08510436 7.02215395,8.49995235 L7.02215395,7.95120557 C7.03041068,7.94205661 7.03924345,7.93309826 7.04711615,7.9237587 C7.20495404,7.7308682 7.28886542,7.47069475 7.28886542,7.17659392 L7.28886542,6.73515677 C7.28886542,6.44105594 7.20495404,6.18088249 7.04711615,5.98799199 C7.03924345,5.97846183 7.03041068,5.96969408 7.02215395,5.96054513 L7.02215395,5.50004765 C7.02215395,4.91489564 7.39236253,4.52949585 7.82228836,4.52949585 L7.82228836,4.52949585 Z M5.15555769,4.52949585 L6.80555889,4.52949585 C6.6079735,4.79214715 6.48892303,5.13046793 6.48892303,5.50004765 L6.48892303,5.68207376 C6.45973646,5.6786429 6.4295898,5.67635567 6.4000192,5.67635567 L4.53323092,5.67635567 L4.53323092,5.23529972 C4.53323092,4.82664634 4.8204882,4.52949585 5.15555769,4.52949585 L5.15555769,4.52949585 Z M5.15555769,4 C4.50558049,4 4,4.56837892 4,5.23529972 L4,8.76470028 C4,9.43162108 4.50558049,10 5.15555769,10 L10.8444423,10 C11.4942275,10 12,9.43162108 12,8.76470028 L12,5.23529972 C12,4.56837892 11.4942275,4 10.8444423,4 L5.15555769,4 Z" id="Fill-65" fill="#1E3A68"></path>
                            <g id="Group-2" transform="translate(28.000000, 3.180478)">
                                <ellipse id="Oval-Copy" stroke="#1E3A68" stroke-width="0.5" fill="#B6E6F6" cx="4.05510902" cy="4.12799497" rx="4.05510902" ry="4.12799497"></ellipse>
                                <path d="M2.28597359e-13,3.27648054 C0.8454027,4.80861896 2.14805842,5.52814847 3.90796716,5.43506909 C5.66787589,5.34198971 6.97053161,4.43237732 7.81593431,2.70623195" id="Path-5" stroke="#FFFFFF" stroke-width="0.5"></path>
                                <path d="M4.67053035,0.245045543 C3.36713204,1.35183415 2.75911906,2.69120927 2.84649139,4.26317093 C2.93386372,5.83513258 3.82656284,7.06022622 5.52458874,7.93845186" id="Path-6" stroke="#FFFFFF" stroke-width="0.5"></path>
                                <path d="M6.70049728,1.15472721 C6.28101163,0.991196069 5.77282461,0.812887098 5.17593622,0.619800295 L5.88542417,1.15472721 L4.53016854,1.05371402 L6.07126881,1.80394677 L3.99700042,2.58891967 L6.07126881,2.42761638 L4.53016854,4.12846266 L6.36136957,3.01835817 L5.64449804,5.53590411 L6.97974417,3.27648054 L6.97974417,4.6503829 L7.39189546,3.27648054 L7.61687307,4.44553304 L7.76343708,2.70623195 C7.57871577,1.95825129 7.2244025,1.44108304 6.70049728,1.15472721 Z" id="Path-8" stroke="#FFFFFF" stroke-width="0.5" fill="#FFFFFF"></path>
                                <ellipse id="Oval" stroke="#1E3A68" stroke-width="0.795119416" cx="4.05510902" cy="4.12799497" rx="4.05510902" ry="4.12799497"></ellipse>
                            </g>
                        </g>
                    </g>
                </g>
            </g>
        </g>
    </g>
</svg>