<?xml version="1.0" encoding="UTF-8"?>
<svg width="45px" height="44px" viewBox="0 0 45 44" version="1.1" xmlns="http://www.w3.org/2000/svg" xmlns:xlink="http://www.w3.org/1999/xlink">
    <title>1C6BC6AB-722D-4876-934A-33DDE6CF7204@2x</title>
    <g id="Page-1" stroke="none" stroke-width="1" fill="none" fill-rule="evenodd">
        <g id="Icons-1.0.0.1" transform="translate(-55.000000, -205.000000)">
            <g id="Banking-Ser" transform="translate(40.000000, 40.000000)">
                <g id="Finance-Product" transform="translate(0.000000, 147.000000)">
                    <g id="ic.Demand-Draft" transform="translate(16.000000, 18.000000)">
                        <rect id="Bond" stroke="#979797" opacity="0" x="0" y="0" width="44" height="44"></rect>
                        <rect id="Rectangle" stroke="#17396C" stroke-width="1.5" fill="#FFFFFF" stroke-linejoin="round" x="0" y="13" width="37" height="22" rx="1.45371437"></rect>
                        <path d="M9.24539443,19.5 L4.75460557,19.5 C4.33750911,19.5 4,19.1645508 4,18.75 C4,18.3354492 4.33750911,18 4.75460557,18 L9.24539443,18 C9.66249089,18 10,18.3354492 10,18.75 C10,19.1645508 9.66249089,19.5 9.24539443,19.5 Z" id="Path" fill="#17396C" fill-rule="nonzero"></path>
                        <path d="M15.1439117,30.5 L4.85608833,30.5 C4.38289886,30.5 4,30.1645508 4,29.75 C4,29.3354492 4.38289886,29 4.85608833,29 L15.1439117,29 C15.6171011,29 16,29.3354492 16,29.75 C16,30.1645508 15.6171011,30.5 15.1439117,30.5 Z" id="Path-" fill="#17396C" fill-rule="nonzero"></path>
                        <path d="M23.4444444,23.4788867 L4.55555556,23.5 C4.24848089,23.5 4,23.1692724 4,22.7605567 C4,22.3518409 4.24848089,22.0211133 4.55555556,22.0211133 L23.4444444,22 C23.7515191,22 24,22.3307276 24,22.7394433 C24,23.1481591 23.7515191,23.4788867 23.4444444,23.4788867 Z" id="Path" fill="#17396C" fill-rule="nonzero"></path>
                        <path d="M23.4418423,27.5 L4.55815872,27.4256797 C4.24964519,27.4256797 4,27.1068509 4,26.7128398 C4,26.3188287 4.24964519,26 4.55815872,26 L23.4418413,26.0743203 C23.7503548,26.0743203 24,26.3931491 24,26.7871602 C24,27.1811713 23.7503558,27.5 23.4418423,27.5 Z" id="Path" fill="#17396C" fill-rule="nonzero"></path>
                        <path d="M28.0428063,32.5 C27.6847715,32.5 27.3527755,32.4484815 27.079367,32.3854392 C26.5448463,32.2613883 26.0616801,32.0614154 25.5951498,31.8675434 L25.2501344,31.7258676 C25.1995032,31.7055314 25.1640614,31.6926518 25.1387458,31.6845173 C25.1351293,31.686551 25.1307894,31.6885846 25.1271729,31.6906182 C25.0280804,31.7468818 24.8913748,31.8241594 24.7091026,31.8709327 C24.1796449,32.0044739 23.7478332,31.7726409 23.4642985,31.5902928 C23.3926916,31.8960141 23.1048171,32.127847 22.7561852,32.1346258 C22.3807911,32.144116 22.0097368,31.8377169 22.0003338,31.454718 C21.988761,30.9191974 22.2788054,30.4046909 22.7583551,30.1125271 C22.8791466,30.0393167 23.0194674,30 23.1626813,30 C23.1634046,30 23.1641279,30 23.1648512,30 C23.6306582,30.0013557 23.9742269,30.2291214 24.2259363,30.3952006 C24.2707811,30.4250271 24.3293686,30.4643438 24.3778299,30.4928145 C24.476199,30.4372288 24.6071168,30.366052 24.7799862,30.3226681 C25.2298819,30.2101409 25.6371014,30.3707971 25.8331164,30.4501084 L26.1947678,30.597885 C26.6222397,30.775488 27.0258426,30.9429229 27.4345087,31.0378253 C27.937204,31.1537418 28.3899916,31.1306941 28.7118613,30.9741051 C28.7950411,30.9334327 28.8774976,30.8839479 28.9599541,30.835141 C29.2970132,30.6351681 29.7584803,30.3626626 30.3494187,30.4473969 C30.682138,30.4948481 30.9381871,30.646014 31.1247992,30.7565075 C31.1855567,30.7924348 31.2455907,30.8303958 31.3099647,30.8581887 C31.7019948,31.0351138 32.3421177,30.6941431 32.854216,30.3809653 C33.1970615,30.1708243 33.6556354,30.2603037 33.879136,30.5822939 C34.1033598,30.9029284 34.0064373,31.3333785 33.664315,31.5428416 C33.1276244,31.8716106 31.8741408,32.6423535 30.6792447,32.1149674 C30.560623,32.0620932 30.4463413,31.9970173 30.3342293,31.9305856 C30.2647923,31.8899132 30.1606367,31.8282267 30.1230249,31.8194143 C30.0629907,31.8234815 29.867699,31.939398 29.750524,32.0085411 C29.6333489,32.0783621 29.5154506,32.1468275 29.3961057,32.2051246 C28.9469347,32.424756 28.4753413,32.5 28.0428063,32.5 Z" id="Path" fill="#17396C" fill-rule="nonzero"></path>
                        <rect id="Rectangle" fill="#17396C" x="11" y="18" width="1.5" height="1.5"></rect>
                        <rect id="Rectangle" fill="#17396C" x="14" y="18" width="1.5" height="1.5"></rect>
                        <rect id="Rectangle" fill="#17396C" x="17" y="18" width="1.5" height="1.5"></rect>
                        <path d="M39.5313731,15.0255114 C39.4281658,15.0255114 39.3235544,15.0037466 39.2245597,14.9567066 C38.8657917,14.7868008 38.7120339,14.3578237 38.8819397,13.9990556 L41.345574,8.79376081 L36.5432775,6.5210951 C36.1845095,6.35118931 36.0307518,5.92221224 36.2006576,5.56344414 C36.3698613,5.20537816 36.7981363,5.04951414 37.1583085,5.22082416 L42.6107404,7.80240953 C42.9695084,7.97231532 43.1225641,8.40059034 42.9533604,8.75935837 L40.1822107,14.6140865 C40.0593449,14.8738599 39.8009757,15.0255114 39.5313731,15.0255114 Z" id="Path" fill="#17396C" fill-rule="nonzero"></path>
                        <path d="M38.6846524,3.67622597 L28.4551993,25.2858564 C28.3555025,25.4964835 28.6131696,26.1122165 29.0091484,26.6591447 C29.6824528,26.6184235 30.322759,26.4281571 30.4217538,26.2175301 L40.6519089,4.60719749 L38.6846524,3.67622597 Z" id="Path" fill-opacity="0.6" fill="#00A0E6" fill-rule="nonzero"></path>
                        <path d="M38.6502499,2.06843947 L41.9170752,3.61514401 C42.2758432,3.7850498 42.429601,4.21402688 42.2596952,4.57279497 L31.7220247,26.832561 C31.1904421,27.9552365 29.4903014,28.0933938 28.8377238,28.1040059 L28.6496782,28.1040461 L28.6496782,28.1040461 C28.44537,28.0998336 28.2515932,28.0078597 28.1188981,27.8526978 C27.853508,27.542374 26.5595559,25.9303751 27.1549283,24.6708254 L37.692599,2.41105945 C37.7747435,2.23834526 37.9214804,2.10565023 38.1005133,2.04176002 C38.2809505,1.97786981 38.4789399,1.98769909 38.6502499,2.06843947 Z M38.6846524,3.67622597 L28.4551993,25.2858564 C28.3555025,25.4964835 28.6131696,26.1122165 29.0091484,26.6591447 C29.6824528,26.6184235 30.322759,26.4281571 30.4217538,26.2175301 L40.6519089,4.60719749 L38.6846524,3.67622597 Z" id="Combined-Shape" fill="#17396C" fill-rule="nonzero"></path>
                        <path d="M27.9925219,29.5229703 C27.8893147,29.5229703 27.7847033,29.5012056 27.6857086,29.4534634 C27.3269405,29.2835576 27.1731828,28.8552826 27.3437907,28.4965145 L28.0156909,27.0775904 C28.1855967,26.7188224 28.6152759,26.5643625 28.9726398,26.7356726 C29.3314078,26.9055783 29.4851656,27.3338534 29.3145577,27.6926214 L28.6426574,29.1115455 C28.5197916,29.3713189 28.2621246,29.5229703 27.9925219,29.5229703 Z" id="Path" fill="#17396C" fill-rule="nonzero"></path>
                    </g>
                </g>
            </g>
        </g>
    </g>
</svg>