<?xml version="1.0" encoding="UTF-8"?>
<svg width="246px" height="190px" viewBox="0 0 246 190" version="1.1" xmlns="http://www.w3.org/2000/svg" xmlns:xlink="http://www.w3.org/1999/xlink">
    <title>6CC4BE31-47DC-41C5-BAA3-C3D6CB459E6E@2.00x</title>
    <g id="Symbols" stroke="none" stroke-width="1" fill="none" fill-rule="evenodd">
        <g id="LogoutGraphics/Phone-Tab/Session-Expired" transform="translate(-27.000000, -5.000000)">
            <g id="LogoutGraphics/Session-Expired" transform="translate(28.000000, 6.000000)">
                <rect id="Rectangle" stroke="#5894BB" stroke-width="2" fill-opacity="0.1" fill="#FFFFFF" fill-rule="nonzero" x="0" y="0" width="244" height="188" rx="10"></rect>
                <path d="M244,21 L244,178 C244,183.522847 239.522847,188 234,188 L6.4632,188 C5.35863,188 4.4632,187.104569 4.4632,186 C4.4632,185.339928 4.788882,184.722364 5.33359,184.349551 L244,21 L244,21 Z" id="Rectangle-Copy" fill-opacity="0.05" fill="#FFFFFF" fill-rule="nonzero"></path>
                <line x1="0.5" y1="20.5" x2="244" y2="21" id="Line" stroke="#5894BB" stroke-width="2" stroke-linecap="square"></line>
                <path d="M35,21 L35,11 C35,8.2385763 37.238576,6 40,6 L97,6 C99.761424,6 102,8.2385763 102,11 L102,21 L102,21" id="Path" stroke="#5894BB" stroke-width="2"></path>
                <circle id="Oval" fill="#5894BB" fill-rule="nonzero" cx="9.5" cy="10.5" r="2.5"></circle>
                <circle id="Oval-Copy" fill="#5894BB" fill-rule="nonzero" cx="17.5" cy="10.5" r="2.5"></circle>
                <circle id="Oval-Copy-2" fill="#5894BB" fill-rule="nonzero" cx="25.5" cy="10.5" r="2.5"></circle>
                <g id="Group-2" opacity="0.151803" transform="translate(19.000000, 34.000000)" fill-rule="nonzero" stroke="#5894BB" stroke-width="2">
                    <rect id="Rectangle" transform="translate(89.500000, 27.500000) rotate(-12.000000) translate(-89.500000, -27.500000) " x="31" y="12" width="117" height="31" rx="3"></rect>
                    <rect id="Rectangle-Copy-2" transform="translate(60.500000, 76.500000) rotate(10.000000) translate(-60.500000, -76.500000) " x="2" y="61" width="117" height="31" rx="3"></rect>
                    <rect id="Rectangle-Copy-3" transform="translate(70.500000, 127.500000) rotate(-10.000000) translate(-70.500000, -127.500000) " x="12" y="112" width="117" height="31" rx="3"></rect>
                    <rect id="Rectangle-Copy-4" transform="translate(169.500000, 87.500000) rotate(-20.000000) translate(-169.500000, -87.500000) " x="141" y="28" width="57" height="119" rx="3"></rect>
                </g>
                <g id="Group" transform="translate(97.000000, 69.000000)" fill-rule="nonzero">
                    <path d="M27.5569682,2.16691112 L49.1962656,37.4309513 C50.0628272,38.8431259 49.6205206,40.6904065 48.2083461,41.5569682 C47.7362565,41.8466595 47.1931833,42 46.6392974,42 L3.36070259,42 C1.70384834,42 0.36070259,40.6568542 0.36070259,39 C0.36070259,38.4461141 0.51404309,37.9030409 0.8037344,37.4309513 L22.4430318,2.16691112 C23.3095935,0.75473658 25.1568741,0.31242995 26.5690487,1.17899159 C26.9715153,1.42595973 27.3100001,1.76444453 27.5569682,2.16691112 Z" id="Triangle" stroke="#5894BB" stroke-width="2" fill="#FFFFFF" stroke-linejoin="round"></path>
                    <path d="M23.6261089,15 L26.3738911,15 C26.9261759,15 27.3738911,15.4477153 27.3738911,16 C27.3738911,16.0395082 27.3715498,16.0789817 27.3668794,16.1182129 L25.9318441,28.1725098 C25.8756495,28.644544 25.4753674,29 25,29 C24.5246326,29 24.1243505,28.644544 24.0681559,28.1725098 L22.6331206,16.1182129 C22.5678334,15.5698006 22.9594837,15.0722989 23.507896,15.0070117 C23.5471272,15.0023413 23.5866006,15 23.6261089,15 Z" id="Rectangle" fill="#5894BB"></path>
                    <circle id="Oval" fill="#5894BB" cx="25" cy="32.5" r="1.5"></circle>
                </g>
                <path d="M62.0351469,140.073025 C63.4424294,140.073025 64.5664277,139.729136 65.4071419,139.041356 C66.247856,138.353577 66.6682131,137.438152 66.6682131,136.295082 C66.6682131,135.578241 66.5174329,134.955042 66.2158723,134.425484 C65.9143118,133.895926 65.4513098,133.432563 64.8268663,133.035395 C64.2024228,132.638227 63.3373401,132.274963 62.2316182,131.945604 C61.1258962,131.616244 60.3430573,131.252981 59.8831014,130.855812 C59.4231454,130.458644 59.1931674,129.972678 59.1931674,129.397914 C59.1931674,128.681073 59.4353297,128.12084 59.9196542,127.717213 C60.4039786,127.313587 61.0786822,127.111773 61.9437649,127.111773 C62.8758611,127.111773 63.5977787,127.355564 64.1095178,127.843145 C64.6212569,128.330725 64.8771264,129.000745 64.8771264,129.853204 L64.8771264,129.853204 L66.6407985,129.853204 C66.6407985,129.071783 66.4443273,128.351714 66.0513848,127.692996 C65.6584423,127.034277 65.1040583,126.517635 64.3882328,126.14307 C63.6724073,125.768505 62.8575847,125.581222 61.9437649,125.581222 C60.6034959,125.581222 59.5145274,125.944486 58.6768593,126.671013 C57.8391912,127.397541 57.4203571,128.316195 57.4203571,129.426975 C57.4203571,130.408594 57.7630395,131.233607 58.4484043,131.902012 C59.1337692,132.570417 60.2288298,133.13388 61.7335864,133.592399 C62.9337364,133.960507 63.7622663,134.333458 64.2191762,134.711252 C64.676086,135.089046 64.904541,135.623448 64.904541,136.314456 C64.904541,137.005464 64.6578096,137.551167 64.164347,137.951565 C63.6708843,138.351962 62.9611509,138.552161 62.0351469,138.552161 C61.0421294,138.552161 60.2486293,138.305142 59.6546464,137.811103 C59.0606636,137.317064 58.7636721,136.643815 58.7636721,135.791356 L58.7636721,135.791356 L57,135.791356 C57,136.611525 57.2147476,137.344511 57.6442429,137.990313 C58.0737382,138.636115 58.6844744,139.144685 59.4764516,139.516021 C60.2684287,139.887357 61.1213271,140.073025 62.0351469,140.073025 Z M72.7542528,140.073025 C74.4113126,140.073025 75.6541075,139.398162 76.4826374,138.048435 L76.4826374,138.048435 L75.4500211,137.195976 C75.1393224,137.622206 74.7768405,137.964481 74.3625756,138.222802 C73.9483106,138.481123 73.4426637,138.610283 72.8456348,138.610283 C72.0049206,138.610283 71.3119406,138.292226 70.7666948,137.65611 C70.221449,137.019995 69.9366418,136.185296 69.9122733,135.152012 L69.9122733,135.152012 L76.6105722,135.152012 L76.6105722,134.40611 C76.6105722,132.733482 76.2541825,131.448336 75.5414031,130.550671 C74.8286236,129.653005 73.829514,129.204173 72.5440742,129.204173 C71.7581892,129.204173 71.0286565,129.435047 70.3554759,129.896796 C69.6822953,130.358544 69.158372,130.997889 68.7837059,131.814829 C68.4090398,132.631769 68.2217067,133.560109 68.2217067,134.599851 L68.2217067,134.599851 L68.2217067,134.92921 C68.2217067,136.492052 68.6420638,137.740065 69.482778,138.673249 C70.3234922,139.606433 71.4139838,140.073025 72.7542528,140.073025 Z M74.9200056,133.679583 L69.9671025,133.679583 C70.0767609,132.730253 70.3630911,131.992424 70.8260931,131.466095 C71.2890951,130.939767 71.8617555,130.676602 72.5440742,130.676602 C73.2507615,130.676602 73.8112376,130.92685 74.2255026,131.427347 C74.6397676,131.927844 74.8712686,132.633383 74.9200056,133.543964 L74.9200056,133.543964 L74.9200056,133.679583 Z M82.2031492,140.073025 C83.3301935,140.073025 84.2470594,139.790487 84.9537467,139.22541 C85.6604339,138.660333 86.0137776,137.909588 86.0137776,136.973174 C86.0137776,136.411326 85.8873659,135.935047 85.6345424,135.544337 C85.3817189,135.153626 84.9933455,134.819424 84.4694222,134.541729 C83.9454989,134.264034 83.2616571,134.025087 82.4178968,133.824888 C81.5741366,133.62469 80.9908149,133.414804 80.667932,133.195231 C80.345049,132.975658 80.1836075,132.649528 80.1836075,132.216841 C80.1836075,131.758321 80.3572332,131.386985 80.7044847,131.102832 C81.0517363,130.818679 81.5330147,130.676602 82.14832,130.676602 C82.7453489,130.676602 83.2403346,130.854198 83.6332771,131.209389 C84.0262196,131.56458 84.2226908,131.987581 84.2226908,132.47839 L84.2226908,132.47839 L85.9223956,132.47839 C85.9223956,131.522603 85.5736211,130.737953 84.876072,130.124441 C84.1785229,129.510929 83.2692722,129.204173 82.14832,129.204173 C81.0821969,129.204173 80.206453,129.501242 79.5210881,130.09538 C78.8357233,130.689518 78.4930409,131.416046 78.4930409,132.274963 C78.4930409,132.791605 78.6133605,133.237208 78.8539997,133.611773 C79.0946389,133.986339 79.466259,134.30924 79.9688598,134.580477 C80.4714607,134.851714 81.1507334,135.084203 82.0066779,135.277943 C82.8626224,135.471684 83.4626974,135.702558 83.8069029,135.970566 C84.1511083,136.238574 84.323211,136.614754 84.323211,137.099106 C84.323211,137.557625 84.1297858,137.924118 83.7429355,138.198584 C83.3560851,138.47305 82.842823,138.610283 82.2031492,138.610283 C81.5086461,138.610283 80.9496931,138.434302 80.5262899,138.08234 C80.1028867,137.730378 79.8759548,137.254098 79.8454942,136.653502 L79.8454942,136.653502 L78.1549276,136.653502 C78.1549276,137.273472 78.3270303,137.849851 78.6712358,138.382638 C79.0154412,138.915425 79.4921505,139.330353 80.1013637,139.627422 C80.7105769,139.924491 81.411172,140.073025 82.2031492,140.073025 Z M91.8530859,140.073025 C92.9801303,140.073025 93.8969961,139.790487 94.6036834,139.22541 C95.3103707,138.660333 95.6637143,137.909588 95.6637143,136.973174 C95.6637143,136.411326 95.5373026,135.935047 95.2844791,135.544337 C95.0316557,135.153626 94.6432823,134.819424 94.1193589,134.541729 C93.5954356,134.264034 92.9115938,134.025087 92.0678335,133.824888 C91.2240733,133.62469 90.6407517,133.414804 90.3178687,133.195231 C89.9949857,132.975658 89.8335442,132.649528 89.8335442,132.216841 C89.8335442,131.758321 90.00717,131.386985 90.3544215,131.102832 C90.701673,130.818679 91.1829514,130.676602 91.7982567,130.676602 C92.3952856,130.676602 92.8902713,130.854198 93.2832138,131.209389 C93.6761563,131.56458 93.8726276,131.987581 93.8726276,132.47839 L93.8726276,132.47839 L95.5723323,132.47839 C95.5723323,131.522603 95.2235578,130.737953 94.5260087,130.124441 C93.8284596,129.510929 92.919209,129.204173 91.7982567,129.204173 C90.7321337,129.204173 89.8563897,129.501242 89.1710249,130.09538 C88.4856601,130.689518 88.1429776,131.416046 88.1429776,132.274963 C88.1429776,132.791605 88.2632972,133.237208 88.5039365,133.611773 C88.7445757,133.986339 89.1161957,134.30924 89.6187966,134.580477 C90.1213974,134.851714 90.8006701,135.084203 91.6566146,135.277943 C92.5125592,135.471684 93.1126341,135.702558 93.4568396,135.970566 C93.801045,136.238574 93.9731478,136.614754 93.9731478,137.099106 C93.9731478,137.557625 93.7797226,137.924118 93.3928722,138.198584 C93.0060218,138.47305 92.4927597,138.610283 91.8530859,138.610283 C91.1585829,138.610283 90.5996298,138.434302 90.1762266,138.08234 C89.7528235,137.730378 89.5258916,137.254098 89.4954309,136.653502 L89.4954309,136.653502 L87.8048643,136.653502 C87.8048643,137.273472 87.9769671,137.849851 88.3211725,138.382638 C88.6653779,138.915425 89.1420873,139.330353 89.7513004,139.627422 C90.3605136,139.924491 91.0611088,140.073025 91.8530859,140.073025 Z M98.8712217,127.634873 C99.2001968,127.634873 99.4499742,127.538003 99.6205539,127.344262 C99.7911336,127.150522 99.8764235,126.908346 99.8764235,126.617735 C99.8764235,126.327124 99.7911336,126.081719 99.6205539,125.88152 C99.4499742,125.681321 99.2001968,125.581222 98.8712217,125.581222 C98.5422466,125.581222 98.2939922,125.681321 98.1264586,125.88152 C97.958925,126.081719 97.8751582,126.327124 97.8751582,126.617735 C97.8751582,126.908346 97.958925,127.150522 98.1264586,127.344262 C98.2939922,127.538003 98.5422466,127.634873 98.8712217,127.634873 Z M99.7027977,139.879285 L99.7027977,129.397914 L98.0122311,129.397914 L98.0122311,139.879285 L99.7027977,139.879285 Z M106.465064,140.073025 C107.354515,140.073025 108.141923,139.846995 108.827288,139.394933 C109.512653,138.942871 110.039622,138.3116 110.408196,137.501118 C110.77677,136.690636 110.961057,135.775211 110.961057,134.754844 L110.961057,134.754844 L110.961057,134.628912 C110.961057,132.988574 110.545269,131.674367 109.713693,130.686289 C108.882117,129.698212 107.793149,129.204173 106.446788,129.204173 C105.575613,129.204173 104.800389,129.426975 104.121116,129.872578 C103.441844,130.318182 102.911828,130.951068 102.53107,131.771237 C102.150312,132.591406 101.959933,133.514903 101.959933,134.541729 L101.959933,134.541729 L101.959933,134.66766 C101.959933,136.295082 102.375721,137.602832 103.207296,138.590909 C104.038872,139.578987 105.124795,140.073025 106.465064,140.073025 Z M106.465064,138.610283 C105.612166,138.610283 104.93137,138.258321 104.422677,137.554396 C103.913984,136.850472 103.659637,135.917288 103.659637,134.754844 C103.659637,133.443865 103.915507,132.436413 104.427246,131.732489 C104.938985,131.028564 105.612166,130.676602 106.446788,130.676602 C107.299686,130.676602 107.983528,131.033408 108.498313,131.747019 C109.013098,132.460631 109.270491,133.392201 109.270491,134.541729 C109.270491,135.826875 109.017667,136.826254 108.51202,137.539866 C108.006373,138.253477 107.324055,138.610283 106.465064,138.610283 Z M114.771686,139.879285 L114.771686,132.410581 C115.003187,131.906855 115.32607,131.5 115.740335,131.190015 C116.1546,130.88003 116.635878,130.725037 117.18417,130.725037 C117.860396,130.725037 118.358428,130.905862 118.678265,131.267511 C118.998102,131.62916 119.161067,132.187779 119.167159,132.943368 L119.167159,132.943368 L119.167159,139.879285 L120.857725,139.879285 L120.857725,132.953055 C120.839449,130.4538 119.78551,129.204173 117.695909,129.204173 C116.477483,129.204173 115.490557,129.707899 114.735133,130.71535 L114.735133,130.71535 L114.680304,129.397914 L113.081119,129.397914 L113.081119,139.879285 L114.771686,139.879285 Z M136.758189,139.879285 L136.758189,138.35842 L130.05989,138.35842 L130.05989,133.359911 L135.826093,133.359911 L135.826093,131.839046 L130.05989,131.839046 L130.05989,127.305514 L136.666807,127.305514 L136.666807,125.774963 L128.305356,125.774963 L128.305356,139.879285 L136.758189,139.879285 Z M139.737242,139.879285 L142.021791,135.956036 L144.306341,139.879285 L146.261915,139.879285 L142.926473,134.580477 L146.161395,129.397914 L144.187544,129.397914 L141.994376,133.224292 L139.828624,129.397914 L137.873049,129.397914 L141.107971,134.580477 L137.772529,139.879285 L139.737242,139.879285 Z M149.643048,143.909091 L149.643048,138.862146 C150.331459,139.669399 151.275739,140.073025 152.475889,140.073025 C153.651671,140.073025 154.583767,139.585445 155.272178,138.610283 C155.960589,137.635122 156.304794,136.349975 156.304794,134.754844 L156.304794,134.754844 L156.304794,134.590164 C156.304794,132.898162 155.959066,131.577496 155.267609,130.628167 C154.576152,129.678838 153.63644,129.204173 152.448475,129.204173 C151.223956,129.204173 150.267491,129.656234 149.579081,130.560358 L149.579081,130.560358 L149.496837,129.397914 L147.952481,129.397914 L147.952481,143.909091 L149.643048,143.909091 Z M151.96415,138.610283 C150.922396,138.610283 150.148695,138.132389 149.643048,137.176602 L149.643048,137.176602 L149.643048,132.168405 C150.154787,131.20616 150.922396,130.725037 151.945874,130.725037 C152.774404,130.725037 153.426262,131.067312 153.901448,131.751863 C154.376634,132.436413 154.614227,133.369598 154.614227,134.551416 C154.614227,135.894685 154.375111,136.90698 153.896879,137.588301 C153.418647,138.269622 152.774404,138.610283 151.96415,138.610283 Z M159.457472,127.634873 C159.786447,127.634873 160.036225,127.538003 160.206804,127.344262 C160.377384,127.150522 160.462674,126.908346 160.462674,126.617735 C160.462674,126.327124 160.377384,126.081719 160.206804,125.88152 C160.036225,125.681321 159.786447,125.581222 159.457472,125.581222 C159.128497,125.581222 158.880243,125.681321 158.712709,125.88152 C158.545176,126.081719 158.461409,126.327124 158.461409,126.617735 C158.461409,126.908346 158.545176,127.150522 158.712709,127.344262 C158.880243,127.538003 159.128497,127.634873 159.457472,127.634873 Z M160.289048,139.879285 L160.289048,129.397914 L158.598482,129.397914 L158.598482,139.879285 L160.289048,139.879285 Z M164.684521,139.879285 L164.684521,132.439642 C165.08051,131.438649 165.832888,130.938152 166.941656,130.938152 C167.240171,130.938152 167.517363,130.960755 167.773232,131.005961 L167.773232,131.005961 L167.773232,129.339791 C167.602652,129.249379 167.352875,129.204173 167.0239,129.204173 C166.006514,129.204173 165.220629,129.67238 164.666245,130.608793 L164.666245,130.608793 L164.63883,129.397914 L162.993955,129.397914 L162.993955,139.879285 L164.684521,139.879285 Z M173.256151,140.073025 C174.913211,140.073025 176.156005,139.398162 176.984535,138.048435 L176.984535,138.048435 L175.951919,137.195976 C175.64122,137.622206 175.278738,137.964481 174.864473,138.222802 C174.450209,138.481123 173.944562,138.610283 173.347533,138.610283 C172.506819,138.610283 171.813839,138.292226 171.268593,137.65611 C170.723347,137.019995 170.43854,136.185296 170.414171,135.152012 L170.414171,135.152012 L177.11247,135.152012 L177.11247,134.40611 C177.11247,132.733482 176.75608,131.448336 176.043301,130.550671 C175.330522,129.653005 174.331412,129.204173 173.045972,129.204173 C172.260087,129.204173 171.530554,129.435047 170.857374,129.896796 C170.184193,130.358544 169.66027,130.997889 169.285604,131.814829 C168.910938,132.631769 168.723605,133.560109 168.723605,134.599851 L168.723605,134.599851 L168.723605,134.92921 C168.723605,136.492052 169.143962,137.740065 169.984676,138.673249 C170.82539,139.606433 171.915882,140.073025 173.256151,140.073025 Z M175.421904,133.679583 L170.469,133.679583 C170.578659,132.730253 170.864989,131.992424 171.327991,131.466095 C171.790993,130.939767 172.363653,130.676602 173.045972,130.676602 C173.752659,130.676602 174.313136,130.92685 174.727401,131.427347 C175.141665,131.927844 175.373167,132.633383 175.421904,133.543964 L175.421904,133.543964 L175.421904,133.679583 Z M182.54056,140.073025 C183.746802,140.073025 184.688036,139.63388 185.364263,138.755589 L185.364263,138.755589 L185.446506,139.879285 L187,139.879285 L187,125 L185.309433,125 L185.309433,130.463487 C184.633207,129.623944 183.716341,129.204173 182.558836,129.204173 C181.395239,129.204173 180.454004,129.693368 179.735133,130.671759 C179.016261,131.650149 178.656826,132.943368 178.656826,134.551416 L178.656826,134.551416 L178.656826,134.687034 C178.656826,136.288624 179.017784,137.586687 179.739702,138.581222 C180.46162,139.575758 181.395239,140.073025 182.54056,140.073025 Z M182.960917,138.552161 C182.144571,138.552161 181.504897,138.216344 181.041895,137.544709 C180.578893,136.873075 180.347392,135.94312 180.347392,134.754844 C180.347392,133.424491 180.578893,132.420268 181.041895,131.742176 C181.504897,131.064083 182.150663,130.725037 182.979193,130.725037 C184.02704,130.725037 184.803786,131.219076 185.309433,132.207154 L185.309433,132.207154 L185.309433,137.02161 C184.815971,138.041977 184.033132,138.552161 182.960917,138.552161 Z" id="SessionExpired" fill="#5894BB" fill-rule="nonzero"></path>
            </g>
        </g>
    </g>
</svg>