<?xml version="1.0" encoding="UTF-8"?>
<svg width="54px" height="54px" viewBox="0 0 54 54" version="1.1" xmlns="http://www.w3.org/2000/svg" xmlns:xlink="http://www.w3.org/1999/xlink">
    <!-- Generator: sketchtool 63.1 (101010) - https://sketch.com -->
    <title>C9B60968-F247-41DC-8CA1-5F6E4B9C8496@2.00x</title>
    <desc>Created with sketchtool.</desc>
    <defs>
        <circle id="path-1" cx="15" cy="15" r="15"></circle>
        <filter x="-70.0%" y="-50.0%" width="240.0%" height="240.0%" filterUnits="objectBoundingBox" id="filter-2">
            <feOffset dx="0" dy="6" in="SourceAlpha" result="shadowOffsetOuter1"></feOffset>
            <feMorphology radius="4" operator="erode" in="SourceAlpha" result="shadowInner"></feMorphology>
            <feOffset dx="0" dy="6" in="shadowInner" result="shadowInner"></feOffset>
            <feComposite in="shadowOffsetOuter1" in2="shadowInner" operator="out" result="shadowOffsetOuter1"></feComposite>
            <feGaussianBlur stdDeviation="6" in="shadowOffsetOuter1" result="shadowBlurOuter1"></feGaussianBlur>
            <feColorMatrix values="0 0 0 0 0   0 0 0 0 0   0 0 0 0 0  0 0 0 0.08 0" type="matrix" in="shadowBlurOuter1"></feColorMatrix>
        </filter>
    </defs>
    <g id="Phone" stroke="none" stroke-width="1" fill="none" fill-rule="evenodd">
        <g id="Phone---Add-Beneficiary---Port--4" transform="translate(-188.000000, -248.000000)">
            <g id="Cards/Web/Accounts/Beneficiaries" transform="translate(188.000000, 239.000000)">
                <g id="Image-Placeholder" transform="translate(12.000000, 15.000000)">
                    <g id="BG">
                        <use fill="black" fill-opacity="1" filter="url(#filter-2)" xlink:href="#path-1"></use>
                        <circle stroke="#FFFFFF" stroke-width="4" stroke-linejoin="square" cx="15" cy="15" r="13"></circle>
                    </g>
                    <path d="M23.22,12 L6.78,12 C6.3492179,12 6,11.6507821 6,11.22 C6,10.7423926 6.27118743,10.3062142 6.69950859,10.0949091 L13.2303031,6.87305049 C14.3459151,6.32268188 15.6540849,6.32268188 16.7696969,6.87305049 L23.3004914,10.0949091 C23.7288126,10.3062142 24,10.7423926 24,11.22 C24,11.6507821 23.6507821,12 23.22,12 Z M24,23.25 C24,23.6642136 23.6642136,24 23.25,24 L6.75,24 C6.33578644,24 6,23.6642136 6,23.25 C6,22.8357864 6.33578644,22.5 6.75,22.5 L23.25,22.5 C23.6642136,22.5 24,22.8357864 24,23.25 Z M14.25,13.5 L15.75,13.5 L15.75,21 L14.25,21 L14.25,13.5 M8.25,13.5 L9.75,13.5 L9.75,21 L8.25,21 L8.25,13.5 M20.25,13.5 L21.75,13.5 L21.75,21 L20.25,21 L20.25,13.5 Z" id="Icon-Shape" fill="#00A0E6" fill-rule="nonzero"></path>
                </g>
            </g>
        </g>
    </g>
</svg>