<?xml version="1.0" encoding="UTF-8"?>
<svg width="24px" height="24px" viewBox="0 0 24 24" version="1.1" xmlns="http://www.w3.org/2000/svg" xmlns:xlink="http://www.w3.org/1999/xlink">
    <title>AF2C78FF-DCE8-417C-B802-2C34F60403E8@2.00x</title>
    <g id="Phone---Menu" stroke="none" stroke-width="1" fill="none" fill-rule="evenodd">
        <g id="Phone-Port---Menu" transform="translate(-189.000000, -129.000000)" fill-rule="nonzero">
            <g id="PopUp/Profile" transform="translate(16.000000, 71.000000)">
                <g id="ic.ChangePassword" transform="translate(173.000000, 58.000000)">
                    <rect id="ViewBox" x="0" y="0" width="24" height="24"></rect>
                    <g id="Group" transform="translate(4.000000, 3.000000)">
                        <path d="M13.5,5.7 L15.3,5.7 C15.7970563,5.7 16.2,6.06456813 16.2,6.51428571 L16.2,17.1857143 C16.2,17.6354319 15.7970563,18 15.3,18 L0.9,18 C0.402943725,18 0,17.6354319 0,17.1857143 L0,6.51428571 C0,6.06456813 0.402943725,5.7 0.9,5.7 L2.7,5.7 L2.7,4.88571429 C2.7,2.18740879 5.11766235,0 8.1,0 C11.0823376,0 13.5,2.18740879 13.5,4.88571429 L13.5,5.7 Z M1.8,7.32857143 L1.8,16.3714286 L14.4,16.3714286 L14.4,7.32857143 L1.8,7.32857143 Z M11.7,4.88571429 C11.7,3.08684396 10.0882251,1.62857143 8.1,1.62857143 C6.1117749,1.62857143 4.5,3.08684396 4.5,4.88571429 L4.5,5.7 L11.7,5.7 L11.7,4.88571429 Z" id="Icon-Shape" fill="#969696"></path>
                        <polygon id="Icon-Path" fill="#00A0E6" points="4.5 10.8 6.3 10.8 6.3 12.6 4.5 12.6"></polygon>
                        <polygon id="Icon-Path" fill="#00A0E6" points="7.2 10.8 9 10.8 9 12.6 7.2 12.6"></polygon>
                        <polygon id="Icon-Path" fill="#00A0E6" points="9.9 10.8 11.7 10.8 11.7 12.6 9.9 12.6"></polygon>
                    </g>
                </g>
            </g>
        </g>
    </g>
</svg>