<?xml version="1.0" encoding="UTF-8"?>
<svg width="16px" height="20px" viewBox="0 0 16 20" version="1.1" xmlns="http://www.w3.org/2000/svg" xmlns:xlink="http://www.w3.org/1999/xlink">
    <!-- Generator: sketchtool 63.1 (101010) - https://sketch.com -->
    <title>781ADE1E-9F10-4079-B94E-EAD9C5592B5E@2.00x</title>
    <desc>Created with sketchtool.</desc>
    <g id="Web" stroke="none" stroke-width="1" fill="none" fill-rule="evenodd">
        <g id="Saving-Account-Details-4" transform="translate(-1368.000000, -718.000000)" fill="#00A0E6" fill-rule="nonzero">
            <g id="PopUp/Export" transform="translate(1189.000000, 703.000000)">
                <path d="M190.789474,15 L180.684211,15 C179.757895,15 179,15.7854545 179,16.7454545 L179,28.9636364 L180.684211,28.9636364 L180.684211,16.7454545 L190.789474,16.7454545 L190.789474,15 Z M189.947368,18.4909091 L195,23.7272727 L195,32.4545455 C195,33.4145455 194.242105,34.2 193.315789,34.2 L184.044211,34.2 C183.117895,34.2 182.368421,33.4145455 182.368421,32.4545455 L182.376842,20.2363636 C182.376842,19.2763636 183.126316,18.4909091 184.052632,18.4909091 L189.947368,18.4909091 Z M189.105263,24.6 L193.736842,24.6 L189.105263,19.8 L189.105263,24.6 Z" id="ic.Copy"></path>
            </g>
        </g>
    </g>
</svg>