<?xml version="1.0" encoding="UTF-8"?>
<svg width="24px" height="25px" viewBox="0 0 24 25" version="1.1" xmlns="http://www.w3.org/2000/svg" xmlns:xlink="http://www.w3.org/1999/xlink">
    <title>61A14B7F-7DA2-4E52-8A19-5FE3634D1B87@2x</title>
    <g id="Page-1" stroke="none" stroke-width="1" fill="none" fill-rule="evenodd">
        <g id="Icons-1.0.0.0" transform="translate(-486.000000, -316.000000)">
            <g id="Quick-Links" transform="translate(486.000000, 40.000000)">
                <g id="Freeze-Card" transform="translate(0.000000, 277.000000)">
                    <rect id="Bond" stroke="#979797" opacity="0" x="0.5" y="0.5" width="23" height="23"></rect>
                    <path d="M17.3389831,8 C16.9694237,8 16.6779661,7.71305641 16.6779661,7.36995897 L16.6779661,5.75824615 C16.6779661,3.27349744 14.5745085,1.26007179 12,1.26007179 C9.42552203,1.26007179 7.3220339,3.27349744 7.3220339,5.75824615 L7.3220339,7.36995897 C7.3220339,7.70652308 7.0416,7.98904615 6.68205763,7.99969231 L6.67106441,7.99464615 C6.65127458,7.98538462 6.62272881,7.97158974 6.58835593,7.95375385 C6.51935593,7.91796923 6.42806441,7.86653333 6.33739322,7.80347692 C6.24610169,7.73998974 6.15917288,7.66728205 6.096,7.58986667 C6.03231864,7.51181538 6,7.43797949 6,7.36995897 L6,5.75824615 C6,2.58731282 8.68634237,0 12,0 C15.3136271,0 18,2.58731282 18,5.75824615 L18,7.36995897 C18,7.71305641 17.7085424,8 17.3389831,8 Z" id="Path" stroke="#FFFFFF" stroke-width="0.3" fill="#1E3A68" fill-rule="nonzero"></path>
                    <rect id="Shape" stroke="#1E3A68" x="1.5" y="8.5" width="21" height="15" rx="2"></rect>
                    <path d="M12,14.4 C12.4412,14.4 12.8411124,14.5795479 13.1307823,14.8692177 C13.4204521,15.1588876 13.6,15.5588 13.6,16 C13.6,16.4412 13.4204521,16.8411124 13.1307823,17.1307823 C12.8411124,17.4204521 12.4412,17.6 12,17.6 C11.5588,17.6 11.1588876,17.4204521 10.8692177,17.1307823 C10.5795479,16.8411124 10.4,16.4412 10.4,16 C10.4,15.5588 10.5795479,15.1588876 10.8692177,14.8692177 C11.1588876,14.5795479 11.5588,14.4 12,14.4 L12,14.4 Z" id="Path" stroke="#1E326E" stroke-width="0.8" fill-opacity="0.6" fill="#00A0E6"></path>
                    <path d="M12,21 C11.724,21 11.5,20.76285 11.5,20.470575 L11.5,17.529425 L12.5,17.529425 L12.5,20.470575 C12.5,20.76285 12.276,21 12,21 Z" id="Path" fill="#1E3A68" fill-rule="nonzero"></path>
                </g>
            </g>
        </g>
    </g>
</svg>