<?xml version="1.0" encoding="UTF-8"?>
<svg width="19px" height="19px" viewBox="0 0 19 19" version="1.1" xmlns="http://www.w3.org/2000/svg" xmlns:xlink="http://www.w3.org/1999/xlink">
    <!-- Generator: sketchtool 63.1 (101010) - https://sketch.com -->
    <title>BE2F9648-29A3-4F07-A7B2-BF035940DC33@2.00x</title>
    <desc>Created with sketchtool.</desc>
    <g id="Phone---Dashboard-Finance" stroke="none" stroke-width="1" fill="none" fill-rule="evenodd">
        <g id="Phone-Port---Dashboard-Finance-2" transform="translate(-34.000000, -176.000000)" fill-rule="nonzero">
            <g id="Message" transform="translate(16.000000, 165.000000)">
                <g id="ic.info" transform="translate(16.000000, 8.000000)">
                    <rect id="ViewBox" x="0" y="0" width="24" height="24"></rect>
                    <path d="M11.5,3 C16.7467051,3 21,7.25329488 21,12.5 C21,17.7467051 16.7467051,22 11.5,22 C6.25329488,22 2,17.7467051 2,12.5 C2,7.25329488 6.25329488,3 11.5,3 Z M11.5,4 C6.80557963,4 3,7.80557963 3,12.5 C3,17.1944204 6.80557963,21 11.5,21 C16.1944204,21 20,17.1944204 20,12.5 C20,7.80557963 16.1944204,4 11.5,4 L11.5,4 Z M11,17 L11,15 L12,15 L12,17 L11,17 Z M11,13 L11,8 L12,8 L12,13 L11,13 Z" id="Icon-Shape" fill="#1A2858"></path>
                </g>
            </g>
        </g>
    </g>
</svg>