<?xml version="1.0" encoding="UTF-8"?>
<svg width="24px" height="24px" viewBox="0 0 24 24" version="1.1" xmlns="http://www.w3.org/2000/svg" xmlns:xlink="http://www.w3.org/1999/xlink">
    <title>CE1D5808-C8C4-4017-A394-7E64D8EA6D49@2x</title>
    <g id="Page-1" stroke="none" stroke-width="1" fill="none" fill-rule="evenodd">
        <g id="Icons-1.0.0.0" transform="translate(-486.000000, -253.000000)">
            <g id="Quick-Links" transform="translate(486.000000, 40.000000)">
                <g id="Linked-Account" transform="translate(0.000000, 213.000000)">
                    <rect id="Bond" stroke="#979797" opacity="0" x="0.5" y="0.5" width="23" height="23"></rect>
                    <path d="M2.39743818,21.6170834 L2.39738848,21.6170834 C0.534203839,19.774227 0.534203839,16.7868607 2.39738848,14.943906 L8.02042936,9.38216445 C9.88360704,7.53927852 12.9038729,7.53927852 14.7670307,9.38216445 C15.0776564,9.68934652 15.0776564,10.1873228 14.7670307,10.4944656 C14.4565044,10.8016083 13.9530423,10.8016083 13.642516,10.4944656 C12.4004108,9.2659241 10.3870791,9.2659241 9.14502361,10.4944656 L3.52193304,16.0563644 C2.27987754,17.284837 2.27987754,19.2762507 3.5221219,20.50492 C4.76422711,21.7343758 6.77741961,21.7342775 8.02042936,20.5048216 L10.8314776,17.7243146 C11.1420039,17.4171719 11.6455655,17.4171719 11.9560918,17.7243146 C12.2666181,18.0314574 12.2666181,18.529532 11.9560918,18.8366748 L9.14506337,21.6170834 C7.28083205,23.4610214 4.26034749,23.460923 2.39743818,21.6170834 Z" id="Path" stroke="#FFFFFF" stroke-width="0.4" fill="#1E3A68" fill-rule="nonzero"></path>
                    <path d="M15.1691019,2.3328616 C16.9603976,0.555712798 19.8651369,0.555712798 21.6565282,2.3328616 C23.4478239,4.11001326 23.4478239,6.99086992 21.6565282,8.76802157 L15.7103898,14.6670865 C13.9189985,16.4443045 11.0152148,16.4443045 9.22391913,14.6670865 C8.92536029,14.3708993 8.92536029,13.8906854 9.22391913,13.5944982 C9.52247797,13.2982162 10.0066076,13.2982162 10.3051568,13.5944034 C11.4992584,14.779247 13.4349549,14.779247 14.629152,13.5944982 L20.5752905,7.69531003 C21.7693921,6.51060863 21.7693921,4.59022714 20.5752905,3.40552574 C19.3810934,2.22076745 17.4444412,2.22076745 16.2502441,3.40552574 L13.0076777,6.62243731 C12.7091284,6.91863399 12.2250849,6.91863399 11.9265356,6.62243731 C11.6279863,6.32624063 11.6279863,5.84596986 11.9265356,5.54977317 L15.1691019,2.3328616 Z" id="Path" stroke="#FFFFFF" stroke-width="0.4" fill="#1E3A68" fill-rule="nonzero"></path>
                </g>
            </g>
        </g>
    </g>
</svg>