<?xml version="1.0" encoding="UTF-8"?>
<svg width="24px" height="24px" viewBox="0 0 24 24" version="1.1" xmlns="http://www.w3.org/2000/svg" xmlns:xlink="http://www.w3.org/1999/xlink">
    <title>4B84EE12-78C1-49A6-A5F3-ADEC1DB9E2EC@2.00x</title>
    <g id="Phone---Menu" stroke="none" stroke-width="1" fill="none" fill-rule="evenodd">
        <g id="Phone-Port---Menu" transform="translate(-189.000000, -175.000000)">
            <g id="PopUp/Profile" transform="translate(16.000000, 71.000000)">
                <g id="ic.Logout" transform="translate(173.000000, 104.000000)">
                    <rect id="ViewBox" fill-rule="nonzero" x="0" y="0" width="24" height="24"></rect>
                    <path d="M3,5 C3,3.9 3.9,3 5,3 L13,3 L13,5 L5,5 L5,19 L13,19 L13,21 L5,21 C3.9,21 3,20.1 3,19 L3,5 Z" id="Icon-Path" fill="#969696"></path>
                    <polygon id="Icon-Path" fill="#00A0E6" points="17.586 10.989899 15.05 8.42828283 16.464 7 21 12 16.464 17 15.05 15.5717172 17.586 13.010101 11 13.010101 11 10.989899"></polygon>
                </g>
            </g>
        </g>
    </g>
</svg>