<?xml version="1.0" encoding="UTF-8"?>
<svg width="3px" height="13px" viewBox="0 0 3 13" version="1.1" xmlns="http://www.w3.org/2000/svg" xmlns:xlink="http://www.w3.org/1999/xlink">
    <!-- Generator: Sketch 63.1 (92452) - https://sketch.com -->
    <title>mdi-light:dots-vertical@2x</title>
    <desc>Created with Sketch.</desc>
    <g id="Symbols" stroke="none" stroke-width="1" fill="none" fill-rule="evenodd">
        <g id="Cards/Web/Accounts/Beneficiaries" transform="translate(-190.000000, -16.000000)" fill-rule="nonzero">
            <g id="mdi-light:dots-vertical" transform="translate(179.000000, 10.000000)">
                <rect id="ViewBox" x="0" y="0" width="24" height="24"></rect>
                <g id="Icon" transform="translate(11.000000, 6.000000)" fill="#A0A0A0">
                    <path d="M1.5,10 C2.32842712,10 3,10.6715729 3,11.5 C3,12.3284271 2.32842712,13 1.5,13 C0.671572875,13 0,12.3284271 0,11.5 C0,10.6715729 0.671572875,10 1.5,10 Z M1.5,5 C2.32842712,5 3,5.67157288 3,6.5 C3,7.32842712 2.32842712,8 1.5,8 C0.671572875,8 0,7.32842712 0,6.5 C0,5.67157288 0.671572875,5 1.5,5 Z M1.5,0 C2.32842712,0 3,0.671572875 3,1.5 C3,2.32842712 2.32842712,3 1.5,3 C0.671572875,3 0,2.32842712 0,1.5 C0,0.671572875 0.671572875,0 1.5,0 Z" id="Icon-Shape"></path>
                </g>
            </g>
        </g>
    </g>
</svg>