<?xml version="1.0" encoding="UTF-8"?>
<svg width="16px" height="16px" viewBox="0 0 16 16" version="1.1" xmlns="http://www.w3.org/2000/svg" xmlns:xlink="http://www.w3.org/1999/xlink">
    <!-- Generator: sketchtool 63.1 (101010) - https://sketch.com -->
    <title>243A8C87-AD77-491E-923F-93C663FC2AFB@2.00x</title>
    <desc>Created with sketchtool.</desc>
    <g id="Symbols" stroke="none" stroke-width="1" fill="none" fill-rule="evenodd">
        <g id="ic.Search_Normal" transform="translate(-14.000000, -10.000000)" fill="#A0A0A0" fill-rule="nonzero">
            <g id="Icon-Shape">
                <path d="M20.0910131,10 C22.470245,10 24.6316471,11.3847992 25.6250038,13.5457304 C26.6183605,15.7066615 26.261754,18.2479327 24.711959,20.0523266 L30,25.3378987 L29.3375895,26 L24.0486115,20.7134914 C21.9982977,22.4660231 19.0387844,22.6614182 16.7756604,21.1936714 C14.5125363,19.7259246 13.4852038,16.9448646 14.2510089,14.3592661 C15.016814,11.7736676 17.3932318,9.9997926 20.0910131,10 Z M20.0910131,10.936494 C17.2450219,10.936494 14.9378902,13.2425486 14.9378902,16.087211 C14.9378902,18.9318735 17.2450219,21.237928 20.0910131,21.237928 C22.9370043,21.237928 25.244136,18.9318735 25.244136,16.087211 C25.244136,13.2425486 22.9370043,10.936494 20.0910131,10.936494 Z"></path>
            </g>
        </g>
    </g>
</svg>