<?xml version="1.0" encoding="UTF-8"?>
<svg width="24px" height="24px" viewBox="0 0 24 24" version="1.1" xmlns="http://www.w3.org/2000/svg" xmlns:xlink="http://www.w3.org/1999/xlink">
    <title>ic/Eye-Hide@2x</title>
    <g id="Symbols" stroke="none" stroke-width="1" fill="none" fill-rule="evenodd">
        <g id="ic/Eye/Hide" fill-rule="nonzero">
            <g id="ic/Eye-Hide">
                <rect id="ViewBox" x="0" y="0" width="24" height="24"></rect>
                <g id="Icon" transform="translate(2.000000, 3.000000)" fill="#C8C8C8">
                    <path d="M14.3938889,10.4666667 C14.5693909,9.99767399 14.6584229,9.50075145 14.6566921,9 C14.6566921,6.6846996 12.7797448,4.80777778 10.4644444,4.80777778 C9.96986418,4.80835552 9.47937037,4.89734806 9.01611111,5.07055556 L10,6.085 C10.1495622,6.06107205 10.3007588,6.04881286 10.4522222,6.04833333 C12.0887659,6.04491769 13.4210061,7.36350789 13.4344444,9 C13.4339403,9.15146235 13.4216813,9.30265712 13.3977778,9.45222222 L14.3938889,10.4666667 Z" id="Icon-Path"></path>
                    <path d="M19.955,8.71277778 C17.8955556,4.90555556 14.2838889,2.60166667 10.2872222,2.60166667 C9.1990484,2.60422128 8.11818272,2.77955254 7.085,3.12111111 L8.06888889,4.11111111 C8.79357593,3.92382396 9.53873318,3.82734355 10.2872222,3.82388889 C13.7277778,3.82388889 16.8566667,5.74277778 18.7205556,8.97555556 C18.0368176,10.174925 17.13041,11.2327462 16.05,12.0922222 L16.9177778,12.96 C18.1681565,11.9512636 19.2066118,10.7051173 19.9733333,9.29333333 L20.1322222,9 L19.955,8.71277778 Z" id="Icon-Path"></path>
                    <path d="M1.97611111,1.53222222 L4.70166667,4.25777778 C2.97889499,5.36701303 1.57088418,6.90130284 0.613333333,8.71277778 L0.454444444,9 L0.613333333,9.29333333 C2.67277778,13.1005556 6.28444444,15.4044444 10.2811111,15.4044444 C11.8410689,15.4041294 13.3807616,15.0510655 14.785,14.3716667 L17.8405556,17.4272222 L18.91,16.5105556 L3.02111111,0.621666667 L1.97611111,1.53222222 Z M7.93444444,7.49055556 L11.9983333,11.5544444 C11.5391597,11.8386644 11.0105638,11.9909001 10.4705556,11.9944444 C9.67805507,11.9944444 8.91827789,11.6783904 8.35961878,11.1162899 C7.80095967,10.5541893 7.48956251,9.79248545 7.49444444,9 C7.50133065,8.46623315 7.65343894,7.94441719 7.93444444,7.49055556 L7.93444444,7.49055556 Z M7.04833333,6.60444444 C5.86784234,8.26925555 6.05995154,10.5427097 7.50306536,11.9858235 C8.94617919,13.4289373 11.2196333,13.6210465 12.8844444,12.4405556 L13.8622222,13.4183333 C12.7303106,13.9021719 11.512096,14.1516667 10.2811111,14.1516667 C6.84055556,14.1516667 3.71166667,12.2327778 1.84777778,9 C2.74226577,7.41613343 4.03049816,6.09001185 5.58777778,5.15 L7.04833333,6.60444444 Z" id="Icon-Shape"></path>
                </g>
            </g>
        </g>
    </g>
</svg>