<?xml version="1.0" encoding="UTF-8"?>
<svg width="32px" height="32px" viewBox="0 0 32 32" version="1.1" xmlns="http://www.w3.org/2000/svg" xmlns:xlink="http://www.w3.org/1999/xlink">
    <title>1C2072F3-5D30-4FC8-B014-EA68A253C727@2x</title>
    <g id="Page-1" stroke="none" stroke-width="1" fill="none" fill-rule="evenodd">
        <g id="Icons-1.0.0.1" transform="translate(-416.000000, -556.000000)">
            <g id="Payees" transform="translate(40.000000, 414.000000)">
                <g id="Card" transform="translate(360.000000, 130.000000)">
                    <g id="ic.Salik" transform="translate(16.000000, 12.000000)">
                        <rect id="Bond" stroke="#979797" opacity="0" x="0" y="0" width="32" height="32"></rect>
                        <path d="M28,2.5 C28.4142136,2.5 28.7892136,2.66789322 29.0606602,2.93933983 C29.3321068,3.21078644 29.5,3.58578644 29.5,4 L29.5,4 L29.5,21.5 L25.5,21.5 L25.5,12 C25.5,11.3434119 25.246857,10.7459624 24.832907,10.2998542 C24.4116765,9.84589994 23.8238251,9.5489104 23.1667665,9.50549249 L23.1667665,9.50549249 L9,9.5 C8.34341185,9.5 7.74596237,9.75314298 7.2998542,10.167093 C6.84590922,10.5883149 6.54892254,11.1761509 6.50549515,11.8331932 L6.50549515,11.8331932 L6.50027018,21.5 L2.5,21.5 L2.5,4 C2.5,3.58578644 2.66789322,3.21078644 2.93933983,2.93933983 C3.21078644,2.66789322 3.58578644,2.5 4,2.5 L4,2.5 Z" id="Combined-Shape" stroke="#083870"></path>
                        <path d="M20,18 L30,29 L18,29 L17,21 L15,21 L14,29 L2,29 L12,18 L20,18 Z" id="Combined-Shape" fill="#00A0E6"></path>
                    </g>
                </g>
            </g>
        </g>
    </g>
</svg>