<?xml version="1.0" encoding="UTF-8"?>
<svg width="42px" height="42px" viewBox="0 0 42 42" version="1.1" xmlns="http://www.w3.org/2000/svg" xmlns:xlink="http://www.w3.org/1999/xlink">
    <!-- Generator: Sketch 63.1 (92452) - https://sketch.com -->
    <title>icons/Payee/Default@2x</title>
    <desc>Created with Sketch.</desc>
    <defs>
        <circle id="path-1" cx="21" cy="21" r="21"></circle>
        <filter x="-33.3%" y="-23.8%" width="166.7%" height="166.7%" filterUnits="objectBoundingBox" id="filter-2">
            <feOffset dx="0" dy="4" in="SourceAlpha" result="shadowOffsetOuter1"></feOffset>
            <feGaussianBlur stdDeviation="4" in="shadowOffsetOuter1" result="shadowBlurOuter1"></feGaussianBlur>
            <feColorMatrix values="0 0 0 0 0   0 0 0 0 0   0 0 0 0 0  0 0 0 0.1 0" type="matrix" in="shadowBlurOuter1"></feColorMatrix>
        </filter>
    </defs>
    <g id="icons/Payee/Default" stroke="none" stroke-width="1" fill="none" fill-rule="evenodd">
        <g id="BG">
            <use fill="black" fill-opacity="1" filter="url(#filter-2)" xlink:href="#path-1"></use>
            <use fill="#FFFFFF" fill-rule="evenodd" xlink:href="#path-1"></use>
        </g>
        <circle id="ic.Default" fill="#FFFFFF" cx="21" cy="21" r="21"></circle>
        <path d="M15.7727686,18.7801527 L15.7727686,13.2603053 L19.3121251,18.7801527 L20.6918742,18.7801527 L20.6918742,11 L19.3230322,11 L19.3230322,16.5412214 L15.7727686,11 L14.3930195,11 L14.3930195,18.7801527 L15.7727686,18.7801527 Z M24.6947828,18.8870229 C25.2401382,18.8870229 25.7209598,18.7641221 26.1372478,18.5183206 C26.5535357,18.2725191 26.8734775,17.9251908 27.0970733,17.4763359 C27.320669,17.0274809 27.4324668,16.5180662 27.4324668,15.9480916 L27.4324668,15.9480916 L27.4270133,15.6435115 C27.3870205,14.813486 27.1188875,14.1473282 26.6226141,13.6450382 C26.1263407,13.1427481 25.4800945,12.8916031 24.6838757,12.8916031 C24.1457917,12.8916031 23.6695146,13.0136132 23.2550445,13.2576336 C22.8405744,13.5016539 22.5188148,13.8507634 22.2897655,14.3049618 C22.0607162,14.7591603 21.9461916,15.2694656 21.9461916,15.8358779 L21.9461916,15.8358779 L21.9461916,15.9 C21.9461916,16.8048346 22.1961462,17.5288804 22.6960553,18.0721374 C23.1959644,18.6153944 23.8622069,18.8870229 24.6947828,18.8870229 Z M24.6947828,17.8503817 C24.2475913,17.8503817 23.8985639,17.6820611 23.6477004,17.3454198 C23.3968369,17.0087786 23.2714052,16.5430025 23.2714052,15.9480916 C23.2714052,15.2783715 23.3986548,14.7751908 23.653154,14.4385496 C23.9076532,14.1019084 24.251227,13.9335878 24.6838757,13.9335878 C25.1237957,13.9335878 25.4719142,14.1045802 25.7282312,14.4465649 C25.9845483,14.7885496 26.1127068,15.2516539 26.1127068,15.8358779 C26.1127068,16.4949109 25.988184,16.9954198 25.7391383,17.3374046 C25.4900927,17.6793893 25.1419742,17.8503817 24.6947828,17.8503817 Z M7.37429558,29.7236641 L7.37429558,21.9435115 L6,21.9435115 L6,29.7236641 L7.37429558,29.7236641 Z M10.2646791,29.7236641 L10.2646791,25.5343511 C10.486457,25.1104326 10.8627522,24.8984733 11.3935648,24.8984733 C12.0843483,24.8984733 12.4388293,25.2386768 12.4570078,25.919084 L12.4570078,25.919084 L12.4570078,29.7236641 L13.7822214,29.7236641 L13.7767679,25.7587786 C13.8531176,25.5022901 13.9867297,25.2947837 14.1776041,25.1362595 C14.3684785,24.9777354 14.6147973,24.8984733 14.9165606,24.8984733 C15.2946737,24.8984733 15.5655335,24.9839695 15.7291402,25.1549618 C15.8927468,25.3259542 15.9745501,25.5949109 15.9745501,25.9618321 L15.9745501,25.9618321 L15.9745501,29.7236641 L17.2997637,29.7236641 L17.2997637,25.9244275 C17.2924923,25.2368957 17.1297946,24.7167939 16.8116706,24.3641221 C16.4935466,24.0114504 16.0090893,23.8351145 15.3582985,23.8351145 C14.5802581,23.8351145 13.9767315,24.1307888 13.5477186,24.7221374 C13.2568624,24.1307888 12.7169606,23.8351145 11.9280131,23.8351145 C11.208144,23.8351145 10.6409744,24.0720102 10.2265043,24.5458015 L10.2265043,24.5458015 L10.1883294,23.9419847 L8.93946555,23.9419847 L8.93946555,29.7236641 L10.2646791,29.7236641 Z M20.4846392,29.8305344 C21.0954372,29.8305344 21.611707,29.6150127 22.0334485,29.1839695 C22.0770769,29.4333333 22.1279767,29.6132316 22.186148,29.7236641 L22.186148,29.7236641 L23.5386293,29.7236641 L23.5386293,29.6328244 C23.3895655,29.3229008 23.3150336,28.907888 23.3150336,28.3877863 L23.3150336,28.3877863 L23.3150336,25.7801527 C23.3041265,25.1638677 23.0932558,24.6856234 22.6824214,24.3454198 C22.271587,24.0052163 21.720778,23.8351145 21.0299945,23.8351145 C20.5755317,23.8351145 20.1637884,23.913486 19.7947646,24.070229 C19.4257408,24.226972 19.1339756,24.4433842 18.9194692,24.7194656 C18.7049627,24.9955471 18.5977095,25.292112 18.5977095,25.6091603 L18.5977095,25.6091603 L19.9229231,25.6091603 C19.9229231,25.3811705 20.0192692,25.193257 20.2119615,25.0454198 C20.4046537,24.8975827 20.6518815,24.8236641 20.9536448,24.8236641 C21.3026722,24.8236641 21.562625,24.9136132 21.733503,25.0935115 C21.904381,25.2734097 21.98982,25.5129771 21.98982,25.8122137 L21.98982,25.8122137 L21.98982,26.1916031 L21.1772405,26.1916031 C20.3083076,26.1916031 19.6402472,26.3563613 19.1730594,26.6858779 C18.7058717,27.0153944 18.4722778,27.4882952 18.4722778,28.1045802 C18.4722778,28.5926209 18.6595165,29.0022901 19.0339938,29.3335878 C19.4084712,29.6648855 19.8920196,29.8305344 20.4846392,29.8305344 Z M20.7300491,28.7885496 C20.4464643,28.7885496 20.2201418,28.714631 20.0510816,28.5667939 C19.8820215,28.4189567 19.7974914,28.2203562 19.7974914,27.9709924 C19.7974914,27.664631 19.9211053,27.4277354 20.168333,27.2603053 C20.4155608,27.0928753 20.7845846,27.0091603 21.2754045,27.0091603 L21.2754045,27.0091603 L21.98982,27.0091603 L21.98982,28.0992366 C21.8734775,28.3094148 21.6998728,28.4768448 21.4690056,28.6015267 C21.2381385,28.7262087 20.9918197,28.7885496 20.7300491,28.7885496 Z M27.0016361,32 C27.8196692,32 28.469551,31.780916 28.9512816,31.3427481 C29.4330122,30.9045802 29.6738775,30.3061069 29.6738775,29.5473282 L29.6738775,29.5473282 L29.6738775,23.9419847 L28.4795492,23.9419847 L28.4195601,24.5244275 C28.0341756,24.0648855 27.5051809,23.8351145 26.8325759,23.8351145 C26.1199782,23.8351145 25.548264,24.1031807 25.1174332,24.639313 C24.6866024,25.1754453 24.4711871,25.8923664 24.4711871,26.7900763 C24.4711871,27.7412214 24.6902381,28.4857506 25.1283403,29.0236641 C25.5664425,29.5615776 26.1308853,29.8305344 26.8216688,29.8305344 C27.4579167,29.8305344 27.9669151,29.6221374 28.3486639,29.2053435 L28.3486639,29.2053435 L28.3486639,29.5954198 C28.3486639,30.0478372 28.2214143,30.3907125 27.9669151,30.6240458 C27.7124159,30.8573791 27.3652063,30.9740458 26.9252863,30.9740458 C26.3290311,30.9740458 25.8273041,30.7371501 25.4201054,30.2633588 L25.4201054,30.2633588 L24.7929467,31.0435115 C25.0074532,31.3284987 25.3210325,31.5591603 25.7336848,31.7354962 C26.146337,31.9118321 26.5689875,32 27.0016361,32 Z M27.1597891,28.7725191 C26.7307762,28.7725191 26.3953827,28.6059796 26.1536084,28.2729008 C25.9118342,27.9398219 25.7909471,27.4829517 25.7909471,26.9022901 C25.7909471,26.243257 25.9118342,25.7445293 26.1536084,25.4061069 C26.3953827,25.0676845 26.7344119,24.8984733 27.1706962,24.8984733 C27.7051445,24.8984733 28.0978004,25.1175573 28.3486639,25.5557252 L28.3486639,25.5557252 L28.3486639,28.0992366 C28.090529,28.5480916 27.6942374,28.7725191 27.1597891,28.7725191 Z M33.6331576,29.8305344 C34.1239775,29.8305344 34.5666243,29.7352417 34.961098,29.5446565 C35.3555717,29.3540712 35.6709689,29.0860051 35.9072896,28.740458 L35.9072896,28.740458 L35.192874,28.0725191 C34.8111252,28.5534351 34.3166697,28.7938931 33.7095074,28.7938931 C33.2768588,28.7938931 32.9178331,28.6549618 32.6324305,28.3770992 C32.3470278,28.0992366 32.1843301,27.7216285 32.1443374,27.2442748 L32.1443374,27.2442748 L36,27.2442748 L36,26.7206107 C36,25.8015267 35.7809489,25.0908397 35.3428468,24.5885496 C34.9047446,24.0862595 34.2839484,23.8351145 33.4804581,23.8351145 C32.9750954,23.8351145 32.5169969,23.9615776 32.1061625,24.2145038 C31.6953281,24.46743 31.3762952,24.8209924 31.1490638,25.2751908 C30.9218324,25.7293893 30.8082167,26.2450382 30.8082167,26.8221374 L30.8082167,26.8221374 L30.8082167,26.9824427 C30.8082167,27.8445293 31.0690783,28.5347328 31.5908017,29.0530534 C32.112525,29.571374 32.7933103,29.8305344 33.6331576,29.8305344 Z M34.6911471,26.2931298 L32.1661516,26.2931298 C32.2279586,25.8478372 32.3706599,25.5005089 32.5942556,25.251145 C32.8178513,25.0017812 33.1114343,24.8770992 33.4750045,24.8770992 C33.8422105,24.8770992 34.129431,24.9884224 34.3366661,25.2110687 C34.5439011,25.433715 34.6620614,25.762341 34.6911471,26.1969466 L34.6911471,26.1969466 L34.6911471,26.2931298 Z" id="NoImage" fill="#CBCBCB" fill-rule="nonzero"></path>
    </g>
</svg>