<?xml version="1.0" encoding="UTF-8"?>
<svg width="32px" height="32px" viewBox="0 0 32 32" version="1.1" xmlns="http://www.w3.org/2000/svg" xmlns:xlink="http://www.w3.org/1999/xlink">
    <title>3A81A8F6-7C1D-48FB-BACC-5E9180EA6FC1@2x</title>
    <g id="Page-1" stroke="none" stroke-width="1" fill="none" fill-rule="evenodd">
        <g id="Icons-1.0.0.1" transform="translate(-416.000000, -469.000000)">
            <g id="Payees" transform="translate(40.000000, 414.000000)">
                <g id="Card" transform="translate(360.000000, 39.000000)">
                    <g id="ic.Telecome" transform="translate(16.000000, 16.000000)">
                        <rect id="Bond" stroke="#979797" opacity="0" x="0" y="0" width="32" height="32"></rect>
                        <path d="M18.0540541,2.5 C18.4512908,2.5 18.810627,2.66724006 19.0711556,2.9350056 C19.336579,3.2078019 19.5,3.58473198 19.5,4 L19.5,4 L19.5,28 C19.5,28.415268 19.336579,28.7921981 19.0711556,29.0649944 C18.810627,29.3327599 18.4512908,29.5 18.0540541,29.5 L18.0540541,29.5 L3.94594595,29.5 C3.54870923,29.5 3.18937302,29.3327599 2.92884438,29.0649944 C2.66342096,28.7921981 2.5,28.415268 2.5,28 L2.5,28 L2.5,4 C2.5,3.58473198 2.66342096,3.2078019 2.92884438,2.9350056 C3.18937302,2.66724006 3.54870923,2.5 3.94594595,2.5 L3.94594595,2.5 Z" id="Icon-Path" stroke="#083870" fill-rule="nonzero"></path>
                        <rect id="Rectangle" stroke="#083870" x="15.5" y="7.5" width="14" height="1" rx="0.5"></rect>
                        <rect id="Rectangle" stroke="#083870" x="15.5" y="10.5" width="11" height="1" rx="0.5"></rect>
                        <rect id="Rectangle" stroke="#083870" x="15.5" y="13.5" width="8" height="1" rx="0.5"></rect>
                        <path d="M9,25 C9,26.1045695 9.8954305,27 11,27 C12.1045695,27 13,26.1045695 13,25 C13,23.8954305 12.1045695,23 11,23 C9.8954305,23 9,23.8954305 9,25 Z" id="Icon-Path" fill="#00A0E6" fill-rule="nonzero"></path>
                    </g>
                </g>
            </g>
        </g>
    </g>
</svg>