<?xml version="1.0" encoding="UTF-8"?>
<svg width="32px" height="32px" viewBox="0 0 32 32" version="1.1" xmlns="http://www.w3.org/2000/svg" xmlns:xlink="http://www.w3.org/1999/xlink">
    <title>5249E6DA-0602-49EE-A96E-D30C87E5BBE0@2x</title>
    <g id="Page-1" stroke="none" stroke-width="1" fill="none" fill-rule="evenodd">
        <g id="Icons-1.0.0.1" transform="translate(-56.000000, -465.000000)">
            <g id="Payees" transform="translate(40.000000, 414.000000)">
                <g id="Card" transform="translate(0.000000, 39.000000)">
                    <g id="ic.Electricity-Water" transform="translate(16.000000, 12.000000)">
                        <rect id="Bond" stroke="#979797" opacity="0" x="0" y="0" width="32" height="32"></rect>
                        <path d="M14.0006092,2.81454583 C20.2944134,10.9301363 23.5,16.7184218 23.5,20.2000001 C23.5,22.7669876 22.437491,25.0904804 20.7211035,26.77254 C19.0010231,28.4582188 16.6245262,29.5 14,29.5 C11.3754739,29.5 8.9989769,28.4582188 7.2788965,26.7725401 C5.56250907,25.0904804 4.5,22.7669876 4.5,20.2000001 C4.5,16.7182049 7.70598603,10.9294151 14.0006092,2.81454583 Z" id="Icon-Path" stroke="#003774" fill-rule="nonzero"></path>
                        <circle id="Oval" stroke="#003774" fill="#43C6FF" cx="21" cy="21" r="6.5"></circle>
                        <polygon id="Icon-Path" fill="#FFFFFF" points="21.9707605 17.2424242 20.8362575 20.3939394 24 21.5817085 20.8362575 25 20.269006 25 21 22.1532645 18 20.3939394 21.6339897 17"></polygon>
                    </g>
                </g>
            </g>
        </g>
    </g>
</svg>