<?xml version="1.0" encoding="UTF-8"?>
<svg width="44px" height="44px" viewBox="0 0 44 44" version="1.1" xmlns="http://www.w3.org/2000/svg" xmlns:xlink="http://www.w3.org/1999/xlink">
    <title>4BEDBB86-175D-42AF-9355-BB2058430285@2x</title>
    <g id="Page-1" stroke="none" stroke-width="1" fill="none" fill-rule="evenodd">
        <g id="Icons-1.0.0.2" transform="translate(-58.000000, -156.000000)">
            <g id="Cards" transform="translate(40.000000, 99.000000)">
                <g id="Etihad-Cards" transform="translate(0.000000, 39.000000)">
                    <g id="ic.Etihad-Cards" transform="translate(18.000000, 18.000000)">
                        <circle id="Oval" stroke="#1E3A68" fill="#FFFFFF" cx="22" cy="22" r="21.5"></circle>
                        <g id="etihad-airways-vector-logo" transform="translate(4.000000, 13.000000)" fill="#C89801" fill-rule="nonzero">
                            <polygon id="Path" points="19.2079734 1.19003322 19.6863787 0.705647841 20.1229236 1.14817276 20.1647841 1.18405316 19.6863787 1.66843854"></polygon>
                            <polygon id="Path" points="20.1707641 1.19003322 20.6491694 0.705647841 21.0857143 1.14817276 21.1275748 1.19003322 20.6491694 1.66843854"></polygon>
                            <path d="M19.5189369,5.96810631 C19.3873754,5.96810631 19.2976744,5.92026578 19.2916944,5.91428571 C19.1063123,5.84252492 19.0046512,5.63920266 19.0046512,5.35215947 C19.0046512,5.30431894 19.0046512,5.2744186 19.0106312,5.25647841 L19.0106312,5.17873754 L14.944186,5.17873754 L14.944186,1.51893688 C14.944186,1.36345515 14.8425249,1.32159468 14.758804,1.27375415 C14.6870432,1.23787375 14.6152824,1.19601329 14.5973422,1.09435216 C14.5973422,1.07641196 14.5973422,1.07043189 14.5973422,1.05847176 L14.5973422,1.0345515 C15.1594684,0.62192691 15.566113,0.0837209302 15.566113,0.0837209302 L15.566113,4.55681063 L19.0166113,4.55681063 L19.0166113,4.3833887 C19.0106312,4.22790698 18.9986711,3.91096346 18.2451827,3.90498339 C18.2451827,3.90498339 17.8923588,3.91096346 17.5395349,3.91096346 C17.3421927,3.91096346 17.1448505,3.91096346 17.013289,3.90498339 C16.7980066,3.88704319 16.6784053,3.64784053 16.6724252,3.43255814 C16.6724252,3.28305648 16.7322259,3.16345515 16.827907,3.09767442 L16.8817276,3.06179402 L16.9116279,3.11561462 C16.9774086,3.24717608 17.2644518,3.30697674 17.8026578,3.30697674 L17.8564784,3.30697674 C18.0717608,3.30697674 18.3169435,3.30099668 18.5980066,3.29501661 C18.6099668,3.29501661 18.627907,3.29501661 18.6458472,3.29501661 C19.5607973,3.29501661 19.6624585,4.09036545 19.6684385,4.43122924 L19.6684385,4.4910299 C19.6684385,4.52093023 19.6684385,4.5448505 19.6684385,4.5627907 L20.5714286,4.5627907 L20.5714286,3.21129568 C20.5714286,3.21129568 20.5833887,3.10963455 20.3980066,3.00797342 C20.2724252,2.93621262 20.2425249,2.79269103 20.2425249,2.79269103 C20.972093,2.26644518 21.1754153,1.81196013 21.1754153,1.81196013 L21.1754153,5.17873754 L19.6564784,5.17873754 L19.6564784,5.22657807 C19.6564784,5.42990033 19.6923588,5.69302326 19.8119601,5.78272425 L19.8777409,5.83654485 L19.8059801,5.87840532 C19.7162791,5.93820598 19.6146179,5.96810631 19.5189369,5.96810631" id="Path"></path>
                            <path d="M12.2471761,5.68704319 L12.2471761,5.17873754 L10.1601329,5.17873754 L10.1601329,4.55083056 L12.8152824,4.55083056 L12.8152824,5.37607973 C12.8152824,5.37607973 12.7853821,5.63322259 13.2877076,5.63322259 C13.6046512,5.63322259 13.6046512,5.3282392 13.6046512,5.31627907 L13.6046512,3.84518272 C13.6046512,3.64186047 13.4671096,3.61196013 13.3714286,3.61196013 C13.3534884,3.61196013 13.3415282,3.61196013 13.3415282,3.61196013 L10.166113,3.61196013 L10.166113,1.77607973 C10.166113,1.77607973 10.5368771,2.23654485 10.9076412,2.45182724 C10.9674419,2.48770764 10.9375415,2.58936877 10.7521595,2.7089701 C10.7162791,2.73289037 10.6684385,2.75083056 10.6684385,2.80465116 L10.6684385,3.03189369 L13.8438538,3.03189369 C14.2146179,3.03787375 14.2504983,3.42657807 14.2504983,3.5461794 C14.2504983,3.5641196 14.2504983,5.65116279 14.2504983,5.65116279 C14.2504983,5.65714286 14.220598,6.2192691 13.3116279,6.2192691 C12.1813953,6.22524917 12.2471761,5.68704319 12.2471761,5.68704319" id="Path"></path>
                            <path d="M24.8591362,5.17873754 L24.8591362,0.0598006645 L24.9667774,0.233222591 C24.9667774,0.233222591 25.0445183,0.364784053 25.3734219,0.645847176 C25.5647841,0.813289037 25.6724252,0.879069767 25.7262458,0.902990033 C25.7800664,0.926910299 25.827907,0.944850498 25.827907,1.00465116 L25.827907,1.05847176 C25.8159468,1.16611296 25.738206,1.20797342 25.6664452,1.24385382 C25.5827243,1.29169435 25.4990033,1.33355482 25.4930233,1.48903654 C25.4810631,1.60863787 25.4930233,5.17873754 25.4930233,5.17873754 L24.8591362,5.17873754 Z" id="Path"></path>
                            <path d="M21.869103,5.84252492 L22.5089701,5.19667774 L21.7315615,4.43122924 L21.7315615,0.0598006645 C21.7315615,0.0598006645 22.0724252,0.705647841 22.5269103,1.02857143 L22.5269103,1.07641196 C22.5149502,1.17807309 22.4551495,1.21993355 22.4013289,1.25581395 C22.3295681,1.30365449 22.2637874,1.34551495 22.2578073,1.50697674 C22.2518272,1.62059801 22.2578073,4.06046512 22.2578073,4.10232558 L22.9036545,4.77209302 L23.5495017,4.10232558 C23.5495017,4.10232558 23.5554817,1.62657807 23.5495017,1.50697674 C23.5435216,1.34551495 23.4777409,1.30365449 23.4059801,1.25581395 C23.3461794,1.21993355 23.2863787,1.17807309 23.2803987,1.07641196 L23.2803987,1.04053156 C23.7887043,0.711627907 24.0757475,0.053820598 24.0757475,0.053820598 L24.0757475,4.3654485 L23.2983389,5.18471761 L23.944186,5.83056478 L22.9096346,6.87109635 L21.869103,5.84252492 Z M22.9096346,6.2730897 L23.3401993,5.83654485 L22.9096346,5.40598007 L22.4730897,5.83654485 L22.9096346,6.2730897 Z" id="Shape"></path>
                            <path d="M20.2305648,11.7209302 L21.3249169,10.5428571 L21.3249169,8.2166113 C21.3249169,8.1986711 21.3488372,8.1807309 21.3488372,8.1807309 L21.510299,8.10299003 L21.510299,7.97142857 L20.0392027,7.97142857 L20.0392027,8.10299003 L20.1887043,8.1986711 C20.2305648,8.22259136 20.2365449,8.24053156 20.2365449,8.25847176 L20.2365449,9.59202658 L17.2943522,9.59202658 L16.6305648,10.4352159 L16.6305648,8.26445183 L16.6365449,8.22259136 C16.6365449,8.22259136 16.648505,8.21063123 16.6724252,8.1986711 L16.8099668,8.1089701 L16.8219269,8.10299003 L16.8219269,7.97142857 L15.3568106,7.97142857 L15.3568106,8.10299003 L15.5003322,8.1986711 C15.5242525,8.21063123 15.5302326,8.22259136 15.5362126,8.22259136 L15.5362126,8.22259136 L15.5362126,12.2172757 L15.5302326,12.2710963 C15.5242525,12.2830565 15.5122924,12.2890365 15.5003322,12.2950166 L15.3568106,12.3906977 L15.3568106,12.5222591 L16.8219269,12.5222591 L16.8219269,12.3906977 L16.6664452,12.2950166 C16.6425249,12.2830565 16.6305648,12.2770764 16.6305648,12.2770764 L16.6305648,12.2770764 L16.6305648,10.4471761 L16.7860465,10.4950166 L16.9893688,10.3754153 C17.0252492,10.351495 17.0611296,10.3395349 17.0790698,10.3335548 C17.0910299,10.3275748 17.1149502,10.3215947 17.1627907,10.3215947 L20.2305648,10.3215947 L20.2305648,11.7209302 L20.2305648,11.7209302 Z" id="Path"></path>
                            <path d="M35.8564784,9.74750831 C35.6830565,9.20332226 35.2883721,8.75481728 34.6843854,8.41993355 C34.1401993,8.11495017 33.3627907,7.9654485 32.3162791,7.9654485 L28.3215947,7.9654485 L28.3215947,8.09700997 C28.3215947,8.09700997 28.4890365,8.21063123 28.4950166,8.21063123 C28.4950166,8.21063123 28.4950166,8.21063123 28.4950166,8.21063123 L28.4950166,8.68305648 L32.310299,8.68305648 C33.0817276,8.68305648 33.6438538,8.78471761 33.9906977,8.98803987 C34.5348837,9.30498339 34.8039867,9.71760797 34.8039867,10.2498339 C34.8039867,10.5189369 34.7322259,10.7581395 34.5946844,10.9734219 C34.4571429,11.1887043 34.2418605,11.3681063 33.9607973,11.517608 C33.5900332,11.7089701 33.027907,11.8046512 32.2863787,11.8046512 L30.2950166,11.8046512 L30.2950166,9.01196013 L29.2066445,9.01196013 L29.2066445,12.2172757 L29.2006645,12.2651163 C29.1946844,12.2710963 29.1827243,12.2830565 29.1707641,12.2950166 L29.0392027,12.3787375 L29.0272425,12.3847176 L29.0272425,12.5162791 L32.2923588,12.5162791 C32.9202658,12.5162791 33.4106312,12.4803987 33.7574751,12.4086379 C34.2299003,12.3069767 34.654485,12.1395349 35.007309,11.8943522 C35.372093,11.6491694 35.6292359,11.3681063 35.7787375,11.0571429 C35.8923588,10.8299003 35.9461794,10.5727575 35.9461794,10.3036545 C35.9342193,10.1122924 35.910299,9.9269103 35.8564784,9.74750831" id="Path"></path>
                            <path d="M21.5043189,12.3428571 C21.4744186,12.3368771 21.4564784,12.330897 21.4445183,12.3249169 L24.1833887,9.47840532 L23.5495017,8.80265781 L20.0033223,12.510299 L21.6358804,12.510299 L21.6358804,12.3548173 L21.5760797,12.3548173 C21.5521595,12.3488372 21.5282392,12.3488372 21.5043189,12.3428571" id="Path"></path>
                            <path d="M23.8425249,8.62325581 L24.5421927,9.36478405 L25.2657807,10.0943522 L24.0458472,10.0943522 L23.3760797,10.7940199 L23.5196013,10.8956811 L23.6750831,10.8119601 C23.6930233,10.8059801 23.7049834,10.8 23.7169435,10.8 C23.7289037,10.8 23.7707641,10.8 23.8305648,10.8 L25.923588,10.8 L27.3647841,12.3428571 C27.3647841,12.3428571 27.3408638,12.3667774 27.2152824,12.3667774 L27.1614618,12.3667774 L27.1614618,12.5222591 L28.7940199,12.5222591 L24.4704319,7.9654485 L23.8425249,8.62325581 Z" id="Path"></path>
                            <path d="M13.3654485,8.10299003 L13.5089701,8.1986711 C13.5448505,8.22259136 13.5627907,8.24053156 13.5627907,8.25847176 L13.5627907,12.2053156 L13.5508306,12.2591362 C13.5388704,12.2710963 13.5209302,12.2830565 13.5089701,12.2890365 L13.3594684,12.3847176 L13.3594684,12.5162791 L14.8186047,12.5162791 L14.8186047,12.3847176 L14.6870432,12.2890365 C14.669103,12.2770764 14.6571429,12.2651163 14.6571429,12.2651163 C14.6511628,12.2651163 14.6511628,12.2651163 14.6511628,12.2651163 L14.6511628,8.25847176 L14.6571429,8.2166113 L14.6930233,8.18671096 L14.8245847,8.09700997 L14.8245847,7.9654485 L13.3654485,7.9654485 L13.3654485,8.10299003 L13.3654485,8.10299003 Z" id="Path"></path>
                            <path d="M7.2538206,11.6431894 L7.06245847,11.7508306 C7.00863787,11.7807309 6.98471761,11.792691 6.97873754,11.792691 L3.71960133,11.7986711 C2.97209302,11.7986711 2.40996678,11.70299 2.03322259,11.5116279 C1.47109635,11.2186047 1.19601329,10.8059801 1.19601329,10.2378738 C1.19601329,9.98671096 1.26777409,9.74152824 1.41129568,9.52026578 C1.6923588,9.1076412 2.09900332,8.82657807 2.67906977,8.71893688 C2.8345515,8.68903654 2.98405316,8.68305648 3.07973422,8.68305648 L4.76013289,8.68305648 C4.86179402,8.67707641 4.84385382,8.70099668 4.84983389,8.71295681 L4.83189369,8.83255814 L4.96943522,8.83255814 L5.68704319,7.9654485 L3.68372093,7.9654485 C3.21727575,7.9654485 2.85847176,7.9833887 2.60730897,8.01328904 C2.47574751,8.03122924 2.35016611,8.0551495 2.22458472,8.07906977 C1.89568106,8.15681063 1.57873754,8.27641196 1.27375415,8.44983389 C0.777408638,8.73687708 0.430564784,9.089701 0.227242525,9.50830565 C0.113621262,9.74750831 0.053820598,10.0166113 0.0598006645,10.3036545 C0.0598006645,11.0392027 0.45448505,11.6252492 1.23189369,12.0438538 C1.58471761,12.2352159 1.97940199,12.3727575 2.40996678,12.4385382 C2.73289037,12.4923588 3.16943522,12.5162791 3.71960133,12.5162791 L6.75149502,12.5162791 L7.47508306,11.6372093 L7.41528239,11.6372093 L7.2538206,11.6431894 Z" id="Path"></path>
                            <path d="M5.80664452,10.5488372 L6.51229236,9.66378738 L1.75813953,9.66378738 L1.27973422,10.3754153 L5.56744186,10.3754153 C5.64518272,10.3813953 5.67508306,10.4053156 5.68106312,10.4172757 L5.66312292,10.5428571 L5.80664452,10.5428571 L5.80664452,10.5488372 Z" id="Path"></path>
                            <path d="M5.51362126,8.80265781 L5.65116279,8.85049834 L5.66910299,8.85647841 L5.87840532,8.75481728 C5.93820598,8.71893688 5.99202658,8.70099668 6.05182724,8.70099668 L8.67109635,8.70099668 L8.67109635,12.2232558 L8.65913621,12.2710963 C8.64717608,12.2830565 8.63521595,12.2950166 8.62923588,12.2950166 L8.47973422,12.3966777 L8.47973422,12.5282392 L9.9448505,12.5282392 L9.9448505,12.3966777 L9.79534884,12.3009967 L9.75946844,12.2651163 C9.75946844,12.2591362 9.75946844,12.241196 9.75946844,12.2292359 L9.75946844,8.70099668 L12.0916944,8.70099668 C12.1813953,8.71295681 12.1933555,8.73089701 12.1933555,8.73687708 L12.1933555,8.86245847 L12.3249169,8.86245847 L13.048505,7.9833887 L6.17740864,7.9833887 L5.51362126,8.80265781 Z" id="Path"></path>
                            <polygon id="Path" points="6.67375415 17.5275748 7.78006645 14.7348837 8.13887043 14.7348837 9.23322259 17.5275748 8.66511628 17.5275748 8.44385382 16.9475083 7.72026578 16.9475083 7.56478405 16.5528239 8.29435216 16.5528239 8.00730897 15.7813953 7.92956811 15.5421927 7.85182724 15.7813953 7.19401993 17.5275748"></polygon>
                            <rect id="Rectangle" x="10.6086379" y="14.7348837" width="1" height="2.79269103"></rect>
                            <path d="M14.2983389,17.5275748 L13.6584718,16.6126246 L13.3475083,16.6126246 L13.3475083,17.5275748 L12.8033223,17.5275748 L12.8033223,14.7348837 L13.7003322,14.7348837 C14.0292359,14.7348837 14.2803987,14.8066445 14.4538206,14.9561462 C14.6272425,15.1056478 14.7109635,15.3269103 14.7109635,15.6199336 C14.7109635,15.8352159 14.6631229,16.0265781 14.5614618,16.1820598 C14.4657807,16.3435216 14.3222591,16.4571429 14.1428571,16.5289037 L14.9023256,17.5156146 L14.2983389,17.5156146 L14.2983389,17.5275748 Z M13.3534884,16.2299003 L13.7063123,16.2299003 C14.0112957,16.2299003 14.1667774,16.0445183 14.1667774,15.6797342 C14.1667774,15.5122924 14.130897,15.386711 14.0591362,15.29701 C13.9873754,15.207309 13.8677741,15.1654485 13.7003322,15.1654485 L13.3534884,15.1654485 L13.3534884,16.2299003 Z" id="Shape"></path>
                            <polygon id="Path" points="16.8099668 17.5275748 15.9847176 14.7348837 16.5468439 14.7348837 17.0611296 16.7262458 17.0850498 16.7262458 17.5813953 15.1833887 17.4378738 14.7348837 17.9700997 14.7348837 18.6159468 16.7262458 18.627907 16.7262458 19.1481728 14.7348837 19.6803987 14.7348837 18.8372093 17.5275748 18.3767442 17.5275748 17.8146179 15.7993355 17.2524917 17.5275748"></polygon>
                            <polygon id="Path" points="20.5774086 17.5275748 21.6837209 14.7348837 22.0425249 14.7348837 23.1368771 17.5275748 22.5747508 17.5275748 22.3534884 16.9475083 21.6239203 16.9475083 21.4684385 16.5528239 22.2039867 16.5528239 21.9109635 15.7813953 21.8332226 15.5421927 21.7554817 15.7813953 21.0976744 17.5275748"></polygon>
                            <polygon id="Path" points="24.8352159 17.5275748 24.8352159 16.3853821 23.9202658 14.7348837 24.5242525 14.7348837 25.1282392 15.9129568 25.7561462 14.7348837 26.2883721 14.7348837 25.3734219 16.3853821 25.3734219 17.5275748"></polygon>
                            <path d="M28.2259136,17.5933555 C27.9328904,17.5933555 27.6936877,17.5335548 27.5142857,17.4079734 L27.5142857,16.8398671 C27.7295681,17.0312292 27.9687708,17.1269103 28.2378738,17.1269103 C28.5727575,17.1269103 28.7401993,16.9953488 28.7401993,16.738206 C28.7401993,16.6365449 28.7043189,16.558804 28.6385382,16.5049834 C28.5727575,16.4511628 28.4531561,16.4033223 28.2857143,16.3614618 L28.1840532,16.3375415 C27.7116279,16.2239203 27.4784053,15.9548173 27.4784053,15.5362126 C27.4784053,15.2611296 27.5621262,15.0518272 27.7355482,14.8963455 C27.9089701,14.7468439 28.1541528,14.669103 28.4710963,14.669103 C28.7760797,14.669103 29.0152824,14.7289037 29.1827243,14.848505 L29.1827243,15.4166113 C29.1049834,15.3448505 29.0033223,15.2790698 28.8717608,15.2252492 C28.7401993,15.1654485 28.5966777,15.1415282 28.4471761,15.1415282 C28.2857143,15.1415282 28.172093,15.1714286 28.1003322,15.2252492 C28.0285714,15.2790698 27.992691,15.3627907 27.992691,15.482392 C27.992691,15.5840532 28.0225914,15.6677741 28.082392,15.7156146 C28.1421927,15.7694352 28.255814,15.8172757 28.4232558,15.8591362 L28.5249169,15.8830565 C28.7760797,15.9428571 28.9614618,16.0325581 29.0810631,16.1581395 C29.2006645,16.2777409 29.254485,16.4511628 29.254485,16.6724252 C29.254485,16.9594684 29.1647841,17.1807309 28.9913621,17.3481728 C28.8299003,17.5096346 28.5727575,17.5933555 28.2259136,17.5933555" id="Path"></path>
                        </g>
                    </g>
                </g>
            </g>
        </g>
    </g>
</svg>