<?xml version="1.0" encoding="UTF-8"?>
<svg width="40px" height="24px" viewBox="0 0 40 24" version="1.1" xmlns="http://www.w3.org/2000/svg" xmlns:xlink="http://www.w3.org/1999/xlink">
    <!-- Generator: sketchtool 63.1 (101010) - https://sketch.com -->
    <title>C3FC88FA-2D3A-4EA1-A209-039D8C96A36F@2.00x</title>
    <desc>Created with sketchtool.</desc>
    <g id="Symbols" stroke="none" stroke-width="1" fill="none" fill-rule="evenodd">
        <g id="Quick-Links_Web" transform="translate(-88.000000, -24.000000)" fill="#00A0E6" fill-rule="nonzero">
            <g id="1" transform="translate(1.000000, 0.000000)">
                <g id="ic.Money-Transfer" transform="translate(87.000000, 24.000000)">
                    <path d="M37.1111111,0 C38.2156806,-2.02906125e-16 39.1111111,0.8954305 39.1111111,2 L39.1111111,22 C39.1111111,23.1045695 38.2156806,24 37.1111111,24 L8,24 L12.445,15.999 L4.44444444,16 L4.44444444,14.2222222 L13.3333333,14.2222222 L13.333,14.4 L21.3333333,0 L37.1111111,0 Z M37.3333333,1.77777778 L22.2222222,1.77777778 L10.6666667,22.2222222 L37.3333333,22.2222222 L37.3333333,1.77777778 Z M9.77777778,9.77777778 L9.77777778,11.5555556 L-2.57571742e-13,11.5555556 L-2.57571742e-13,9.77777778 L9.77777778,9.77777778 Z M15.1111111,5.33333333 L15.1111111,7.11111111 L6.22222222,7.11111111 L6.22222222,5.33333333 L15.1111111,5.33333333 Z" id="Combined-Shape"></path>
                    <path d="M26.2716049,5.33333333 L27.0617284,5.33333333 L27.0617284,6.90980392 C29.6612346,7.02039216 30.2222222,8.23137255 30.2222222,9.25490196 L29.4320988,9.25490196 C29.4320988,8.21411765 28.5013333,7.68627451 26.6666667,7.68627451 C26.0187654,7.68627451 23.9012346,7.81411765 23.9012346,9.45019608 C23.9012346,10.1341176 23.9012346,10.9090196 26.7622716,11.6196078 L28.0312099,12 C30.0325926,12.7333333 30.2222222,13.625098 30.2222222,14.5498039 C30.2222222,16.025098 29.0228148,16.9756863 27.0617284,17.0870588 L27.0617284,18.6666667 L26.2716049,18.6666667 L26.2716049,17.0901961 C23.6720988,16.9796078 23.1111111,15.7686275 23.1111111,14.745098 L23.9012346,14.745098 C23.9012346,15.7858824 24.832,16.3137255 26.6666667,16.3137255 C27.3145679,16.3137255 29.4320988,16.1858824 29.4320988,14.5498039 C29.4320988,13.8658824 29.4320988,13.0909804 26.5710617,12.3803922 L25.3021235,12 C23.3007407,11.2666667 23.1111111,10.374902 23.1111111,9.45019608 C23.1111111,7.97490196 24.3105185,7.02431373 26.2716049,6.91294118 L26.2716049,5.33333333 Z" id="Icon-Path" stroke="#00A0E6" stroke-width="0.9"></path>
                </g>
            </g>
        </g>
    </g>
</svg>