<?xml version="1.0" encoding="UTF-8"?>
<svg width="44px" height="44px" viewBox="0 0 44 44" version="1.1" xmlns="http://www.w3.org/2000/svg" xmlns:xlink="http://www.w3.org/1999/xlink">
    <title>BE42EE25-1F12-437A-8674-8FBECD65E46C@2x</title>
    <g id="Page-1" stroke="none" stroke-width="1" fill="none" fill-rule="evenodd">
        <g id="Icons-1.0.0.2" transform="translate(-58.000000, -370.000000)">
            <g id="Cards" transform="translate(40.000000, 99.000000)">
                <g id="Other-Cards" transform="translate(0.000000, 253.000000)">
                    <g id="ic.Other-Cards" transform="translate(18.000000, 18.000000)">
                        <circle id="Oval" stroke="#1E326E" fill="#FFFFFF" cx="22" cy="22" r="21.5"></circle>
                        <path d="M14.7000127,12 C14.0030246,12 13.3313075,12.2065344 12.8250392,12.6249976 C12.3187709,13.043469 12,13.6752753 12,14.3999959 L12,25.5999712 C12,26.3246835 12.3187709,26.948168 12.8250392,27.3666477 C13.3313075,27.7851273 14.0030246,28 14.7000127,28 L33.3000721,28 C33.9970602,28 34.6687773,27.7851273 35.1750456,27.3666477 C35.6813139,26.948168 36,26.3246835 36,25.5999712 L36,14.3999959 C36,13.6752753 35.6813139,13.043469 35.1750456,12.6249976 C34.6687773,12.2065344 33.9970602,12 33.3000721,12 L14.7000127,12 Z" id="Path" stroke="#1E326E" fill-rule="nonzero"></path>
                        <path d="M12.7000127,14 C12.0030246,14 11.3313075,14.2065344 10.8250392,14.6249976 C10.3187709,15.043469 10,15.6752753 10,16.3999959 L10,27.5999712 C10,28.3246835 10.3187709,28.948168 10.8250392,29.3666477 C11.3313075,29.7851273 12.0030246,30 12.7000127,30 L31.3000721,30 C31.9970602,30 32.6687773,29.7851273 33.1750456,29.3666477 C33.6813139,28.948168 34,28.3246835 34,27.5999712 L34,16.3999959 C34,15.6752753 33.6813139,15.043469 33.1750456,14.6249976 C32.6687773,14.2065344 31.9970602,14 31.3000721,14 L12.7000127,14 Z" id="Path" stroke="#1E326E" fill="#FFFFFF" fill-rule="nonzero"></path>
                        <path d="M10.7000127,16 C10.0030246,16 9.33130751,16.2065344 8.82503922,16.6249976 C8.31877094,17.043469 8,17.6752753 8,18.3999959 L8,29.5999712 C8,30.3246835 8.31877094,30.948168 8.82503922,31.3666477 C9.33130751,31.7851273 10.0030246,32 10.7000127,32 L29.3000721,32 C29.9970602,32 30.6687773,31.7851273 31.1750456,31.3666477 C31.6813139,30.948168 32,30.3246835 32,29.5999712 L32,18.3999959 C32,17.6752753 31.6813139,17.043469 31.1750456,16.6249976 C30.6687773,16.2065344 29.9970602,16 29.3000721,16 L10.7000127,16 Z" id="Path" stroke="#1E326E" fill="#FFFFFF" fill-rule="nonzero"></path>
                        <path d="M24.5,19 C25.3402754,19 26,19.6597426 26,20.4999323 C26,21.3402574 25.3402754,22 24.5,22 C23.6597246,22 23,21.3402574 23,20.4999323 C23,19.6597426 23.6597246,19 24.5,19 Z" id="Path" stroke="#1E3A68" fill-opacity="0.6" fill="#00A0E6" fill-rule="nonzero"></path>
                        <path d="M27.5000638,19 C28.3403035,19 29,19.6597426 29,20.4999323 C29,21.3402574 28.3403035,22 27.5000638,22 C26.659824,22 26,21.3402574 26,20.4999323 C26,19.6597426 26.659824,19 27.5000638,19 Z" id="Path" stroke="#1E3A68" fill-opacity="0.6" fill="#00A0E6" fill-rule="nonzero"></path>
                        <path d="M11.6076719,19.0000432 C11.2741696,19.012255 10.9849658,19.2614953 11.0006063,19.5232019 C11.0161497,19.7849085 11.3339144,20.0118452 11.6674168,19.9995203 L18.3541731,19.9995203 C18.6905899,20.0033082 19,19.7638204 19,19.4997959 C19,19.2357148 18.6905899,18.9963061 18.3541731,19.0000432 C16.107088,19.0000432 13.8503855,19.0000432 11.6076719,19.0000432 Z" id="Path" fill="#1E3A68" fill-rule="nonzero"></path>
                        <path d="M11.270239,22.000043 C11.1219519,22.0123111 10.9933005,22.2615161 11.0002707,22.5232153 C11.0071984,22.7849145 11.1484728,23.0118449 11.2968023,22.9995203 L12.7127761,22.9995203 C12.8623807,23.0033081 13,22.7638271 13,22.4998099 C13,22.2357363 12.8623807,21.9963118 12.7127761,22.000043 C12.2329788,22.000043 11.7479963,22.000043 11.270239,22.000043 Z" id="Path" fill="#1E3A68" fill-rule="nonzero"></path>
                        <path d="M11.6319807,28.000043 C11.2851726,28.0123111 10.9843141,28.2615161 11.0006345,28.5232153 C11.0168578,28.7849145 11.3472483,29.0118449 11.6940564,28.9995203 L22.3282415,28.9995203 C22.6781582,29.0033081 23,28.7638271 23,28.4998099 C23,28.2357363 22.6781582,27.9963118 22.3282415,28.000043 C15.9070461,28.000043 18.0488046,28.000043 11.6319807,28.000043 Z" id="Path" fill="#1E3A68" fill-rule="nonzero"></path>
                    </g>
                </g>
            </g>
        </g>
    </g>
</svg>