<?xml version="1.0" encoding="UTF-8"?>
<svg width="44px" height="44px" viewBox="0 0 44 44" version="1.1" xmlns="http://www.w3.org/2000/svg" xmlns:xlink="http://www.w3.org/1999/xlink">
    <title>760547F3-7A62-44B3-A6F9-0FB134D6552C@2x</title>
    <g id="Page-1" stroke="none" stroke-width="1" fill="none" fill-rule="evenodd">
        <g id="Icons-1.0.0.2" transform="translate(-418.000000, -156.000000)">
            <g id="Cards" transform="translate(40.000000, 99.000000)">
                <g id="ADIB-Rewards-Cards" transform="translate(360.000000, 39.000000)">
                    <g id="ic.ADIB-Rewards-Cards" transform="translate(18.000000, 18.000000)">
                        <circle id="Oval" stroke="#1E326E" fill="#FFFFFF" cx="22" cy="22" r="21.5"></circle>
                        <path d="M21.8739496,37 C30.2278366,37 37,30.1919462 37,21.7937863 C37,14.7029312 32.1226017,9.01059975 25.6500975,7.23194415 C24.4567948,6.90402249 23.1501959,7.10513182 21.8739496,7.02602091 C13.6753101,6.51781036 7,13.5237598 7,21.9219198 C7,30.3200797 13.5200626,37 21.8739496,37 Z" id="Oval" fill-opacity="0.6" fill="#00A0E6"></path>
                        <circle id="Oval" stroke="#1E326E" fill="#FFFFFF" cx="22" cy="22" r="11"></circle>
                        <path d="M22.1424692,16.8573029 L24.085972,19.5194318 L27.2696411,20.7255794 L25.7840059,23.2636967 L25.4030071,26.9314223 L22.6069917,25.9920206 L18.942887,27.2920592 L18.942887,23.8949109 L16.7817707,20.7264304 L20.259499,19.5244902 L22.1424692,16.8573029 Z" id="Path-14" stroke="#1E326E" fill-opacity="0.6" fill="#00A0E6"></path>
                        <path d="M37.1460625,24.1986667 C37.5463125,23.5619278 38,22.8402563 38,22.0000116 C38,21.159767 37.5463125,20.4380954 37.1460625,19.8013565 C36.878125,19.3751584 36.6250625,18.9726238 36.543875,18.6076309 C36.45725,18.218335 36.5151875,17.7288852 36.5765,17.2107833 C36.6681875,16.4357091 36.7630625,15.6342853 36.4181875,14.9039158 C36.06725,14.1606914 35.3575,13.7153706 34.73125,13.3224293 C34.302125,13.0532415 33.8968125,12.7988913 33.6610625,12.4971502 C33.4228125,12.1922753 33.2689375,11.7298146 33.1060625,11.2402368 C32.8703125,10.5316761 32.6031875,9.72865338 31.97625,9.21713893 C31.3525625,8.7083106 30.5293125,8.6200523 29.802875,8.54215475 C29.297375,8.48798461 28.819875,8.43682038 28.47225,8.26542019 C28.1365,8.09990388 27.8060625,7.75537671 27.45625,7.39063966 C26.9396875,6.85200817 26.3541875,6.24149093 25.56,6.0569799 C24.7954375,5.87944 24.0570625,6.15048254 23.343,6.4127632 C22.8574375,6.59100661 22.39875,6.75946486 22,6.75946486 C21.60125,6.75946486 21.1425625,6.59100661 20.657,6.41269925 C19.943,6.15048254 19.2046875,5.87937605 18.44,6.05691594 C17.6458125,6.24136301 17.0603125,6.85188026 16.54375,7.39057571 C16.1939375,7.75531275 15.8635625,8.09983993 15.5278125,8.26535623 C15.1801875,8.43669247 14.70275,8.4878567 14.1971875,8.54209079 C13.47075,8.61998834 12.6474375,8.70824665 12.0238125,9.21707497 C11.396875,9.72858942 11.1296875,10.5316121 10.894,11.2401089 C10.731125,11.7297506 10.57725,12.1922113 10.339,12.4970862 C10.10325,12.7988273 9.697875,13.0531136 9.26875,13.3223654 C8.6425625,13.7153067 7.9328125,14.1606274 7.581875,14.9038519 C7.237,15.6342853 7.3318125,16.4357091 7.4235,17.2107833 C7.4848125,17.7289491 7.54275,18.218335 7.456125,18.6076309 C7.3749375,18.9726238 7.121875,19.3751584 6.8539375,19.8013565 C6.4536875,20.4380954 6,21.159767 6,22.0000116 C6,22.8402563 6.4536875,23.5619278 6.8539375,24.1986028 C7.121875,24.6248648 7.3749375,25.0273995 7.456125,25.3923923 C7.54275,25.7816882 7.4848125,26.2710741 7.4235,26.7892399 C7.3318125,27.5643141 7.2369375,28.3657379 7.5818125,29.0961074 C7.93275,29.8393319 8.6425,30.2847166 9.26875,30.6775939 C9.697875,30.9468457 10.1031875,31.201132 10.3389375,31.5028731 C10.5771875,31.807748 10.7310625,32.2702087 10.8939375,32.7597865 C11.129625,33.4683472 11.3968125,34.2713699 12.02375,34.7828843 C12.6474375,35.2917126 13.47075,35.3799709 14.197125,35.4578685 C14.702625,35.5120386 15.180125,35.5632029 15.52775,35.7346031 C15.8635,35.9001194 16.1939375,36.2446465 16.54375,36.6093836 C17.0603125,37.1480151 17.6458125,37.7585323 18.44,37.9430433 C19.20475,38.1206472 19.943,37.8496047 20.657,37.58726 C21.142625,37.4089527 21.60125,37.2404944 22,37.2404944 C22.39875,37.2404944 22.8574375,37.4089527 23.343,37.58726 C23.897625,37.7909577 24.46675,38 25.051625,38 C25.21975,38 25.38925,37.9826956 25.56,37.9430433 C26.3541875,37.7585963 26.9396875,37.148079 27.45625,36.6094475 C27.8060625,36.2446465 28.1364375,35.9001833 28.4721875,35.734667 C28.8198125,35.5632668 29.2973125,35.5121026 29.8028125,35.4579325 C30.52925,35.3800349 31.3525,35.2917766 31.9761875,34.7829483 C32.603125,34.2714338 32.87025,33.4684111 33.106,32.7599144 C33.268875,32.2702726 33.42275,31.8078119 33.661,31.502937 C33.89675,31.2011959 34.302125,30.9469097 34.73125,30.6776579 C35.3574375,30.2847166 36.0671875,29.8393958 36.418125,29.0961714 C36.763,28.3657379 36.6681875,27.5643141 36.5765,26.7892399 C36.5151875,26.2710741 36.45725,25.7816882 36.543875,25.3923923 C36.625,25.0273995 36.878125,24.6248648 37.1460625,24.1986667 Z M36.0948125,23.5066065 C35.78025,24.0069927 35.455,24.5243911 35.3250625,25.1084308 C35.1901875,25.7145991 35.2640625,26.3391226 35.3355625,26.9429885 C35.4088125,27.5622036 35.478,28.1470748 35.292625,28.5396963 C35.1011875,28.945045 34.604125,29.256955 34.0778125,29.5871562 C33.576,29.9020081 33.0570625,30.2276045 32.68475,30.7040075 C32.309875,31.1836722 32.1130625,31.7753226 31.9226875,32.3475946 C31.72475,32.9426347 31.5376875,33.5046738 31.196875,33.7827514 C30.8589375,34.0585266 30.282625,34.1202435 29.6725625,34.1856698 C29.0829375,34.2488576 28.47325,34.3142199 27.9296875,34.5821926 C27.3971875,34.8446651 26.973625,35.2863404 26.564,35.7134339 C26.1295625,36.1664292 25.7191875,36.5942901 25.28325,36.6955953 C24.87425,36.790441 24.3355,36.5927552 23.765125,36.3833016 C23.20025,36.1758306 22.616125,35.9613246 21.999875,35.9613246 C21.383625,35.9613246 20.7995,36.1758306 20.234625,36.3833016 C19.66425,36.5927552 19.1255,36.7905689 18.7165,36.6955953 C18.2805625,36.5942901 17.8701875,36.1664292 17.43575,35.7134339 C17.026125,35.2863404 16.6025625,34.8446651 16.0700625,34.5821926 C15.5265,34.3142199 14.9168125,34.2489216 14.3271875,34.1856698 C13.7170625,34.1203075 13.1408125,34.0584627 12.802875,33.7827514 C12.4620625,33.5046738 12.2750625,32.9426347 12.077125,32.3475946 C11.88675,31.7753866 11.689875,31.1836722 11.3150625,30.7040075 C10.94275,30.2276045 10.423875,29.902072 9.922,29.5871562 C9.3956875,29.256955 8.8985625,28.945109 8.7071875,28.5396963 C8.5218125,28.1470748 8.591,27.5622036 8.66425,26.9429885 C8.73575,26.3391226 8.809625,25.7146631 8.67475,25.1084308 C8.5448125,24.5243911 8.2195625,24.0069288 7.905,23.5065425 C7.56825,22.9706611 7.25,22.4643271 7.25,22.0000116 C7.25,21.5356322 7.56825,21.0293621 7.9051875,20.4933528 C8.21975,19.9929666 8.545,19.4755682 8.6749375,18.8915285 C8.8098125,18.2852962 8.7359375,17.6608367 8.6644375,17.0569708 C8.5911875,16.4377557 8.522,15.8528845 8.707375,15.4602629 C8.8988125,15.0549143 9.395875,14.7430043 9.9221875,14.4128031 C10.424,14.0979512 10.9429375,13.7723548 11.31525,13.2959518 C11.6900625,12.8163511 11.8869375,12.2245727 12.0773125,11.6523647 C12.2753125,11.0573246 12.4623125,10.4952855 12.803125,10.2172079 C13.141125,9.94143264 13.717375,9.87971578 14.3275,9.81428952 C14.917125,9.75110169 15.52675,9.68573937 16.070375,9.41783064 C16.602875,9.15535811 17.026375,8.71368285 17.436,8.28658939 C17.8704375,7.83359404 18.2808125,7.40573311 18.71675,7.30442793 C19.125625,7.20951827 19.6645,7.40726804 20.234875,7.61672163 C20.799625,7.8240647 21.38375,8.03857076 22,8.03857076 C22.61625,8.03857076 23.200375,7.8240647 23.76525,7.61659372 C24.335625,7.40720408 24.87425,7.20939036 25.283375,7.30430002 C25.7193125,7.40554125 26.1296875,7.83346612 26.564125,8.28646148 C26.97375,8.71355494 27.3973125,9.1552302 27.9298125,9.41770273 C28.473375,9.68561146 29.0830625,9.75097378 29.6726875,9.81422556 C30.2828125,9.87965183 30.8590625,9.94143264 31.1970625,10.2171439 C31.537875,10.4952215 31.724875,11.0572607 31.9228125,11.6523647 C32.1131875,12.2245727 32.3100625,12.8162871 32.684875,13.2959518 C33.0571875,13.7723548 33.5760625,14.0979512 34.0779375,14.4128031 C34.60425,14.7430043 35.101375,15.0548503 35.29275,15.4602629 C35.478125,15.8528845 35.4089375,16.4377557 35.3356875,17.0569708 C35.2641875,17.6608367 35.1903125,18.2853602 35.3251875,18.8915285 C35.455125,19.4755682 35.780375,19.9929666 36.0949375,20.4933528 C36.43175,21.0293621 36.75,21.5356322 36.75,22.0000116 C36.75,22.4643271 36.43175,22.9706611 36.0948125,23.5066065 Z" id="Shape" fill="#1E3A68" fill-rule="nonzero"></path>
                    </g>
                </g>
            </g>
        </g>
    </g>
</svg>