<?xml version="1.0" encoding="UTF-8"?>
<svg width="44px" height="44px" viewBox="0 0 44 44" version="1.1" xmlns="http://www.w3.org/2000/svg" xmlns:xlink="http://www.w3.org/1999/xlink">
    <title>C6D9BAA6-F0BE-4FF0-9B1F-4A71BB78A114@2x</title>
    <g id="Page-1" stroke="none" stroke-width="1" fill="none" fill-rule="evenodd">
        <g id="Icons-1.0.0.2" transform="translate(-778.000000, -156.000000)">
            <g id="Cards" transform="translate(40.000000, 99.000000)">
                <g id="Cashback-Cards" transform="translate(720.000000, 39.000000)">
                    <g id="ic.Cashback-Cards" transform="translate(18.000000, 18.000000)">
                        <circle id="Oval" stroke="#1E326E" fill="#FFFFFF" cx="21.999894" cy="22" r="21.5"></circle>
                        <rect id="Rectangle" stroke="#003774" fill-opacity="0.6" fill="#00A0E6" x="10.5" y="20.5" width="23" height="15" rx="2"></rect>
                        <path d="M22,36 C21.724,36 21.5,35.7013333 21.5,35.3333333 L21.5,20.6666667 C21.5,20.2986667 21.724,20 22,20 C22.276,20 22.5,20.2986667 22.5,20.6666667 L22.5,35.3333333 C22.5,35.7013333 22.276,36 22,36 Z" id="Path" fill="#1E326E" fill-rule="nonzero"></path>
                        <path d="M33.5198406,20.5 L37.4237336,26.2893716 L27.2046066,26.5 C26.7083655,26.5 26.2341399,26.2675454 25.9762683,25.8757956 L25.9762683,25.8757956 L22.576293,20.7095247 L33.5198406,20.5 Z" id="Path" stroke="#1E326E" fill="#FFFFFF" fill-rule="nonzero"></path>
                        <path d="M21.213,20.501 L18.0180123,25.8836525 C17.7588962,26.2709969 17.2880721,26.5 16.7955571,26.5 L16.7955571,26.5 L6.787,26.5 L10.3517143,20.5538596 L21.213,20.501 Z" id="Path" stroke="#1E326E" fill="#FFFFFF" fill-rule="nonzero"></path>
                        <path d="M21.9999626,6.5 C23.7920556,6.5 25.4168116,7.22927262 26.5936896,8.40613989 C27.7707698,9.58320938 28.5,11.2081993 28.5,12.9999738 C28.5,14.7917532 27.7707662,16.4167592 26.5936811,17.5938424 C25.4168042,18.7707174 23.7920517,19.5 21.9999626,19.5 C20.2079063,19.5 18.5831705,18.770714 17.4063031,17.593836 C16.229231,16.4167531 15.5,14.7917498 15.5,12.9999738 C15.5,11.2082027 16.2292274,9.58321548 17.4062947,8.40614627 C18.583163,7.22927602 20.2079024,6.5 21.9999626,6.5 Z" id="Path" stroke="#1E3A68"></path>
                        <text id="$" font-family="Roboto-Regular, Roboto" font-size="10" font-weight="normal" fill="#1E3A68">
                            <tspan x="19.1923828" y="15">$</tspan>
                        </text>
                    </g>
                </g>
            </g>
        </g>
    </g>
</svg>