<?xml version="1.0" encoding="UTF-8"?>
<svg width="44px" height="44px" viewBox="0 0 44 44" version="1.1" xmlns="http://www.w3.org/2000/svg" xmlns:xlink="http://www.w3.org/1999/xlink">
    <title>6407A504-6E82-461C-9E76-BD14C4733CA5@2x</title>
    <g id="Page-1" stroke="none" stroke-width="1" fill="none" fill-rule="evenodd">
        <g id="Icons-1.0.0.2" transform="translate(-58.000000, -263.000000)">
            <g id="Cards" transform="translate(40.000000, 99.000000)">
                <g id="Business-Coverd-Cards" transform="translate(0.000000, 146.000000)">
                    <g id="ic.Business-Coverd-Cards" transform="translate(18.000000, 18.000000)">
                        <circle id="Oval-Copy-2" stroke="#1E326E" fill="#FFFFFF" cx="22" cy="22" r="21.5"></circle>
                        <path d="M23.8576801,19.2281437 L28.2341226,23.7044638 C29.2552925,24.7489385 29.2552925,26.5394665 28.2341226,27.7331519 C27.6505969,28.1807839 26.9211898,28.4792052 26.1917828,28.4792052 L26.0798226,28.4746964 C26.0520652,29.1616343 25.7976224,29.8565345 25.3164943,30.4189439 C24.7329686,31.0157866 24.0035616,31.3142079 23.2741545,31.3142079 C23.1359475,31.3142079 22.9977404,31.303494 22.8615182,31.2820661 C22.8119705,31.9286816 22.5599434,32.5753934 22.1071032,33.104736 C21.5235775,33.7015787 20.7941704,34 20.0647634,34 C19.3353563,34 18.7518306,33.7015787 18.168305,33.2539467 L14.8130325,30.1205226 C13.5000997,28.9268372 11.8954042,28.3299946 10.1448272,28.3299946 C9.70718295,28.1807839 9.41542012,27.8823625 9.41542012,27.4347305 C9.41542012,26.9870985 8.10248739,26.6886772 10.1448272,26.6886772 C12.187167,26.6886772 14.2295068,27.4347305 15.8342024,28.9268372 L19.1894749,32.0602613 C19.7730005,32.5078933 20.5024076,32.5078933 21.0859333,32.0602613 C21.6694589,31.4634186 21.6694589,30.7173653 21.0859333,30.1205226 L19.6271191,28.6284159 L19.4812377,28.4792052 C19.1894749,28.1807839 19.1894749,27.7331519 19.4812377,27.4347305 C19.7730005,27.1363092 20.2106448,27.1363092 20.5024076,27.4347305 L20.6454082,27.5810092 C20.6463701,27.5819833 20.6473303,27.5829606 20.648289,27.5839412 L22.1071032,29.0760479 L22.398866,29.3744692 C22.8365102,29.8221013 23.7117987,29.8221013 24.2953244,29.3744692 C24.7202593,29.0484948 24.7583867,28.4851393 24.5787152,27.9725121 C24.4735933,27.8990819 24.3791118,27.8188514 24.2953244,27.7331519 L22.8365102,26.2410452 C22.6516308,26.0519465 22.5839027,25.8029354 22.6333259,25.5699405 C22.5839027,25.3362589 22.6516308,25.0872478 22.8365102,24.8981492 C23.1282731,24.5997278 23.5659173,24.5997278 23.8576801,24.8981492 L25.3164943,26.3902558 C25.479782,26.5572701 25.6169596,26.74336 25.7280271,26.9430352 C26.1834828,27.1069277 26.7789253,27.0216266 27.2129527,26.6886772 C27.7964783,26.0918345 27.7964783,25.3457812 27.2129527,24.7489385 L22.8365102,20.2726184 C22.5447474,19.9741971 22.5447474,19.526565 22.8365102,19.2281437 C23.1282731,18.9297224 23.5659173,18.9297224 23.8576801,19.2281437 Z M20.0647634,15.050245 L20.9400519,15.945509 C21.2318147,16.2439303 21.2318147,16.6915623 20.9400519,16.9899837 C20.648289,17.288405 20.2106448,17.288405 19.918882,16.9899837 L19.0435935,16.2439303 C18.4600678,15.6470876 17.4388979,15.497877 16.7094908,15.7962983 L10.43659,18.4820904 L10.1448272,18.4820904 L10.1448272,18.4820904 C9.85306436,18.4820904 9.56130154,18.3328797 9.41542012,18.0344584 C9.26953871,17.5868263 9.41542012,17.288405 9.85306436,16.9899837 L16.1259652,14.3041916 C17.4388979,13.7073489 19.0435935,14.0057703 20.0647634,15.050245 Z" id="Combined-Shape" stroke="#FFFFFF" stroke-width="0.5" fill="#1E3A68" fill-rule="nonzero"></path>
                        <path d="M34.6357065,26.6998717 C34.9215879,27.005182 35.1558749,27.252207 34.8699935,27.5575173 L33.2976455,29.084069 C32.4400012,29.6946897 31.5823569,30 30.8676533,30 C30.4388311,30 30.1529497,30 29.7241275,29.8473448 L28.2003418,29.084069 C27.7075893,28.3226303 28.2003418,27.5575173 28.8501242,27.7561767 L30.1529497,28.4734483 C30.8676533,28.7787587 31.7252976,28.6261035 32.2970605,28.0154828 L33.8694084,26.4889312 C34.1552899,26.1836208 34.3498251,26.3945613 34.6357065,26.6998717 Z M26.9246327,14.2765178 L34.7139647,17.4822763 C35.1633492,17.6349315 34.8637595,17.7875866 34.7139647,18.2455521 C34.5641699,18.7035176 34.5641699,19.1614831 34.1147853,19.008828 L26.3254533,15.8030695 C25.7262739,15.4977591 24.9772997,15.4977591 24.5279151,15.8030695 L19.2850955,18.3982073 C18.835711,18.5508625 18.5361213,18.8561728 18.5361213,19.3141383 C18.5361213,19.7721038 18.5361213,20.0774141 18.835711,20.3827245 C19.2850955,20.84069 19.8842749,20.84069 20.3336594,20.6880348 L24.9772997,18.2455521 C25.2768894,18.092897 25.7262739,18.2455521 26.0258636,18.5508625 C26.1756585,18.8561728 26.0258636,19.3141383 25.7262739,19.6194486 L21.0826337,22.0619313 C20.6332491,22.2145865 20.1838646,22.3672416 19.7344801,22.3672416 C18.9855058,22.3672416 18.3863264,22.0619313 17.7871471,21.6039658 C17.1879677,20.84069 16.888378,19.924759 17.0381728,19.008828 C17.1879677,18.092897 17.6373522,17.3296211 18.5361213,17.0243108 L23.7789409,14.429173 C24.8275048,13.9712074 25.8760688,13.8185523 26.9246327,14.2765178 Z" id="Combined-Shape" stroke="#FFFFFF" stroke-width="0.5" fill="#1E3A68" fill-rule="nonzero"></path>
                        <path d="M39.25,14.5 L39.5,29.2 L34.75,29.5 L34.5,14.8 L39.25,14.5 Z" id="Path" stroke="#003774" fill-opacity="0.6" fill="#00A0E6"></path>
                        <path d="M9.25,14.5 L9.5,29.2 L4.75,29.5 L4.5,14.8 L9.25,14.5 Z" id="Path" stroke="#003774" fill-opacity="0.6" fill="#00A0E6"></path>
                    </g>
                </g>
            </g>
        </g>
    </g>
</svg>