<?xml version="1.0" encoding="UTF-8"?>
<svg width="17px" height="22px" viewBox="0 0 17 22" version="1.1" xmlns="http://www.w3.org/2000/svg" xmlns:xlink="http://www.w3.org/1999/xlink">
    <title>56C30A21-2512-4B37-8884-B9ED6AAC6BB2@2.00x</title>
    <g id="Registration/Signup---Phone" stroke="none" stroke-width="1" fill="none" fill-rule="evenodd">
        <g id="Registration-Phone-Port-1.0.0.2" transform="translate(-133.000000, -492.000000)" fill="#00A0E6" fill-rule="nonzero">
            <g id="Security-Tips" transform="translate(133.000000, 492.000000)">
                <g id="Security-icon" transform="translate(0.000000, 0.000000)">
                    <path d="M8.5,1.108 L16,4.63 L16,9.643 C16,14.453 12.784,18.895 8.5,20.035 C4.216,18.896 1,14.453 1,9.644 L1,4.631 M8.5,21.069 C13.398,19.842 17,14.944 17,9.644 L17,4 L8.5,2.13162821e-14 L0,4 L0,9.644 C0,14.944 3.602,19.842 8.5,21.069 L8.5,21.069 Z" id="Icon-Shape"></path>
                    <polygon id="Icon-Path" stroke="#00A0E6" stroke-width="0.5" points="13.2307692 8.24607842 7.8974359 13.8461538 5.23076923 11.0461161 5.61164465 10.6461916 7.8974359 13.0463047 12.8493551 7.84615385 13.2302305 8.24664409"></polygon>
                </g>
            </g>
        </g>
    </g>
</svg>